AtkinsonHyperlegibleNext-ExtraBoldItalic.sfdir
StartChar: exclam
Encoding: 33 33 263
Width: 319
GlyphClass: 1
Flags: W
LayerCount: 2
Fore
SplineSet
122 495 m 1,0,-1
 159 668 l 1,1,-1
 337 668 l 1,2,-1
 300 495 l 1,3,-1
 216 252 l 1,4,-1
 104 252 l 1,5,-1
 122 495 l 1,0,-1
53.5 18.5 m 128,-1,7
 23 49 23 49 23 92 c 256,8,9
 23 135 23 135 53.5 165 c 128,-1,10
 84 195 84 195 127 195 c 0,11,12
 169 195 169 195 199.5 165 c 128,-1,13
 230 135 230 135 230 92 c 256,14,15
 230 49 230 49 199.5 18.5 c 128,-1,16
 169 -12 169 -12 127 -12 c 0,17,6
 84 -12 84 -12 53.5 18.5 c 128,-1,7
EndSplineSet
EndChar
StartChar: quotedbl
Encoding: 34 34 293
Width: 430
GlyphClass: 1
Flags: W
LayerCount: 2
Fore
SplineSet
326 668 m 1,0,-1
 480 668 l 1,1,-1
 416 432 l 1,2,-1
 290 432 l 1,3,-1
 326 668 l 1,0,-1
129 668 m 1,4,-1
 283 668 l 1,5,-1
 219 432 l 1,6,-1
 93 432 l 1,7,-1
 129 668 l 1,4,-1
EndSplineSet
EndChar
StartChar: numbersign
Encoding: 35 35 270
Width: 817
GlyphClass: 1
Flags: W
LayerCount: 2
Fore
SplineSet
125 119 m 1,0,-1
 -1 119 l 1,1,-1
 52 270 l 1,2,-1
 179 270 l 1,3,-1
 226 398 l 1,4,-1
 100 398 l 1,5,-1
 153 549 l 1,6,-1
 280 549 l 1,7,-1
 323 668 l 1,8,-1
 478 668 l 1,9,-1
 435 549 l 1,10,-1
 571 549 l 1,11,-1
 614 668 l 1,12,-1
 770 668 l 1,13,-1
 727 549 l 1,14,-1
 855 549 l 1,15,-1
 802 398 l 1,16,-1
 673 398 l 1,17,-1
 627 270 l 1,18,-1
 754 270 l 1,19,-1
 701 119 l 1,20,-1
 572 119 l 1,21,-1
 530 0 l 1,22,-1
 374 0 l 1,23,-1
 416 119 l 1,24,-1
 282 119 l 1,25,-1
 240 0 l 1,26,-1
 84 0 l 1,27,-1
 125 119 l 1,0,-1
471 270 m 1,28,-1
 517 398 l 1,29,-1
 381 398 l 1,30,-1
 335 270 l 1,31,-1
 471 270 l 1,28,-1
EndSplineSet
EndChar
StartChar: dollar
Encoding: 36 36 313
Width: 618
GlyphClass: 1
Flags: W
LayerCount: 2
Fore
SplineSet
88 50.5 m 128,-1,1
 33 93 33 93 13 163 c 1,2,-1
 168 217 l 1,3,4
 172 185 172 185 194 163 c 128,-1,5
 216 141 216 141 249 130 c 1,6,-1
 281 281 l 1,7,-1
 248 291 l 2,8,9
 83 345 83 345 83 460 c 0,10,11
 83 528 83 528 122.5 577.5 c 128,-1,12
 162 627 162 627 226.5 652.5 c 128,-1,13
 291 678 291 678 365 680 c 1,14,-1
 382 758 l 1,15,-1
 459 758 l 1,16,-1
 441 675 l 1,17,18
 512 662 512 662 562.5 625 c 128,-1,19
 613 588 613 588 632 528 c 1,20,-1
 477 473 l 1,21,22
 463 521 463 521 412 537 c 1,23,-1
 384 404 l 1,24,-1
 399 399 l 2,25,26
 456 380 456 380 496 360.5 c 128,-1,27
 536 341 536 341 563.5 307.5 c 128,-1,28
 591 274 591 274 591 224 c 0,29,30
 591 154 591 154 551 100.5 c 128,-1,31
 511 47 511 47 443 17.5 c 128,-1,32
 375 -12 375 -12 296 -12 c 1,33,-1
 279 -90 l 1,34,-1
 202 -90 l 1,35,-1
 220 -5 l 1,36,0
 143 8 143 8 88 50.5 c 128,-1,1
393 139 m 128,-1,38
 420 157 420 157 420 194 c 0,39,40
 420 232 420 232 361 254 c 2,41,-1
 353 257 l 1,42,-1
 324 120 l 1,43,37
 366 121 366 121 393 139 c 128,-1,38
276 529.5 m 128,-1,45
 252 515 252 515 252 486 c 0,46,47
 252 468 252 468 266.5 452.5 c 128,-1,48
 281 437 281 437 309 428 c 2,49,-1
 312 427 l 1,50,-1
 337 547 l 1,51,44
 300 544 300 544 276 529.5 c 128,-1,45
EndSplineSet
EndChar
StartChar: percent
Encoding: 37 37 341
Width: 1048
GlyphClass: 1
Flags: W
LayerCount: 2
Fore
SplineSet
770 668 m 1,0,-1
 914 668 l 1,1,-1
 315 0 l 1,2,-1
 171 0 l 1,3,-1
 770 668 l 1,0,-1
179.5 305 m 128,-1,5
 134 332 134 332 107 378 c 128,-1,6
 80 424 80 424 80 479 c 256,7,8
 80 534 80 534 107 580 c 128,-1,9
 134 626 134 626 179.5 653 c 128,-1,10
 225 680 225 680 279 680 c 256,11,12
 333 680 333 680 378.5 653 c 128,-1,13
 424 626 424 626 451 580 c 128,-1,14
 478 534 478 534 478 479 c 256,15,16
 478 424 478 424 451 378 c 128,-1,17
 424 332 424 332 378.5 305 c 128,-1,18
 333 278 333 278 279 278 c 256,19,4
 225 278 225 278 179.5 305 c 128,-1,5
329.5 426.5 m 128,-1,21
 351 448 351 448 351 479 c 256,22,23
 351 510 351 510 329.5 531.5 c 128,-1,24
 308 553 308 553 279 553 c 256,25,26
 250 553 250 553 228.5 531.5 c 128,-1,27
 207 510 207 510 207 479 c 256,28,29
 207 448 207 448 228.5 426.5 c 128,-1,30
 250 405 250 405 279 405 c 256,31,20
 308 405 308 405 329.5 426.5 c 128,-1,21
706.5 15 m 128,-1,33
 661 42 661 42 634 88 c 128,-1,34
 607 134 607 134 607 189 c 256,35,36
 607 244 607 244 634 290 c 128,-1,37
 661 336 661 336 706.5 363 c 128,-1,38
 752 390 752 390 806 390 c 256,39,40
 860 390 860 390 905.5 363 c 128,-1,41
 951 336 951 336 978 290 c 128,-1,42
 1005 244 1005 244 1005 189 c 256,43,44
 1005 134 1005 134 978 88 c 128,-1,45
 951 42 951 42 905.5 15 c 128,-1,46
 860 -12 860 -12 806 -12 c 256,47,32
 752 -12 752 -12 706.5 15 c 128,-1,33
856.5 136.5 m 128,-1,49
 878 158 878 158 878 189 c 256,50,51
 878 220 878 220 856.5 241.5 c 128,-1,52
 835 263 835 263 806 263 c 256,53,54
 777 263 777 263 755.5 241.5 c 128,-1,55
 734 220 734 220 734 189 c 256,56,57
 734 158 734 158 755.5 136.5 c 128,-1,58
 777 115 777 115 806 115 c 256,59,48
 835 115 835 115 856.5 136.5 c 128,-1,49
EndSplineSet
EndChar
StartChar: ampersand
Encoding: 38 38 298
Width: 726
GlyphClass: 1
Flags: W
LayerCount: 2
Fore
SplineSet
139 7.5 m 128,-1,1
 84 29 84 29 51 70 c 128,-1,2
 18 111 18 111 18 166 c 0,3,4
 18 245 18 245 76 303.5 c 128,-1,5
 134 362 134 362 220 390 c 1,6,7
 190 454 190 454 190 514 c 0,8,9
 190 576 190 576 221 620 c 128,-1,10
 252 664 252 664 302.5 686.5 c 128,-1,11
 353 709 353 709 412 709 c 0,12,13
 464 709 464 709 507 688 c 128,-1,14
 550 667 550 667 575 630 c 128,-1,15
 600 593 600 593 600 547 c 0,16,17
 600 480 600 480 556 428 c 128,-1,18
 512 376 512 376 436 345 c 1,19,-1
 505 236 l 1,20,21
 555 295 555 295 584 371 c 1,22,-1
 727 371 l 1,23,24
 707 302 707 302 668.5 239 c 128,-1,25
 630 176 630 176 577 125 c 1,26,-1
 657 0 l 1,27,-1
 480 0 l 1,28,-1
 455 37 l 1,29,30
 359 -14 359 -14 258 -14 c 0,31,0
 194 -14 194 -14 139 7.5 c 128,-1,1
383 142 m 1,33,-1
 284 285 l 1,34,35
 244 272 244 272 218 247.5 c 128,-1,36
 192 223 192 223 192 189 c 0,37,38
 192 158 192 158 218 139.5 c 128,-1,39
 244 121 244 121 285 121 c 0,40,32
 335 121 335 121 383 142 c 1,33,-1
436 480.5 m 128,-1,42
 461 505 461 505 461 536 c 0,43,44
 461 559 461 559 445 574 c 128,-1,45
 429 589 429 589 404 589 c 0,46,47
 375 589 375 589 356 571.5 c 128,-1,48
 337 554 337 554 337 524 c 0,49,50
 337 508 337 508 345.5 489 c 128,-1,51
 354 470 354 470 374 441 c 1,52,41
 411 456 411 456 436 480.5 c 128,-1,42
EndSplineSet
EndChar
StartChar: quotesingle
Encoding: 39 39 294
Width: 234
GlyphClass: 1
Flags: W
LayerCount: 2
Fore
SplineSet
129 668 m 1,0,-1
 283 668 l 1,1,-1
 219 432 l 1,2,-1
 93 432 l 1,3,-1
 129 668 l 1,0,-1
EndSplineSet
EndChar
StartChar: parenleft
Encoding: 40 40 277
Width: 351
GlyphClass: 1
Flags: W
LayerCount: 2
Fore
SplineSet
36 135 m 0,1,2
 36 285 36 285 95.5 432.5 c 128,-1,3
 155 580 155 580 268 708 c 1,4,-1
 444 708 l 1,5,6
 322 586 322 586 255 433.5 c 128,-1,7
 188 281 188 281 188 123 c 0,8,9
 188 -26 188 -26 243 -162 c 1,10,-1
 89 -162 l 1,11,0
 36 -20 36 -20 36 135 c 0,1,2
EndSplineSet
EndChar
StartChar: parenright
Encoding: 41 41 278
Width: 351
GlyphClass: 1
Flags: W
LayerCount: 2
Fore
SplineSet
107 113.5 m 128,-1,1
 174 266 174 266 174 424 c 0,2,3
 174 573 174 573 119 709 c 1,4,-1
 273 709 l 1,5,6
 326 567 326 567 326 412 c 0,7,8
 326 262 326 262 266.5 114.5 c 128,-1,9
 207 -33 207 -33 94 -161 c 1,10,-1
 -82 -161 l 1,11,0
 40 -39 40 -39 107 113.5 c 128,-1,1
EndSplineSet
EndChar
StartChar: asterisk
Encoding: 42 42 269
Width: 487
GlyphClass: 1
Flags: W
LayerCount: 2
Fore
SplineSet
120 371 m 1,0,-1
 211 462 l 1,1,-1
 104 512 l 1,2,-1
 153 600 l 1,3,-1
 259 550 l 1,4,-1
 284 668 l 1,5,-1
 380 668 l 1,6,-1
 353 540 l 1,7,-1
 474 565 l 1,8,-1
 486 472 l 1,9,-1
 364 446 l 1,10,-1
 414 340 l 1,11,-1
 327 293 l 1,12,-1
 277 397 l 1,13,-1
 186 306 l 1,14,-1
 120 371 l 1,0,-1
EndSplineSet
EndChar
StartChar: comma
Encoding: 44 44 259
Width: 299
GlyphClass: 1
Flags: W
LayerCount: 2
Fore
SplineSet
32 32 m 128,-1,1
 13 58 13 58 13 92 c 0,2,3
 13 135 13 135 43.5 165 c 128,-1,4
 74 195 74 195 117 195 c 256,5,6
 160 195 160 195 190 166 c 128,-1,7
 220 137 220 137 220 97 c 0,8,9
 220 79 220 79 214 62 c 128,-1,10
 208 45 208 45 195 23 c 2,11,-1
 85 -148 l 1,12,-1
 -13 -148 l 1,13,-1
 78 -5 l 1,14,0
 51 6 51 6 32 32 c 128,-1,1
EndSplineSet
EndChar
StartChar: hyphen
Encoding: 45 45 273
Width: 377
GlyphClass: 1
Flags: W
LayerCount: 2
Fore
SplineSet
37 318 m 1,0,-1
 370 318 l 1,1,-1
 340 179 l 1,2,-1
 7 179 l 1,3,-1
 37 318 l 1,0,-1
EndSplineSet
EndChar
StartChar: period
Encoding: 46 46 258
Width: 301
GlyphClass: 1
Flags: W
LayerCount: 2
Fore
SplineSet
43.5 18.5 m 128,-1,1
 13 49 13 49 13 92 c 256,2,3
 13 135 13 135 43.5 165.5 c 128,-1,4
 74 196 74 196 117 196 c 0,5,6
 161 196 161 196 191 166 c 128,-1,7
 221 136 221 136 221 92 c 0,8,9
 221 49 221 49 190.5 18.5 c 128,-1,10
 160 -12 160 -12 117 -12 c 256,11,0
 74 -12 74 -12 43.5 18.5 c 128,-1,1
EndSplineSet
EndChar
StartChar: slash
Encoding: 47 47 271
Width: 464
GlyphClass: 5
Flags: W
LayerCount: 2
Fore
SplineSet
374 708 m 1,0,-1
 542 708 l 1,1,-1
 116 -90 l 1,2,-1
 -52 -90 l 1,3,-1
 374 708 l 1,0,-1
EndSplineSet
EndChar
StartChar: zero
Encoding: 48 48 229
Width: 664
GlyphClass: 1
Flags: W
LayerCount: 2
Fore
SplineSet
119.5 58.5 m 128,-1,1
 53 129 53 129 53 253 c 0,2,3
 53 349 53 349 87.5 447.5 c 128,-1,4
 122 546 122 546 197.5 613 c 128,-1,5
 273 680 273 680 389 680 c 0,6,7
 516 680 516 680 582 610 c 128,-1,8
 648 540 648 540 648 418 c 0,9,10
 648 323 648 323 613 223.5 c 128,-1,11
 578 124 578 124 502.5 56 c 128,-1,12
 427 -12 427 -12 312 -12 c 0,13,0
 186 -12 186 -12 119.5 58.5 c 128,-1,1
390 140 m 1,15,-1
 254 437 l 1,16,17
 235 391 235 391 225 339 c 128,-1,18
 215 287 215 287 215 246 c 0,19,20
 215 184 215 184 238.5 146 c 128,-1,21
 262 108 262 108 315 108 c 0,22,14
 356 108 356 108 390 140 c 1,15,-1
475 330.5 m 128,-1,24
 484 381 484 381 484 420 c 0,25,26
 484 482 484 482 461 521.5 c 128,-1,27
 438 561 438 561 387 561 c 0,28,29
 347 561 347 561 313 530 c 1,30,-1
 449 235 l 1,31,23
 466 280 466 280 475 330.5 c 128,-1,24
EndSplineSet
Substitution2: "'tnum' Tabular Numbers in Latin lookup 10 subtable" zero.tf
AlternateSubs2: "'aalt' Access All Alternates in Latin lookup 0 subtable" zero.tf
EndChar
StartChar: one
Encoding: 49 49 230
Width: 456
GlyphClass: 5
Flags: W
LayerCount: 2
Fore
SplineSet
232 437 m 1,0,-1
 85 437 l 1,1,-1
 113 571 l 1,2,3
 182 571 182 571 213.5 576.5 c 128,-1,4
 245 582 245 582 266.5 601 c 128,-1,5
 288 620 288 620 319 668 c 1,6,-1
 445 668 l 1,7,-1
 303 0 l 1,8,-1
 139 0 l 1,9,-1
 232 437 l 1,0,-1
EndSplineSet
Substitution2: "'tnum' Tabular Numbers in Latin lookup 10 subtable" one.tf
Substitution2: "'sups' Superscript in Latin lookup 6 subtable" uni00B9
AlternateSubs2: "'aalt' Access All Alternates in Latin lookup 0 subtable" uni00B9 one.tf
EndChar
StartChar: two
Encoding: 50 50 231
Width: 593
GlyphClass: 5
Flags: W
LayerCount: 2
Fore
SplineSet
321.5 336 m 128,-1,1
 429 422 429 422 429 493 c 0,2,3
 429 523 429 523 407 541 c 128,-1,4
 385 559 385 559 351 559 c 0,5,6
 281 559 281 559 244 483 c 1,7,-1
 101 541 l 1,8,9
 140 614 140 614 208 647 c 128,-1,10
 276 680 276 680 357 680 c 0,11,12
 459 680 459 680 526.5 633 c 128,-1,13
 594 586 594 586 594 501 c 0,14,15
 594 421 594 421 542.5 354.5 c 128,-1,16
 491 288 491 288 414.5 237.5 c 128,-1,17
 338 187 338 187 231 133 c 1,18,-1
 524 133 l 1,19,-1
 496 0 l 1,20,-1
 -18 0 l 1,21,-1
 10 134 l 1,22,0
 214 250 214 250 321.5 336 c 128,-1,1
EndSplineSet
Substitution2: "'tnum' Tabular Numbers in Latin lookup 10 subtable" two.tf
Substitution2: "'sups' Superscript in Latin lookup 6 subtable" uni00B2
AlternateSubs2: "'aalt' Access All Alternates in Latin lookup 0 subtable" uni00B2 two.tf
EndChar
StartChar: three
Encoding: 51 51 232
Width: 611
GlyphClass: 5
Flags: W
LayerCount: 2
Fore
SplineSet
110 26.5 m 128,-1,1
 41 65 41 65 17 142 c 1,2,-1
 168 194 l 1,3,4
 176 151 176 151 207.5 130 c 128,-1,5
 239 109 239 109 281 109 c 0,6,7
 325 109 325 109 352 135 c 128,-1,8
 379 161 379 161 379 201 c 0,9,10
 379 240 379 240 342 263.5 c 128,-1,11
 305 287 305 287 242 287 c 2,12,-1
 219 287 l 1,13,-1
 242 398 l 1,14,-1
 315 398 l 2,15,16
 368 398 368 398 401 422 c 128,-1,17
 434 446 434 446 434 488 c 0,18,19
 434 520 434 520 406.5 539.5 c 128,-1,20
 379 559 379 559 341 559 c 0,21,22
 257 559 257 559 231 484 c 1,23,-1
 88 541 l 1,24,25
 126 615 126 615 195.5 647.5 c 128,-1,26
 265 680 265 680 347 680 c 0,27,28
 412 680 412 680 470.5 661.5 c 128,-1,29
 529 643 529 643 566 604 c 128,-1,30
 603 565 603 565 603 508 c 0,31,32
 603 445 603 445 564 398.5 c 128,-1,33
 525 352 525 352 460 332 c 1,34,35
 503 312 503 312 525 277 c 128,-1,36
 547 242 547 242 547 201 c 0,37,38
 547 137 547 137 509.5 88.5 c 128,-1,39
 472 40 472 40 408.5 14 c 128,-1,40
 345 -12 345 -12 270 -12 c 0,41,0
 179 -12 179 -12 110 26.5 c 128,-1,1
EndSplineSet
Substitution2: "'tnum' Tabular Numbers in Latin lookup 10 subtable" three.tf
Substitution2: "'sups' Superscript in Latin lookup 6 subtable" uni00B3
AlternateSubs2: "'aalt' Access All Alternates in Latin lookup 0 subtable" uni00B3 three.tf
EndChar
StartChar: four
Encoding: 52 52 233
Width: 628
GlyphClass: 5
Flags: W
LayerCount: 2
Fore
SplineSet
320 136 m 1,0,-1
 -4 136 l 1,1,-1
 21 253 l 1,2,-1
 433 668 l 1,3,-1
 598 668 l 1,4,-1
 516 281 l 1,5,-1
 602 281 l 1,6,-1
 571 136 l 1,7,-1
 485 136 l 1,8,-1
 456 0 l 1,9,-1
 291 0 l 1,10,-1
 320 136 l 1,0,-1
351 281 m 1,11,-1
 385 444 l 1,12,-1
 213 281 l 1,13,-1
 351 281 l 1,11,-1
EndSplineSet
Substitution2: "'tnum' Tabular Numbers in Latin lookup 10 subtable" four.tf
AlternateSubs2: "'aalt' Access All Alternates in Latin lookup 0 subtable" four.tf
EndChar
StartChar: five
Encoding: 53 53 234
Width: 617
GlyphClass: 1
Flags: W
LayerCount: 2
Fore
SplineSet
121 28 m 128,-1,1
 54 68 54 68 28 141 c 1,2,-1
 170 190 l 1,3,4
 177 150 177 150 205.5 129.5 c 128,-1,5
 234 109 234 109 276 109 c 0,6,7
 334 109 334 109 366.5 149 c 128,-1,8
 399 189 399 189 399 243 c 0,9,10
 399 287 399 287 373 310.5 c 128,-1,11
 347 334 347 334 305 334 c 0,12,13
 241 334 241 334 191 271 c 1,14,-1
 58 326 l 1,15,-1
 172 668 l 1,16,-1
 631 668 l 1,17,-1
 603 536 l 1,18,-1
 281 536 l 1,19,-1
 243 423 l 1,20,21
 299 455 299 455 364 455 c 0,22,23
 423 455 423 455 470 430 c 128,-1,24
 517 405 517 405 543.5 359 c 128,-1,25
 570 313 570 313 570 253 c 0,26,27
 570 173 570 173 531.5 113 c 128,-1,28
 493 53 493 53 426 20.5 c 128,-1,29
 359 -12 359 -12 276 -12 c 0,30,0
 188 -12 188 -12 121 28 c 128,-1,1
EndSplineSet
Substitution2: "'tnum' Tabular Numbers in Latin lookup 10 subtable" five.tf
AlternateSubs2: "'aalt' Access All Alternates in Latin lookup 0 subtable" five.tf
EndChar
StartChar: six
Encoding: 54 54 235
Width: 638
GlyphClass: 1
Flags: W
LayerCount: 2
Fore
SplineSet
119 57 m 128,-1,1
 56 126 56 126 56 241 c 0,2,3
 56 338 56 338 93 439.5 c 128,-1,4
 130 541 130 541 209 610.5 c 128,-1,5
 288 680 288 680 405 680 c 0,6,7
 563 680 563 680 611 566 c 1,8,-1
 465 516 l 1,9,10
 457 537 457 537 437 549 c 128,-1,11
 417 561 417 561 389 561 c 0,12,13
 336 561 336 561 302.5 521.5 c 128,-1,14
 269 482 269 482 256 421 c 1,15,16
 282 436 282 436 315.5 444.5 c 128,-1,17
 349 453 349 453 381 453 c 0,18,19
 442 453 442 453 488.5 426.5 c 128,-1,20
 535 400 535 400 561 354.5 c 128,-1,21
 587 309 587 309 587 253 c 0,22,23
 587 184 587 184 551.5 123 c 128,-1,24
 516 62 516 62 450.5 25 c 128,-1,25
 385 -12 385 -12 300 -12 c 0,26,0
 182 -12 182 -12 119 57 c 128,-1,1
366.5 128.5 m 128,-1,28
 392 149 392 149 404.5 180 c 128,-1,29
 417 211 417 211 417 243 c 0,30,31
 417 282 417 282 395 307 c 128,-1,32
 373 332 373 332 328 332 c 0,33,34
 276 332 276 332 245.5 292.5 c 128,-1,35
 215 253 215 253 215 201 c 0,36,37
 215 160 215 160 238.5 134 c 128,-1,38
 262 108 262 108 304 108 c 0,39,27
 341 108 341 108 366.5 128.5 c 128,-1,28
EndSplineSet
Substitution2: "'tnum' Tabular Numbers in Latin lookup 10 subtable" six.tf
AlternateSubs2: "'aalt' Access All Alternates in Latin lookup 0 subtable" six.tf
EndChar
StartChar: eight
Encoding: 56 56 237
Width: 627
GlyphClass: 1
Flags: W
LayerCount: 2
Fore
SplineSet
163.5 10.5 m 128,-1,1
 101 33 101 33 63 78.5 c 128,-1,2
 25 124 25 124 25 189 c 0,3,4
 25 265 25 265 66.5 317.5 c 128,-1,5
 108 370 108 370 179 395 c 1,6,7
 167 425 167 425 167 461 c 0,8,9
 167 518 167 518 196 568.5 c 128,-1,10
 225 619 225 619 274.5 649.5 c 128,-1,11
 324 680 324 680 384 680 c 0,12,13
 438 680 438 680 477.5 657.5 c 128,-1,14
 517 635 517 635 538.5 596.5 c 128,-1,15
 560 558 560 558 560 510 c 0,16,17
 560 469 560 469 545.5 431 c 128,-1,18
 531 393 531 393 505 363 c 1,19,20
 585 308 585 308 585 222 c 0,21,22
 585 151 585 151 546.5 98 c 128,-1,23
 508 45 508 45 442.5 16.5 c 128,-1,24
 377 -12 377 -12 300 -12 c 0,25,0
 226 -12 226 -12 163.5 10.5 c 128,-1,1
385 146.5 m 128,-1,27
 416 169 416 169 416 208 c 0,28,29
 416 246 416 246 383.5 267.5 c 128,-1,30
 351 289 351 289 305 289 c 0,31,32
 256 289 256 289 225 266.5 c 128,-1,33
 194 244 194 244 194 205 c 0,34,35
 194 167 194 167 226.5 145.5 c 128,-1,36
 259 124 259 124 305 124 c 0,37,26
 354 124 354 124 385 146.5 c 128,-1,27
404 442 m 128,-1,39
 424 463 424 463 424 491 c 0,40,41
 424 514 424 514 409.5 530 c 128,-1,42
 395 546 395 546 372 546 c 0,43,44
 341 546 341 546 321 524.5 c 128,-1,45
 301 503 301 503 301 475 c 0,46,47
 301 452 301 452 317 436.5 c 128,-1,48
 333 421 333 421 356 421 c 0,49,38
 384 421 384 421 404 442 c 128,-1,39
EndSplineSet
Substitution2: "'tnum' Tabular Numbers in Latin lookup 10 subtable" eight.tf
AlternateSubs2: "'aalt' Access All Alternates in Latin lookup 0 subtable" eight.tf
EndChar
StartChar: nine
Encoding: 57 57 238
Width: 560
GlyphClass: 1
Flags: W
LayerCount: 2
Fore
SplineSet
158 230 m 128,-1,1
 116 260 116 260 92.5 306.5 c 128,-1,2
 69 353 69 353 69 407 c 0,3,4
 69 480 69 480 105 542.5 c 128,-1,5
 141 605 141 605 202.5 642 c 128,-1,6
 264 679 264 679 337 679 c 0,7,8
 403 679 403 679 453.5 649.5 c 128,-1,9
 504 620 504 620 532 570.5 c 128,-1,10
 560 521 560 521 560 462 c 0,11,12
 560 410 560 410 538 359.5 c 128,-1,13
 516 309 516 309 476 255 c 2,14,-1
 284 0 l 1,15,-1
 106 0 l 1,16,-1
 254 193 l 1,17,0
 200 200 200 200 158 230 c 128,-1,1
382.5 367 m 128,-1,19
 414 400 414 400 414 445 c 0,20,21
 414 483 414 483 389.5 509 c 128,-1,22
 365 535 365 535 324 535 c 0,23,24
 276 535 276 535 245 501 c 128,-1,25
 214 467 214 467 214 422 c 0,26,27
 214 383 214 383 239.5 358.5 c 128,-1,28
 265 334 265 334 306 334 c 0,29,18
 351 334 351 334 382.5 367 c 128,-1,19
EndSplineSet
Substitution2: "'tnum' Tabular Numbers in Latin lookup 10 subtable" nine.tf
AlternateSubs2: "'aalt' Access All Alternates in Latin lookup 0 subtable" nine.tf
EndChar
StartChar: less
Encoding: 60 60 327
Width: 577
GlyphClass: 1
Flags: W
LayerCount: 2
Fore
SplineSet
29 198 m 1,0,-1
 51 302 l 1,1,-1
 593 513 l 1,2,-1
 559 351 l 1,3,-1
 219 240 l 1,4,-1
 511 127 l 1,5,-1
 481 -14 l 1,6,-1
 29 198 l 1,0,-1
EndSplineSet
EndChar
StartChar: equal
Encoding: 61 61 324
Width: 611
GlyphClass: 1
Flags: W
LayerCount: 2
Fore
SplineSet
83 415 m 1,0,-1
 598 415 l 1,1,-1
 569 278 l 1,2,-1
 54 278 l 1,3,-1
 83 415 l 1,0,-1
44 230 m 1,4,-1
 559 230 l 1,5,-1
 530 91 l 1,6,-1
 15 91 l 1,7,-1
 44 230 l 1,4,-1
EndSplineSet
EndChar
StartChar: greater
Encoding: 62 62 326
Width: 577
GlyphClass: 1
Flags: W
LayerCount: 2
Fore
SplineSet
18 147 m 1,0,-1
 359 260 l 1,1,-1
 66 371 l 1,2,-1
 96 513 l 1,3,-1
 548 302 l 1,4,-1
 526 198 l 1,5,-1
 -16 -14 l 1,6,-1
 18 147 l 1,0,-1
EndSplineSet
EndChar
StartChar: question
Encoding: 63 63 265
Width: 577
GlyphClass: 1
Flags: W
LayerCount: 2
Fore
SplineSet
215.5 369 m 128,-1,1
 251 413 251 413 328 431 c 0,2,3
 387 445 387 445 411 459.5 c 128,-1,4
 435 474 435 474 435 497 c 256,5,6
 435 520 435 520 406.5 535 c 128,-1,7
 378 550 378 550 338 550 c 0,8,9
 252 550 252 550 206 483 c 1,10,-1
 67 539 l 1,11,12
 93 610 93 610 170 645 c 128,-1,13
 247 680 247 680 340 680 c 0,14,15
 407 680 407 680 468.5 660 c 128,-1,16
 530 640 530 640 568.5 601 c 128,-1,17
 607 562 607 562 607 508 c 0,18,19
 607 440 607 440 566.5 399 c 128,-1,20
 526 358 526 358 443 331 c 0,21,22
 380 311 380 311 357.5 294 c 128,-1,23
 335 277 335 277 329 253 c 2,24,-1
 326 241 l 1,25,-1
 160 241 l 1,26,-1
 164 258 l 2,27,0
 180 325 180 325 215.5 369 c 128,-1,1
140.5 18.5 m 128,-1,29
 110 49 110 49 110 92 c 256,30,31
 110 135 110 135 140.5 165 c 128,-1,32
 171 195 171 195 214 195 c 0,33,34
 256 195 256 195 286.5 165 c 128,-1,35
 317 135 317 135 317 92 c 256,36,37
 317 49 317 49 286.5 18.5 c 128,-1,38
 256 -12 256 -12 214 -12 c 0,39,28
 171 -12 171 -12 140.5 18.5 c 128,-1,29
EndSplineSet
EndChar
StartChar: at
Encoding: 64 64 297
Width: 785
GlyphClass: 1
Flags: W
LayerCount: 2
Fore
SplineSet
190.5 -62 m 128,-1,1
 114 -21 114 -21 70.5 51 c 128,-1,2
 27 123 27 123 27 213 c 0,3,4
 27 319 27 319 82 410.5 c 128,-1,5
 137 502 137 502 231 556.5 c 128,-1,6
 325 611 325 611 438 611 c 0,7,8
 531 611 531 611 606.5 572.5 c 128,-1,9
 682 534 682 534 725 467 c 128,-1,10
 768 400 768 400 768 319 c 0,11,12
 768 266 768 266 745 208.5 c 128,-1,13
 722 151 722 151 676 111.5 c 128,-1,14
 630 72 630 72 566 72 c 0,15,16
 527 72 527 72 497.5 90 c 128,-1,17
 468 108 468 108 457 137 c 1,18,19
 430 103 430 103 400 89 c 128,-1,20
 370 75 370 75 335 75 c 0,21,22
 276 75 276 75 239 116.5 c 128,-1,23
 202 158 202 158 202 220 c 0,24,25
 202 276 202 276 228.5 326 c 128,-1,26
 255 376 255 376 305 407 c 128,-1,27
 355 438 355 438 423 438 c 0,28,29
 494 438 494 438 567 404 c 1,30,-1
 531 236 l 2,31,32
 528 223 528 223 528 210 c 0,33,34
 528 185 528 185 540.5 170 c 128,-1,35
 553 155 553 155 581 155 c 0,36,37
 614 155 614 155 637.5 181.5 c 128,-1,38
 661 208 661 208 672.5 246 c 128,-1,39
 684 284 684 284 684 315 c 0,40,41
 684 376 684 376 650 426.5 c 128,-1,42
 616 477 616 477 558 506.5 c 128,-1,43
 500 536 500 536 431 536 c 0,44,45
 343 536 343 536 270.5 491.5 c 128,-1,46
 198 447 198 447 156.5 374.5 c 128,-1,47
 115 302 115 302 115 221 c 0,48,49
 115 150 115 150 149.5 93 c 128,-1,50
 184 36 184 36 242.5 4 c 128,-1,51
 301 -28 301 -28 371 -28 c 0,52,53
 427 -28 427 -28 482 -5 c 1,54,-1
 465 -88 l 1,55,56
 418 -103 418 -103 360 -103 c 0,57,0
 267 -103 267 -103 190.5 -62 c 128,-1,1
409 193 m 128,-1,59
 430 216 430 216 437 248 c 2,60,-1
 456 341 l 1,61,62
 428 348 428 348 409 348 c 0,63,64
 364 348 364 348 339.5 314 c 128,-1,65
 315 280 315 280 315 235 c 0,66,67
 315 208 315 208 327.5 189 c 128,-1,68
 340 170 340 170 362 170 c 0,69,58
 388 170 388 170 409 193 c 128,-1,59
EndSplineSet
EndChar
StartChar: A
Encoding: 65 65 2
Width: 702
GlyphClass: 2
Flags: W
AnchorPoint: "Anchor-2" 648 10 basechar 0
AnchorPoint: "Anchor-1" 440 668 basechar 0
AnchorPoint: "Anchor-0" 298 0 basechar 0
LayerCount: 2
Fore
SplineSet
346 668 m 1,0,-1
 533 668 l 1,1,-1
 645 0 l 1,2,-1
 463 0 l 1,3,-1
 449 114 l 1,4,-1
 203 114 l 1,5,-1
 141 0 l 1,6,-1
 -49 0 l 1,7,-1
 346 668 l 1,0,-1
433 251 m 1,8,-1
 405 487 l 1,9,-1
 277 251 l 1,10,-1
 433 251 l 1,8,-1
EndSplineSet
Substitution2: "Single Substitution lookup 15 subtable" ordfeminine
AlternateSubs2: "'aalt' Access All Alternates in Latin lookup 0 subtable" ordfeminine
EndChar
StartChar: B
Encoding: 66 66 13
Width: 659
GlyphClass: 2
Flags: W
AnchorPoint: "Anchor-1" 432 668 basechar 0
AnchorPoint: "Anchor-0" 290 0 basechar 0
LayerCount: 2
Fore
SplineSet
143 668 m 1,0,-1
 412 668 l 2,1,2
 525 668 525 668 594 626 c 128,-1,3
 663 584 663 584 663 505 c 0,4,5
 663 444 663 444 629 402 c 128,-1,6
 595 360 595 360 537 340 c 1,7,8
 576 322 576 322 601.5 289 c 128,-1,9
 627 256 627 256 627 209 c 0,10,11
 627 144 627 144 596 97 c 128,-1,12
 565 50 565 50 511 25 c 128,-1,13
 457 0 457 0 388 0 c 2,14,-1
 1 0 l 1,15,-1
 143 668 l 1,0,-1
429 160.5 m 128,-1,17
 453 180 453 180 453 216 c 0,18,19
 453 245 453 245 430.5 261 c 128,-1,20
 408 277 408 277 366 277 c 2,21,-1
 230 277 l 1,22,-1
 201 141 l 1,23,-1
 360 141 l 2,24,16
 405 141 405 141 429 160.5 c 128,-1,17
461.5 426 m 128,-1,26
 484 444 484 444 484 476 c 0,27,28
 484 501 484 501 463.5 515.5 c 128,-1,29
 443 530 443 530 406 530 c 2,30,-1
 284 530 l 1,31,-1
 258 408 l 1,32,-1
 400 408 l 2,33,25
 439 408 439 408 461.5 426 c 128,-1,26
EndSplineSet
EndChar
StartChar: C
Encoding: 67 67 14
Width: 665
GlyphClass: 2
Flags: W
AnchorPoint: "Anchor-1" 445 668 basechar 0
AnchorPoint: "Anchor-0" 351 0 basechar 0
LayerCount: 2
Fore
SplineSet
187.5 23 m 128,-1,1
 118 58 118 58 80 122.5 c 128,-1,2
 42 187 42 187 42 274 c 0,3,4
 42 384 42 384 89 477 c 128,-1,5
 136 570 136 570 222 625 c 128,-1,6
 308 680 308 680 420 680 c 0,7,8
 514 680 514 680 586 639.5 c 128,-1,9
 658 599 658 599 692 519 c 1,10,-1
 541 467 l 1,11,12
 525 500 525 500 492 520 c 128,-1,13
 459 540 459 540 418 540 c 0,14,15
 355 540 355 540 311 499 c 128,-1,16
 267 458 267 458 245.5 398.5 c 128,-1,17
 224 339 224 339 224 284 c 0,18,19
 224 214 224 214 259.5 171 c 128,-1,20
 295 128 295 128 366 128 c 0,21,22
 456 128 456 128 499 196 c 1,23,-1
 648 135 l 1,24,25
 594 61 594 61 516.5 24.5 c 128,-1,26
 439 -12 439 -12 351 -12 c 0,27,0
 257 -12 257 -12 187.5 23 c 128,-1,1
EndSplineSet
EndChar
StartChar: D
Encoding: 68 68 19
Width: 699
GlyphClass: 2
Flags: W
AnchorPoint: "Anchor-1" 427 668 basechar 0
AnchorPoint: "Anchor-0" 305 0 basechar 0
LayerCount: 2
Fore
SplineSet
143 668 m 1,0,-1
 316 668 l 2,1,2
 492 668 492 668 592 598 c 128,-1,3
 692 528 692 528 692 392 c 0,4,5
 692 300 692 300 658 211 c 128,-1,6
 624 122 624 122 539.5 61 c 128,-1,7
 455 0 455 0 313 0 c 2,8,-1
 1 0 l 1,9,-1
 143 668 l 1,0,-1
432 175.5 m 128,-1,11
 475 208 475 208 496 260 c 128,-1,12
 517 312 517 312 517 372 c 0,13,14
 517 455 517 455 463.5 491 c 128,-1,15
 410 527 410 527 322 527 c 2,16,-1
 283 527 l 1,17,-1
 201 143 l 1,18,-1
 327 143 l 2,19,10
 389 143 389 143 432 175.5 c 128,-1,11
EndSplineSet
EndChar
StartChar: E
Encoding: 69 69 23
Width: 613
GlyphClass: 2
Flags: W
AnchorPoint: "Anchor-2" 528 10 basechar 0
AnchorPoint: "Anchor-1" 408 668 basechar 0
AnchorPoint: "Anchor-0" 254 0 basechar 0
LayerCount: 2
Fore
SplineSet
143 668 m 1,0,-1
 664 668 l 1,1,-1
 632 518 l 1,2,-1
 281 518 l 1,3,-1
 260 418 l 1,4,-1
 468 418 l 1,5,-1
 436 269 l 1,6,-1
 228 269 l 1,7,-1
 203 150 l 1,8,-1
 558 150 l 1,9,-1
 526 0 l 1,10,-1
 1 0 l 1,11,-1
 143 668 l 1,0,-1
EndSplineSet
EndChar
StartChar: F
Encoding: 70 70 32
Width: 574
GlyphClass: 2
Flags: W
AnchorPoint: "Anchor-1" 376 668 basechar 0
AnchorPoint: "Anchor-0" 234 0 basechar 0
LayerCount: 2
Fore
SplineSet
143 668 m 1,0,-1
 629 668 l 1,1,-1
 597 518 l 1,2,-1
 281 518 l 1,3,-1
 252 383 l 1,4,-1
 564 383 l 1,5,-1
 532 233 l 1,6,-1
 221 233 l 1,7,-1
 171 0 l 1,8,-1
 1 0 l 1,9,-1
 143 668 l 1,0,-1
EndSplineSet
EndChar
StartChar: G
Encoding: 71 71 33
Width: 731
GlyphClass: 2
Flags: W
AnchorPoint: "Anchor-1" 450 668 basechar 0
AnchorPoint: "Anchor-0" 304 0 basechar 0
LayerCount: 2
Fore
SplineSet
176 23 m 128,-1,1
 111 58 111 58 76.5 122 c 128,-1,2
 42 186 42 186 42 271 c 0,3,4
 42 382 42 382 89 475.5 c 128,-1,5
 136 569 136 569 223 624.5 c 128,-1,6
 310 680 310 680 425 680 c 0,7,8
 527 680 527 680 600.5 637.5 c 128,-1,9
 674 595 674 595 699 532 c 1,10,-1
 545 480 l 1,11,12
 534 502 534 502 502 521 c 128,-1,13
 470 540 470 540 422 540 c 0,14,15
 355 540 355 540 310.5 499 c 128,-1,16
 266 458 266 458 245 398.5 c 128,-1,17
 224 339 224 339 224 282 c 0,18,19
 224 211 224 211 261 169.5 c 128,-1,20
 298 128 298 128 369 128 c 0,21,22
 421 128 421 128 460.5 150.5 c 128,-1,23
 500 173 500 173 512 229 c 2,24,-1
 516 247 l 1,25,-1
 374 247 l 1,26,-1
 403 384 l 1,27,-1
 716 384 l 1,28,-1
 634 0 l 1,29,-1
 521 0 l 1,30,-1
 515 64 l 1,31,32
 435 -12 435 -12 329 -12 c 0,33,0
 241 -12 241 -12 176 23 c 128,-1,1
EndSplineSet
EndChar
StartChar: H
Encoding: 72 72 37
Width: 709
GlyphClass: 2
Flags: W
AnchorPoint: "Anchor-1" 444 668 basechar 0
AnchorPoint: "Anchor-0" 302 0 basechar 0
LayerCount: 2
Fore
SplineSet
143 668 m 1,0,-1
 313 668 l 1,1,-1
 260 418 l 1,2,-1
 521 418 l 1,3,-1
 574 668 l 1,4,-1
 744 668 l 1,5,-1
 602 0 l 1,6,-1
 432 0 l 1,7,-1
 489 268 l 1,8,-1
 228 268 l 1,9,-1
 171 0 l 1,10,-1
 1 0 l 1,11,-1
 143 668 l 1,0,-1
EndSplineSet
EndChar
StartChar: I
Encoding: 73 73 39
Width: 435
GlyphClass: 2
Flags: W
AnchorPoint: "Anchor-2" 344 10 basechar 0
AnchorPoint: "Anchor-1" 307 668 basechar 0
AnchorPoint: "Anchor-0" 165 0 basechar 0
LayerCount: 2
Fore
SplineSet
14 124 m 1,0,-1
 106 124 l 1,1,-1
 196 544 l 1,2,-1
 104 544 l 1,3,-1
 130 668 l 1,4,-1
 484 668 l 1,5,-1
 458 544 l 1,6,-1
 366 544 l 1,7,-1
 276 124 l 1,8,-1
 368 124 l 1,9,-1
 342 0 l 1,10,-1
 -12 0 l 1,11,-1
 14 124 l 1,0,-1
EndSplineSet
EndChar
StartChar: J
Encoding: 74 74 48
Width: 585
GlyphClass: 2
Flags: W
AnchorPoint: "Anchor-1" 535 668 basechar 0
AnchorPoint: "Anchor-0" 232 0 basechar 0
LayerCount: 2
Fore
SplineSet
75 35.5 m 128,-1,1
 9 83 9 83 -7 174 c 1,2,-1
 156 231 l 1,3,4
 162 180 162 180 183 151 c 128,-1,5
 204 122 204 122 247 122 c 0,6,7
 294 122 294 122 321.5 155.5 c 128,-1,8
 349 189 349 189 362 254 c 2,9,-1
 450 668 l 1,10,-1
 620 668 l 1,11,-1
 528 237 l 2,12,13
 502 115 502 115 427.5 51.5 c 128,-1,14
 353 -12 353 -12 239 -12 c 0,15,0
 141 -12 141 -12 75 35.5 c 128,-1,1
EndSplineSet
Substitution2: "Single Substitution lookup 14 subtable" uni004A0301
AlternateSubs2: "'aalt' Access All Alternates in Latin lookup 0 subtable" uni004A0301
EndChar
StartChar: K
Encoding: 75 75 50
Width: 681
GlyphClass: 2
Flags: W
AnchorPoint: "Anchor-1" 438 668 basechar 0
AnchorPoint: "Anchor-0" 296 0 basechar 0
LayerCount: 2
Fore
SplineSet
143 668 m 1,0,-1
 313 668 l 1,1,-1
 259 416 l 1,2,-1
 533 668 l 1,3,-1
 750 668 l 1,4,-1
 416 369 l 1,5,-1
 618 0 l 1,6,-1
 431 0 l 1,7,-1
 293 259 l 1,8,-1
 210 185 l 1,9,-1
 171 0 l 1,10,-1
 1 0 l 1,11,-1
 143 668 l 1,0,-1
EndSplineSet
EndChar
StartChar: M
Encoding: 77 77 56
Width: 878
GlyphClass: 2
Flags: W
AnchorPoint: "Anchor-1" 528 668 basechar 0
AnchorPoint: "Anchor-0" 386 0 basechar 0
LayerCount: 2
Fore
SplineSet
143 668 m 1,0,-1
 390 668 l 1,1,-1
 423 202 l 1,2,-1
 656 668 l 1,3,-1
 913 668 l 1,4,-1
 771 0 l 1,5,-1
 606 0 l 1,6,-1
 716 517 l 1,7,-1
 453 0 l 1,8,-1
 316 0 l 1,9,-1
 275 517 l 1,10,-1
 165 0 l 1,11,-1
 1 0 l 1,12,-1
 143 668 l 1,0,-1
EndSplineSet
EndChar
StartChar: N
Encoding: 78 78 57
Width: 733
GlyphClass: 2
Flags: W
AnchorPoint: "Anchor-1" 456 668 basechar 0
AnchorPoint: "Anchor-0" 314 0 basechar 0
LayerCount: 2
Fore
SplineSet
143 668 m 1,0,-1
 344 668 l 1,1,-1
 506 205 l 1,2,-1
 605 668 l 1,3,-1
 768 668 l 1,4,-1
 626 0 l 1,5,-1
 424 0 l 1,6,-1
 262 462 l 1,7,-1
 164 0 l 1,8,-1
 1 0 l 1,9,-1
 143 668 l 1,0,-1
EndSplineSet
EndChar
StartChar: O
Encoding: 79 79 62
Width: 756
GlyphClass: 2
Flags: W
AnchorPoint: "Anchor-3" 829 668 basechar 0
AnchorPoint: "Anchor-2" 632 10 basechar 0
AnchorPoint: "Anchor-1" 455 668 basechar 0
AnchorPoint: "Anchor-0" 325 0 basechar 0
LayerCount: 2
Fore
SplineSet
197 25 m 128,-1,1
 124 62 124 62 83.5 129 c 128,-1,2
 43 196 43 196 43 285 c 0,3,4
 43 390 43 390 91 480.5 c 128,-1,5
 139 571 139 571 227.5 625.5 c 128,-1,6
 316 680 316 680 430 680 c 0,7,8
 525 680 525 680 597 643 c 128,-1,9
 669 606 669 606 709 539 c 128,-1,10
 749 472 749 472 749 384 c 0,11,12
 749 277 749 277 700.5 186.5 c 128,-1,13
 652 96 652 96 564 42 c 128,-1,14
 476 -12 476 -12 364 -12 c 0,15,0
 270 -12 270 -12 197 25 c 128,-1,1
480.5 168.5 m 128,-1,17
 525 209 525 209 546 268 c 128,-1,18
 567 327 567 327 567 380 c 0,19,20
 567 453 567 453 528.5 496.5 c 128,-1,21
 490 540 490 540 423 540 c 0,22,23
 357 540 357 540 312.5 500 c 128,-1,24
 268 460 268 460 246.5 401.5 c 128,-1,25
 225 343 225 343 225 288 c 0,26,27
 225 215 225 215 262.5 171.5 c 128,-1,28
 300 128 300 128 370 128 c 0,29,16
 436 128 436 128 480.5 168.5 c 128,-1,17
EndSplineSet
Substitution2: "Single Substitution lookup 15 subtable" ordmasculine
AlternateSubs2: "'aalt' Access All Alternates in Latin lookup 0 subtable" ordmasculine
EndChar
StartChar: P
Encoding: 80 80 71
Width: 647
GlyphClass: 2
Flags: W
AnchorPoint: "Anchor-1" 425 668 basechar 0
AnchorPoint: "Anchor-0" 283 0 basechar 0
LayerCount: 2
Fore
SplineSet
143 668 m 1,0,-1
 421 668 l 2,1,2
 494 668 494 668 550.5 644.5 c 128,-1,3
 607 621 607 621 639 576.5 c 128,-1,4
 671 532 671 532 671 472 c 0,5,6
 671 397 671 397 636 340.5 c 128,-1,7
 601 284 601 284 538.5 253.5 c 128,-1,8
 476 223 476 223 395 223 c 2,9,-1
 218 223 l 1,10,-1
 171 0 l 1,11,-1
 1 0 l 1,12,-1
 143 668 l 1,0,-1
463.5 390 m 128,-1,14
 491 413 491 413 491 457 c 0,15,16
 491 488 491 488 469 506 c 128,-1,17
 447 524 447 524 411 524 c 2,18,-1
 282 524 l 1,19,-1
 249 367 l 1,20,-1
 382 367 l 2,21,13
 436 367 436 367 463.5 390 c 128,-1,14
EndSplineSet
EndChar
StartChar: Q
Encoding: 81 81 73
Width: 766
GlyphClass: 1
Flags: W
LayerCount: 2
Fore
SplineSet
197 25 m 128,-1,1
 124 62 124 62 83.5 129 c 128,-1,2
 43 196 43 196 43 285 c 0,3,4
 43 390 43 390 91 480.5 c 128,-1,5
 139 571 139 571 227.5 625.5 c 128,-1,6
 316 680 316 680 430 680 c 0,7,8
 525 680 525 680 597 643 c 128,-1,9
 669 606 669 606 709 539 c 128,-1,10
 749 472 749 472 749 384 c 0,11,12
 749 309 749 309 724 240.5 c 128,-1,13
 699 172 699 172 653 118 c 1,14,-1
 728 31 l 1,15,-1
 632 -52 l 1,16,-1
 556 37 l 1,17,18
 469 -12 469 -12 364 -12 c 0,19,0
 270 -12 270 -12 197 25 c 128,-1,1
458 152 m 1,21,-1
 343 287 l 1,22,-1
 438 368 l 1,23,-1
 539 251 l 1,24,25
 553 282 553 282 560 316 c 128,-1,26
 567 350 567 350 567 380 c 0,27,28
 567 453 567 453 528.5 496.5 c 128,-1,29
 490 540 490 540 423 540 c 0,30,31
 357 540 357 540 312.5 500 c 128,-1,32
 268 460 268 460 246.5 401.5 c 128,-1,33
 225 343 225 343 225 288 c 0,34,35
 225 215 225 215 262.5 171.5 c 128,-1,36
 300 128 300 128 370 128 c 0,37,20
 418 128 418 128 458 152 c 1,21,-1
EndSplineSet
EndChar
StartChar: R
Encoding: 82 82 74
Width: 668
GlyphClass: 2
Flags: W
AnchorPoint: "Anchor-1" 412 668 basechar 0
AnchorPoint: "Anchor-0" 294 0 basechar 0
LayerCount: 2
Fore
SplineSet
143 668 m 1,0,-1
 436 668 l 2,1,2
 541 668 541 668 606 619 c 128,-1,3
 671 570 671 570 671 485 c 0,4,5
 671 390 671 390 616.5 328.5 c 128,-1,6
 562 267 562 267 469 252 c 1,7,-1
 608 0 l 1,8,-1
 424 0 l 1,9,-1
 296 245 l 1,10,-1
 223 245 l 1,11,-1
 171 0 l 1,12,-1
 1 0 l 1,13,-1
 143 668 l 1,0,-1
467.5 408 m 128,-1,15
 492 427 492 427 492 465 c 0,16,17
 492 493 492 493 472.5 508.5 c 128,-1,18
 453 524 453 524 423 524 c 2,19,-1
 282 524 l 1,20,-1
 254 389 l 1,21,-1
 400 389 l 2,22,14
 443 389 443 389 467.5 408 c 128,-1,15
EndSplineSet
EndChar
StartChar: S
Encoding: 83 83 77
Width: 618
GlyphClass: 2
Flags: W
AnchorPoint: "Anchor-1" 399 668 basechar 0
AnchorPoint: "Anchor-0" 295 0 basechar 0
LayerCount: 2
Fore
SplineSet
114 32.5 m 128,-1,1
 37 77 37 77 13 164 c 1,2,-1
 169 215 l 1,3,4
 178 171 178 171 219.5 147.5 c 128,-1,5
 261 124 261 124 316 124 c 0,6,7
 359 124 359 124 387 140.5 c 128,-1,8
 415 157 415 157 415 192 c 0,9,10
 415 216 415 216 392.5 231.5 c 128,-1,11
 370 247 370 247 321 263 c 2,12,-1
 247 287 l 2,13,14
 172 311 172 311 127 354.5 c 128,-1,15
 82 398 82 398 82 460 c 0,16,17
 82 529 82 529 123 578.5 c 128,-1,18
 164 628 164 628 230.5 654 c 128,-1,19
 297 680 297 680 374 680 c 0,20,21
 467 680 467 680 537 641 c 128,-1,22
 607 602 607 602 629 527 c 1,23,-1
 474 474 l 1,24,25
 463 510 463 510 428 527 c 128,-1,26
 393 544 393 544 346 544 c 0,27,28
 308 544 308 544 281.5 529.5 c 128,-1,29
 255 515 255 515 255 485 c 0,30,31
 255 447 255 447 315 428 c 2,32,-1
 398 401 l 2,33,34
 485 373 485 373 537.5 332.5 c 128,-1,35
 590 292 590 292 590 221 c 0,36,37
 590 151 590 151 550 98 c 128,-1,38
 510 45 510 45 442.5 16.5 c 128,-1,39
 375 -12 375 -12 295 -12 c 0,40,0
 191 -12 191 -12 114 32.5 c 128,-1,1
EndSplineSet
EndChar
StartChar: T
Encoding: 84 84 83
Width: 628
GlyphClass: 2
Flags: W
AnchorPoint: "Anchor-1" 403 668 basechar 0
AnchorPoint: "Anchor-0" 262 0 basechar 0
LayerCount: 2
Fore
SplineSet
286 518 m 1,0,-1
 73 518 l 1,1,-1
 105 668 l 1,2,-1
 701 668 l 1,3,-1
 669 518 l 1,4,-1
 456 518 l 1,5,-1
 346 0 l 1,6,-1
 176 0 l 1,7,-1
 286 518 l 1,0,-1
EndSplineSet
EndChar
StartChar: U
Encoding: 85 85 87
Width: 690
GlyphClass: 2
Flags: W
AnchorPoint: "Anchor-3" 743 668 basechar 0
AnchorPoint: "Anchor-2" 531 10 basechar 0
AnchorPoint: "Anchor-1" 434 668 basechar 0
AnchorPoint: "Anchor-0" 293 0 basechar 0
LayerCount: 2
Fore
SplineSet
133 35 m 128,-1,1
 55 82 55 82 55 208 c 0,2,3
 55 255 55 255 67 313 c 2,4,-1
 143 668 l 1,5,-1
 313 668 l 1,6,-1
 231 277 l 2,7,8
 225 246 225 246 225 222 c 0,9,10
 225 172 225 172 253.5 149 c 128,-1,11
 282 126 282 126 343 126 c 0,12,13
 400 126 400 126 427.5 160.5 c 128,-1,14
 455 195 455 195 471 268 c 2,15,-1
 555 668 l 1,16,-1
 725 668 l 1,17,-1
 640 264 l 2,18,19
 610 122 610 122 539 55 c 128,-1,20
 468 -12 468 -12 335 -12 c 0,21,0
 211 -12 211 -12 133 35 c 128,-1,1
EndSplineSet
EndChar
StartChar: W
Encoding: 87 87 97
Width: 901
GlyphClass: 2
Flags: W
AnchorPoint: "Anchor-1" 540 668 basechar 0
AnchorPoint: "Anchor-0" 398 0 basechar 0
LayerCount: 2
Fore
SplineSet
104 668 m 1,0,-1
 268 668 l 1,1,-1
 259 222 l 1,2,-1
 448 668 l 1,3,-1
 622 668 l 1,4,-1
 622 222 l 1,5,-1
 803 668 l 1,6,-1
 975 668 l 1,7,-1
 673 0 l 1,8,-1
 494 0 l 1,9,-1
 494 455 l 1,10,-1
 301 0 l 1,11,-1
 122 0 l 1,12,-1
 104 668 l 1,0,-1
EndSplineSet
EndChar
StartChar: X
Encoding: 88 88 102
Width: 713
GlyphClass: 2
Flags: W
AnchorPoint: "Anchor-1" 446 668 basechar 0
AnchorPoint: "Anchor-0" 304 0 basechar 0
LayerCount: 2
Fore
SplineSet
274 344 m 1,0,-1
 113 668 l 1,1,-1
 311 668 l 1,2,-1
 401 485 l 1,3,-1
 570 668 l 1,4,-1
 778 668 l 1,5,-1
 479 341 l 1,6,-1
 650 0 l 1,7,-1
 451 0 l 1,8,-1
 350 202 l 1,9,-1
 166 0 l 1,10,-1
 -43 0 l 1,11,-1
 274 344 l 1,0,-1
EndSplineSet
EndChar
StartChar: bracketleft
Encoding: 91 91 281
Width: 352
GlyphClass: 1
Flags: W
LayerCount: 2
Fore
SplineSet
152 708 m 1,0,-1
 417 708 l 1,1,-1
 391 584 l 1,2,-1
 263 584 l 1,3,-1
 132 -38 l 1,4,-1
 259 -38 l 1,5,-1
 233 -162 l 1,6,-1
 -32 -162 l 1,7,-1
 152 708 l 1,0,-1
EndSplineSet
EndChar
StartChar: bracketright
Encoding: 93 93 282
Width: 352
GlyphClass: 1
Flags: W
LayerCount: 2
Fore
SplineSet
-28 -38 m 1,0,-1
 100 -38 l 1,1,-1
 231 584 l 1,2,-1
 104 584 l 1,3,-1
 130 708 l 1,4,-1
 395 708 l 1,5,-1
 211 -162 l 1,6,-1
 -54 -162 l 1,7,-1
 -28 -38 l 1,0,-1
EndSplineSet
EndChar
StartChar: underscore
Encoding: 95 95 276
Width: 413
GlyphClass: 1
Flags: W
LayerCount: 2
Fore
SplineSet
-54 0 m 1,0,-1
 362 0 l 1,1,-1
 332 -137 l 1,2,-1
 -84 -137 l 1,3,-1
 -54 0 l 1,0,-1
EndSplineSet
EndChar
StartChar: a
Encoding: 97 97 112
Width: 561
GlyphClass: 2
Flags: W
AnchorPoint: "Anchor-2" 477 10 basechar 0
AnchorPoint: "Anchor-1" 319 496 basechar 0
AnchorPoint: "Anchor-0" 227 0 basechar 0
LayerCount: 2
Fore
SplineSet
40 24 m 128,-1,1
 -5 60 -5 60 -5 121 c 0,2,3
 -5 215 -5 215 82.5 263 c 128,-1,4
 170 311 170 311 364 308 c 1,5,-1
 367 320 l 2,6,7
 370 332 370 332 370 342 c 0,8,9
 370 371 370 371 348.5 385.5 c 128,-1,10
 327 400 327 400 293 400 c 0,11,12
 262 400 262 400 238.5 387 c 128,-1,13
 215 374 215 374 205 348 c 1,14,-1
 66 398 l 1,15,16
 100 457 100 457 163.5 484 c 128,-1,17
 227 511 227 511 299 511 c 0,18,19
 404 511 404 511 464.5 467.5 c 128,-1,20
 525 424 525 424 525 341 c 0,21,22
 525 316 525 316 519 287 c 2,23,-1
 497 185 l 2,24,25
 486 132 486 132 479.5 80.5 c 128,-1,26
 473 29 473 29 475 0 c 1,27,-1
 320 0 l 1,28,-1
 316 54 l 1,29,30
 281 18 281 18 240 3 c 128,-1,31
 199 -12 199 -12 151 -12 c 0,32,0
 85 -12 85 -12 40 24 c 128,-1,1
343 210 m 1,34,-1
 343 212 l 1,35,36
 171 213 171 213 171 146 c 0,37,38
 171 124 171 124 187.5 111.5 c 128,-1,39
 204 99 204 99 228 99 c 0,40,33
 319 99 319 99 343 210 c 1,34,-1
EndSplineSet
Substitution2: "Single Substitution lookup 15 subtable" ordfeminine
AlternateSubs2: "'aalt' Access All Alternates in Latin lookup 0 subtable" ordfeminine
EndChar
StartChar: b
Encoding: 98 98 123
Width: 610
GlyphClass: 2
Flags: W
AnchorPoint: "Anchor-1" 356 496 basechar 0
AnchorPoint: "Anchor-0" 251 0 basechar 0
LayerCount: 2
Fore
SplineSet
234.5 11.5 m 128,-1,1
 193 35 193 35 179 75 c 1,2,-1
 143 0 l 1,3,-1
 -4 0 l 1,4,-1
 147 708 l 1,5,-1
 312 708 l 1,6,-1
 255 442 l 1,7,8
 284 475 284 475 325.5 493 c 128,-1,9
 367 511 367 511 409 511 c 0,10,11
 493 511 493 511 541 455.5 c 128,-1,12
 589 400 589 400 589 309 c 0,13,14
 589 238 589 238 560 163.5 c 128,-1,15
 531 89 531 89 471 38.5 c 128,-1,16
 411 -12 411 -12 324 -12 c 0,17,0
 276 -12 276 -12 234.5 11.5 c 128,-1,1
358.5 142 m 128,-1,19
 388 169 388 169 402.5 207.5 c 128,-1,20
 417 246 417 246 417 281 c 0,21,22
 417 327 417 327 394.5 356 c 128,-1,23
 372 385 372 385 329 385 c 0,24,25
 287 385 287 385 258.5 356 c 128,-1,26
 230 327 230 327 216.5 286.5 c 128,-1,27
 203 246 203 246 203 210 c 0,28,29
 203 164 203 164 225 139.5 c 128,-1,30
 247 115 247 115 287 115 c 0,31,18
 329 115 329 115 358.5 142 c 128,-1,19
EndSplineSet
EndChar
StartChar: c
Encoding: 99 99 124
Width: 523
GlyphClass: 2
Flags: W
AnchorPoint: "Anchor-1" 331 496 basechar 0
AnchorPoint: "Anchor-0" 246 0 basechar 0
LayerCount: 2
Fore
SplineSet
87.5 45 m 128,-1,1
 25 102 25 102 25 203 c 0,2,3
 25 288 25 288 60 358.5 c 128,-1,4
 95 429 95 429 160 470 c 128,-1,5
 225 511 225 511 311 511 c 0,6,7
 390 511 390 511 448 476.5 c 128,-1,8
 506 442 506 442 529 374 c 1,9,-1
 394 328 l 1,10,11
 387 356 387 356 366 370.5 c 128,-1,12
 345 385 345 385 315 385 c 0,13,14
 272 385 272 385 244 356 c 128,-1,15
 216 327 216 327 203.5 286.5 c 128,-1,16
 191 246 191 246 191 211 c 0,17,18
 191 165 191 165 213 139.5 c 128,-1,19
 235 114 235 114 278 114 c 0,20,21
 336 114 336 114 366 156 c 1,22,-1
 493 105 l 1,23,24
 412 -12 412 -12 261 -12 c 0,25,0
 150 -12 150 -12 87.5 45 c 128,-1,1
EndSplineSet
EndChar
StartChar: d
Encoding: 100 100 129
Width: 611
GlyphClass: 2
Flags: W
AnchorPoint: "Anchor-3" 634 496 basechar 0
AnchorPoint: "Anchor-1" 423 796 basechar 0
AnchorPoint: "Anchor-0" 254 0 basechar 0
LayerCount: 2
Fore
SplineSet
71.5 46 m 128,-1,1
 23 104 23 104 23 197 c 0,2,3
 23 268 23 268 51.5 340.5 c 128,-1,4
 80 413 80 413 139 462 c 128,-1,5
 198 511 198 511 283 511 c 0,6,7
 334 511 334 511 375.5 489 c 128,-1,8
 417 467 417 467 434 427 c 1,9,-1
 495 708 l 1,10,-1
 659 708 l 1,11,-1
 550 198 l 2,12,13
 526 87 526 87 525 0 c 1,14,-1
 368 0 l 1,15,-1
 362 60 l 1,16,17
 333 25 333 25 289.5 6.5 c 128,-1,18
 246 -12 246 -12 208 -12 c 0,19,0
 120 -12 120 -12 71.5 46 c 128,-1,1
354.5 144.5 m 128,-1,21
 383 174 383 174 396 214.5 c 128,-1,22
 409 255 409 255 409 289 c 0,23,24
 409 334 409 334 386 359.5 c 128,-1,25
 363 385 363 385 322 385 c 0,26,27
 280 385 280 385 251.5 358.5 c 128,-1,28
 223 332 223 332 209 293.5 c 128,-1,29
 195 255 195 255 195 221 c 0,30,31
 195 175 195 175 218 145 c 128,-1,32
 241 115 241 115 283 115 c 0,33,20
 326 115 326 115 354.5 144.5 c 128,-1,21
EndSplineSet
EndChar
StartChar: e
Encoding: 101 101 133
Width: 576
GlyphClass: 2
Flags: W
AnchorPoint: "Anchor-2" 457 10 basechar 0
AnchorPoint: "Anchor-1" 344 496 basechar 0
AnchorPoint: "Anchor-0" 239 0 basechar 0
LayerCount: 2
Fore
SplineSet
144.5 16 m 128,-1,1
 88 44 88 44 57 95.5 c 128,-1,2
 26 147 26 147 26 215 c 0,3,4
 26 298 26 298 65 365.5 c 128,-1,5
 104 433 104 433 172 472 c 128,-1,6
 240 511 240 511 324 511 c 0,7,8
 395 511 395 511 448 482 c 128,-1,9
 501 453 501 453 529.5 401 c 128,-1,10
 558 349 558 349 558 281 c 0,11,12
 558 246 558 246 549 205 c 1,13,-1
 181 205 l 1,14,15
 186 162 186 162 213.5 138 c 128,-1,16
 241 114 241 114 289 114 c 0,17,18
 354 114 354 114 381 146 c 1,19,-1
 508 95 l 1,20,21
 465 43 465 43 404 15.5 c 128,-1,22
 343 -12 343 -12 275 -12 c 0,23,0
 201 -12 201 -12 144.5 16 c 128,-1,1
389.5 367.5 m 128,-1,25
 362 390 362 390 319 390 c 0,26,27
 272 390 272 390 241.5 365 c 128,-1,28
 211 340 211 340 195 301 c 1,29,-1
 416 301 l 1,30,24
 417 345 417 345 389.5 367.5 c 128,-1,25
EndSplineSet
EndChar
StartChar: f
Encoding: 102 102 142
Width: 389
GlyphClass: 2
Flags: W
AnchorPoint: "Anchor-1" 312 796 basechar 0
AnchorPoint: "Anchor-0" 143 0 basechar 0
LayerCount: 2
Fore
SplineSet
118 371 m 1,0,-1
 36 371 l 1,1,-1
 63 496 l 1,2,-1
 144 496 l 1,3,-1
 162 581 l 2,4,5
 175 639 175 639 200 669 c 128,-1,6
 225 699 225 699 261 708.5 c 128,-1,7
 297 718 297 718 353 718 c 2,8,-1
 464 718 l 1,9,-1
 437 589 l 1,10,-1
 398 589 l 2,11,12
 357 589 357 589 341 581 c 128,-1,13
 325 573 325 573 319 547 c 2,14,-1
 308 496 l 1,15,-1
 417 496 l 1,16,-1
 390 371 l 1,17,-1
 282 371 l 1,18,-1
 203 0 l 1,19,-1
 39 0 l 1,20,-1
 118 371 l 1,0,-1
EndSplineSet
EndChar
StartChar: g
Encoding: 103 103 143
Width: 613
GlyphClass: 2
Flags: W
AnchorPoint: "Anchor-1" 360 496 basechar 0
AnchorPoint: "Anchor-0" 205 -251 basechar 0
LayerCount: 2
Fore
SplineSet
97 -170.5 m 128,-1,1
 37 -136 37 -136 20 -88 c 1,2,-1
 152 -34 l 1,3,4
 163 -55 163 -55 189 -68.5 c 128,-1,5
 215 -82 215 -82 248 -82 c 0,6,7
 332 -82 332 -82 349 1 c 2,8,-1
 367 89 l 1,9,10
 304 20 304 20 207 20 c 0,11,12
 155 20 155 20 114.5 47 c 128,-1,13
 74 74 74 74 51 120.5 c 128,-1,14
 28 167 28 167 28 225 c 0,15,16
 28 299 28 299 60.5 365 c 128,-1,17
 93 431 93 431 151.5 471.5 c 128,-1,18
 210 512 210 512 283 512 c 0,19,20
 335 512 335 512 375 489.5 c 128,-1,21
 415 467 415 467 437 424 c 1,22,-1
 474 496 l 1,23,-1
 618 496 l 1,24,-1
 516 17 l 2,25,26
 469 -205 469 -205 247 -205 c 0,27,0
 157 -205 157 -205 97 -170.5 c 128,-1,1
364 170 m 128,-1,29
 390 193 390 193 402 226 c 128,-1,30
 414 259 414 259 414 288 c 0,31,32
 414 331 414 331 389.5 358 c 128,-1,33
 365 385 365 385 321 385 c 0,34,35
 280 385 280 385 253.5 362 c 128,-1,36
 227 339 227 339 215 306 c 128,-1,37
 203 273 203 273 203 242 c 0,38,39
 203 198 203 198 228.5 172.5 c 128,-1,40
 254 147 254 147 299 147 c 0,41,28
 338 147 338 147 364 170 c 128,-1,29
EndSplineSet
EndChar
StartChar: k
Encoding: 107 107 161
Width: 587
GlyphClass: 2
Flags: W
AnchorPoint: "Anchor-1" 411 796 basechar 0
AnchorPoint: "Anchor-0" 242 0 basechar 0
LayerCount: 2
Fore
SplineSet
147 708 m 1,0,-1
 312 708 l 1,1,-1
 229 315 l 1,2,-1
 418 496 l 1,3,-1
 622 496 l 1,4,-1
 376 277 l 1,5,-1
 530 0 l 1,6,-1
 346 0 l 1,7,-1
 256 171 l 1,8,-1
 185 108 l 1,9,-1
 162 0 l 1,10,-1
 -3 0 l 1,11,-1
 147 708 l 1,0,-1
EndSplineSet
EndChar
StartChar: l
Encoding: 108 108 163
Width: 348
GlyphClass: 2
Flags: W
AnchorPoint: "Anchor-3" 286 497 basechar 0
AnchorPoint: "Anchor-1" 283 796 basechar 0
AnchorPoint: "Anchor-0" 113 0 basechar 0
LayerCount: 2
Fore
SplineSet
97 9.5 m 128,-1,1
 57 19 57 19 39 41.5 c 128,-1,2
 21 64 21 64 21 102 c 0,3,4
 21 125 21 125 29 162 c 2,5,-1
 145 708 l 1,6,-1
 311 708 l 1,7,-1
 202 197 l 2,8,9
 199 182 199 182 199 170 c 0,10,11
 199 148 199 148 214 140 c 128,-1,12
 229 132 229 132 264 132 c 2,13,-1
 301 132 l 1,14,-1
 273 0 l 1,15,-1
 206 0 l 2,16,0
 137 0 137 0 97 9.5 c 128,-1,1
EndSplineSet
EndChar
StartChar: m
Encoding: 109 109 167
Width: 901
GlyphClass: 2
Flags: W
AnchorPoint: "Anchor-1" 503 496 basechar 0
AnchorPoint: "Anchor-0" 398 0 basechar 0
LayerCount: 2
Fore
SplineSet
102 496 m 1,0,-1
 250 496 l 1,1,-1
 255 432 l 1,2,3
 278 466 278 466 319 488.5 c 128,-1,4
 360 511 360 511 411 511 c 0,5,6
 465 511 465 511 499 489 c 128,-1,7
 533 467 533 467 546 425 c 1,8,9
 584 470 584 470 629 490.5 c 128,-1,10
 674 511 674 511 730 511 c 0,11,12
 799 511 799 511 835.5 474.5 c 128,-1,13
 872 438 872 438 872 370 c 0,14,15
 872 340 872 340 864 300 c 2,16,-1
 800 0 l 1,17,-1
 634 0 l 1,18,-1
 693 276 l 2,19,20
 698 303 698 303 698 321 c 0,21,22
 698 385 698 385 642 385 c 0,23,24
 600 385 600 385 575 352.5 c 128,-1,25
 550 320 550 320 535 252 c 2,26,-1
 481 0 l 1,27,-1
 315 0 l 1,28,-1
 374 276 l 2,29,30
 379 303 379 303 379 321 c 0,31,32
 379 385 379 385 323 385 c 0,33,34
 281 385 281 385 255.5 352 c 128,-1,35
 230 319 230 319 216 252 c 2,36,-1
 163 0 l 1,37,-1
 -3 0 l 1,38,-1
 102 496 l 1,0,-1
EndSplineSet
EndChar
StartChar: o
Encoding: 111 111 173
Width: 591
GlyphClass: 2
Flags: W
AnchorPoint: "Anchor-3" 616 496 basechar 0
AnchorPoint: "Anchor-2" 476 10 basechar 0
AnchorPoint: "Anchor-1" 341 496 basechar 0
AnchorPoint: "Anchor-0" 243 0 basechar 0
LayerCount: 2
Fore
SplineSet
145.5 14.5 m 128,-1,1
 90 41 90 41 58 91.5 c 128,-1,2
 26 142 26 142 26 211 c 0,3,4
 26 293 26 293 62.5 361.5 c 128,-1,5
 99 430 99 430 166 470.5 c 128,-1,6
 233 511 233 511 321 511 c 0,7,8
 391 511 391 511 446.5 484.5 c 128,-1,9
 502 458 502 458 534 407.5 c 128,-1,10
 566 357 566 357 566 288 c 0,11,12
 566 206 566 206 529.5 137.5 c 128,-1,13
 493 69 493 69 426 28.5 c 128,-1,14
 359 -12 359 -12 271 -12 c 0,15,0
 201 -12 201 -12 145.5 14.5 c 128,-1,1
345.5 142.5 m 128,-1,17
 373 171 373 171 386 210.5 c 128,-1,18
 399 250 399 250 399 286 c 0,19,20
 399 330 399 330 379 357.5 c 128,-1,21
 359 385 359 385 317 385 c 0,22,23
 274 385 274 385 246.5 356.5 c 128,-1,24
 219 328 219 328 206 288.5 c 128,-1,25
 193 249 193 249 193 213 c 0,26,27
 193 169 193 169 213 141.5 c 128,-1,28
 233 114 233 114 275 114 c 0,29,16
 318 114 318 114 345.5 142.5 c 128,-1,17
EndSplineSet
Substitution2: "Single Substitution lookup 15 subtable" ordmasculine
AlternateSubs2: "'aalt' Access All Alternates in Latin lookup 0 subtable" ordmasculine
EndChar
StartChar: p
Encoding: 112 112 182
Width: 611
GlyphClass: 2
Flags: W
AnchorPoint: "Anchor-1" 357 496 basechar 0
AnchorPoint: "Anchor-0" 252 0 basechar 0
LayerCount: 2
Fore
SplineSet
102 496 m 1,0,-1
 248 496 l 1,1,-1
 253 437 l 1,2,3
 282 473 282 473 324.5 492 c 128,-1,4
 367 511 367 511 410 511 c 0,5,6
 494 511 494 511 542 455.5 c 128,-1,7
 590 400 590 400 590 309 c 0,8,9
 590 238 590 238 561 163.5 c 128,-1,10
 532 89 532 89 472 38.5 c 128,-1,11
 412 -12 412 -12 325 -12 c 0,12,13
 276 -12 276 -12 234.5 11.5 c 128,-1,14
 193 35 193 35 177 73 c 1,15,-1
 128 -162 l 1,16,-1
 -37 -162 l 1,17,-1
 102 496 l 1,0,-1
359.5 142 m 128,-1,19
 389 169 389 169 403.5 207.5 c 128,-1,20
 418 246 418 246 418 281 c 0,21,22
 418 327 418 327 395.5 356 c 128,-1,23
 373 385 373 385 330 385 c 0,24,25
 288 385 288 385 259.5 356 c 128,-1,26
 231 327 231 327 217.5 286.5 c 128,-1,27
 204 246 204 246 204 210 c 0,28,29
 204 164 204 164 226 139.5 c 128,-1,30
 248 115 248 115 288 115 c 0,31,18
 330 115 330 115 359.5 142 c 128,-1,19
EndSplineSet
EndChar
StartChar: q
Encoding: 113 113 184
Width: 612
GlyphClass: 2
Flags: W
AnchorPoint: "Anchor-1" 362 496 basechar 0
AnchorPoint: "Anchor-0" 256 0 basechar 0
LayerCount: 2
Fore
SplineSet
383 -139.5 m 128,-1,1
 339 -105 339 -105 339 -42 c 0,2,3
 339 -15 339 -15 346 13 c 2,4,-1
 355 51 l 1,5,6
 321 19 321 19 283 3.5 c 128,-1,7
 245 -12 245 -12 208 -12 c 0,8,9
 120 -12 120 -12 71.5 46 c 128,-1,10
 23 104 23 104 23 197 c 0,11,12
 23 268 23 268 51.5 340.5 c 128,-1,13
 80 413 80 413 139 462 c 128,-1,14
 198 511 198 511 283 511 c 0,15,16
 335 511 335 511 376 489 c 128,-1,17
 417 467 417 467 434 427 c 1,18,-1
 468 496 l 1,19,-1
 614 496 l 1,20,-1
 519 51 l 2,21,22
 514 28 514 28 514 14 c 0,23,24
 514 -9 514 -9 528 -19.5 c 128,-1,25
 542 -30 542 -30 577 -30 c 0,26,27
 593 -30 593 -30 626 -25 c 1,28,-1
 596 -167 l 1,29,30
 582 -170 582 -170 560.5 -172 c 128,-1,31
 539 -174 539 -174 519 -174 c 0,32,0
 427 -174 427 -174 383 -139.5 c 128,-1,1
354.5 144.5 m 128,-1,34
 383 174 383 174 396 214.5 c 128,-1,35
 409 255 409 255 409 288 c 0,36,37
 409 334 409 334 386 359.5 c 128,-1,38
 363 385 363 385 322 385 c 0,39,40
 280 385 280 385 251.5 358.5 c 128,-1,41
 223 332 223 332 209 293.5 c 128,-1,42
 195 255 195 255 195 221 c 0,43,44
 195 175 195 175 218 145 c 128,-1,45
 241 115 241 115 283 115 c 0,46,33
 326 115 326 115 354.5 144.5 c 128,-1,34
EndSplineSet
EndChar
StartChar: r
Encoding: 114 114 185
Width: 406
GlyphClass: 2
Flags: W
AnchorPoint: "Anchor-1" 261 496 basechar 0
AnchorPoint: "Anchor-0" 140 0 basechar 0
LayerCount: 2
Fore
SplineSet
102 496 m 1,0,-1
 233 496 l 1,1,-1
 241 405 l 1,2,3
 273 464 273 464 325.5 489.5 c 128,-1,4
 378 515 378 515 438 511 c 1,5,-1
 403 347 l 1,6,7
 383 351 383 351 358 351 c 0,8,9
 301 351 301 351 262 321.5 c 128,-1,10
 223 292 223 292 211 233 c 2,11,-1
 162 0 l 1,12,-1
 -3 0 l 1,13,-1
 102 496 l 1,0,-1
EndSplineSet
EndChar
StartChar: s
Encoding: 115 115 188
Width: 526
GlyphClass: 2
Flags: W
AnchorPoint: "Anchor-1" 309 496 basechar 0
AnchorPoint: "Anchor-0" 234 0 basechar 0
LayerCount: 2
Fore
SplineSet
96 19.5 m 128,-1,1
 24 52 24 52 -2 119 c 1,2,-1
 136 166 l 1,3,4
 144 136 144 136 178.5 120 c 128,-1,5
 213 104 213 104 254 104 c 0,6,7
 285 104 285 104 309.5 112.5 c 128,-1,8
 334 121 334 121 334 142 c 0,9,10
 334 153 334 153 320.5 163 c 128,-1,11
 307 173 307 173 273 183 c 2,12,-1
 188 208 l 2,13,14
 124 227 124 227 89.5 262.5 c 128,-1,15
 55 298 55 298 55 346 c 0,16,17
 55 426 55 426 123 468.5 c 128,-1,18
 191 511 191 511 289 511 c 0,19,20
 370 511 370 511 431.5 481 c 128,-1,21
 493 451 493 451 516 389 c 1,22,-1
 378 342 l 1,23,24
 361 395 361 395 278 395 c 0,25,26
 252 395 252 395 232.5 387 c 128,-1,27
 213 379 213 379 213 360 c 0,28,29
 213 336 213 336 261 322 c 2,30,-1
 346 297 l 2,31,32
 424 274 424 274 459 242.5 c 128,-1,33
 494 211 494 211 494 165 c 0,34,35
 494 78 494 78 425 32.5 c 128,-1,36
 356 -13 356 -13 253 -13 c 0,37,0
 168 -13 168 -13 96 19.5 c 128,-1,1
EndSplineSet
EndChar
StartChar: t
Encoding: 116 116 194
Width: 398
GlyphClass: 2
Flags: W
AnchorPoint: "Anchor-3" 345 554 basechar 0
AnchorPoint: "Anchor-1" 250 496 basechar 0
AnchorPoint: "Anchor-0" 184 0 basechar 0
LayerCount: 2
Fore
SplineSet
149.5 10 m 128,-1,1
 107 20 107 20 88 42 c 128,-1,2
 69 64 69 64 69 102 c 0,3,4
 69 129 69 129 76 160 c 2,5,-1
 121 371 l 1,6,-1
 39 371 l 1,7,-1
 66 496 l 1,8,-1
 148 496 l 1,9,-1
 174 620 l 1,10,-1
 339 620 l 1,11,-1
 313 496 l 1,12,-1
 421 496 l 1,13,-1
 394 371 l 1,14,-1
 286 371 l 1,15,-1
 248 194 l 2,16,17
 245 182 245 182 245 173 c 0,18,19
 245 151 245 151 261 142 c 128,-1,20
 277 133 277 133 314 133 c 2,21,-1
 343 133 l 1,22,-1
 315 0 l 1,23,-1
 265 0 l 2,24,0
 192 0 192 0 149.5 10 c 128,-1,1
EndSplineSet
EndChar
StartChar: u
Encoding: 117 117 198
Width: 580
GlyphClass: 2
Flags: W
AnchorPoint: "Anchor-3" 610 496 basechar 0
AnchorPoint: "Anchor-2" 480 10 basechar 0
AnchorPoint: "Anchor-1" 343 496 basechar 0
AnchorPoint: "Anchor-0" 238 0 basechar 0
LayerCount: 2
Fore
SplineSet
66.5 24.5 m 128,-1,1
 30 61 30 61 30 129 c 0,2,3
 30 159 30 159 38 199 c 2,4,-1
 101 496 l 1,5,-1
 266 496 l 1,6,-1
 208 223 l 2,7,8
 203 196 203 196 203 179 c 0,9,10
 203 114 203 114 260 114 c 0,11,12
 303 114 303 114 327.5 146.5 c 128,-1,13
 352 179 352 179 366 247 c 2,14,-1
 418 496 l 1,15,-1
 583 496 l 1,16,-1
 478 0 l 1,17,-1
 331 0 l 1,18,-1
 326 63 l 1,19,20
 302 30 302 30 262.5 9 c 128,-1,21
 223 -12 223 -12 172 -12 c 0,22,0
 103 -12 103 -12 66.5 24.5 c 128,-1,1
EndSplineSet
EndChar
StartChar: v
Encoding: 118 118 207
Width: 562
GlyphClass: 2
Flags: W
AnchorPoint: "Anchor-1" 334 496 basechar 0
AnchorPoint: "Anchor-0" 228 0 basechar 0
LayerCount: 2
Fore
SplineSet
63 496 m 1,0,-1
 228 496 l 1,1,-1
 260 167 l 1,2,-1
 432 496 l 1,3,-1
 605 496 l 1,4,-1
 321 0 l 1,5,-1
 134 0 l 1,6,-1
 63 496 l 1,0,-1
EndSplineSet
EndChar
StartChar: w
Encoding: 119 119 208
Width: 766
GlyphClass: 2
Flags: W
AnchorPoint: "Anchor-1" 435 496 basechar 0
AnchorPoint: "Anchor-0" 331 0 basechar 0
LayerCount: 2
Fore
SplineSet
68 496 m 1,0,-1
 226 496 l 1,1,-1
 227 166 l 1,2,-1
 355 496 l 1,3,-1
 510 496 l 1,4,-1
 497 166 l 1,5,-1
 638 496 l 1,6,-1
 804 496 l 1,7,-1
 577 0 l 1,8,-1
 395 0 l 1,9,-1
 403 348 l 1,10,-1
 265 0 l 1,11,-1
 82 0 l 1,12,-1
 68 496 l 1,0,-1
EndSplineSet
EndChar
StartChar: x
Encoding: 120 120 213
Width: 566
GlyphClass: 2
Flags: W
AnchorPoint: "Anchor-1" 337 496 basechar 0
AnchorPoint: "Anchor-0" 231 0 basechar 0
LayerCount: 2
Fore
SplineSet
198 260 m 1,0,-1
 79 496 l 1,1,-1
 246 496 l 1,2,-1
 304 383 l 1,3,-1
 405 496 l 1,4,-1
 593 496 l 1,5,-1
 375 260 l 1,6,-1
 503 0 l 1,7,-1
 337 0 l 1,8,-1
 269 137 l 1,9,-1
 146 0 l 1,10,-1
 -43 0 l 1,11,-1
 198 260 l 1,0,-1
EndSplineSet
EndChar
StartChar: y
Encoding: 121 121 214
Width: 555
GlyphClass: 2
Flags: W
AnchorPoint: "Anchor-1" 325 496 basechar 0
AnchorPoint: "Anchor-0" 225 0 basechar 0
LayerCount: 2
Fore
SplineSet
3 -42 m 1,0,-1
 35 -42 l 2,1,2
 85 -42 85 -42 104.5 -35.5 c 128,-1,3
 124 -29 124 -29 136 -8 c 2,4,-1
 148 13 l 1,5,-1
 63 496 l 1,6,-1
 236 496 l 1,7,-1
 265 200 l 1,8,-1
 418 496 l 1,9,-1
 598 496 l 1,10,-1
 288 -17 l 2,11,12
 253 -74 253 -74 226 -104 c 128,-1,13
 199 -134 199 -134 164.5 -148 c 128,-1,14
 130 -162 130 -162 77 -162 c 2,15,-1
 -23 -162 l 1,16,-1
 3 -42 l 1,0,-1
EndSplineSet
EndChar
StartChar: braceleft
Encoding: 123 123 279
Width: 400
GlyphClass: 1
Flags: W
LayerCount: 2
Fore
SplineSet
108 -130 m 128,-1,1
 58 -98 58 -98 58 -28 c 0,2,3
 58 -4 58 -4 64 26 c 2,4,-1
 85 124 l 2,5,6
 88 136 88 136 88 148 c 0,7,8
 88 201 88 201 13 206 c 1,9,-1
 41 343 l 1,10,11
 80 345 80 345 102 356.5 c 128,-1,12
 124 368 124 368 134 387 c 128,-1,13
 144 406 144 406 151 437 c 2,14,-1
 178 561 l 2,15,16
 192 623 192 623 220.5 655 c 128,-1,17
 249 687 249 687 286.5 697.5 c 128,-1,18
 324 708 324 708 375 708 c 2,19,-1
 464 708 l 1,20,-1
 437 579 l 1,21,-1
 405 579 l 2,22,23
 369 579 369 579 353 572.5 c 128,-1,24
 337 566 337 566 331 543 c 2,25,-1
 295 380 l 2,26,27
 282 323 282 323 251 298 c 128,-1,28
 220 273 220 273 174 265 c 1,29,-1
 173 258 l 1,30,31
 207 246 207 246 227 224 c 128,-1,32
 247 202 247 202 247 164 c 0,33,34
 247 148 247 148 242 125 c 2,35,-1
 217 14 l 2,36,37
 216 10 216 10 216 3 c 0,38,39
 216 -33 216 -33 285 -33 c 2,40,-1
 307 -33 l 1,41,-1
 280 -162 l 1,42,-1
 257 -162 l 2,43,0
 158 -162 158 -162 108 -130 c 128,-1,1
EndSplineSet
EndChar
StartChar: bar
Encoding: 124 124 305
Width: 266
GlyphClass: 1
Flags: W
LayerCount: 2
Fore
SplineSet
179 838 m 1,0,-1
 337 838 l 1,1,-1
 125 -162 l 1,2,-1
 -33 -162 l 1,3,-1
 179 838 l 1,0,-1
EndSplineSet
EndChar
StartChar: braceright
Encoding: 125 125 280
Width: 401
GlyphClass: 1
Flags: W
LayerCount: 2
Fore
SplineSet
-26 -33 m 1,0,-1
 6 -33 l 2,1,2
 42 -33 42 -33 58 -26.5 c 128,-1,3
 74 -20 74 -20 80 3 c 2,4,-1
 116 166 l 2,5,6
 129 223 129 223 160 248 c 128,-1,7
 191 273 191 273 237 281 c 1,8,-1
 238 288 l 1,9,10
 204 300 204 300 184 322 c 128,-1,11
 164 344 164 344 164 382 c 0,12,13
 164 398 164 398 169 421 c 2,14,-1
 194 532 l 2,15,16
 195 536 195 536 195 543 c 0,17,18
 195 579 195 579 126 579 c 2,19,-1
 104 579 l 1,20,-1
 131 708 l 1,21,-1
 154 708 l 2,22,23
 253 708 253 708 303 676 c 128,-1,24
 353 644 353 644 353 574 c 0,25,26
 353 550 353 550 347 520 c 2,27,-1
 326 422 l 2,28,29
 323 410 323 410 323 398 c 0,30,31
 323 345 323 345 398 340 c 1,32,-1
 370 203 l 1,33,34
 331 201 331 201 309 189.5 c 128,-1,35
 287 178 287 178 277 159 c 128,-1,36
 267 140 267 140 260 109 c 2,37,-1
 233 -15 l 2,38,39
 219 -77 219 -77 190.5 -109 c 128,-1,40
 162 -141 162 -141 124.5 -151.5 c 128,-1,41
 87 -162 87 -162 36 -162 c 2,42,-1
 -53 -162 l 1,43,-1
 -26 -33 l 1,0,-1
EndSplineSet
EndChar
StartChar: asciitilde
Encoding: 126 126 333
Width: 529
GlyphClass: 1
Flags: W
LayerCount: 2
Fore
SplineSet
85 310.5 m 128,-1,1
 122 355 122 355 184 355 c 0,2,3
 214 355 214 355 234 345.5 c 128,-1,4
 254 336 254 336 278 319 c 0,5,6
 295 306 295 306 308 300 c 128,-1,7
 321 294 321 294 336 294 c 0,8,9
 360 294 360 294 376.5 314 c 128,-1,10
 393 334 393 334 401 383 c 1,11,-1
 508 340 l 1,12,13
 485 251 485 251 448 206.5 c 128,-1,14
 411 162 411 162 349 162 c 0,15,16
 319 162 319 162 299 171.5 c 128,-1,17
 279 181 279 181 255 198 c 0,18,19
 238 211 238 211 225 217 c 128,-1,20
 212 223 212 223 197 223 c 0,21,22
 173 223 173 223 156.5 203 c 128,-1,23
 140 183 140 183 132 134 c 1,24,-1
 25 177 l 1,25,0
 48 266 48 266 85 310.5 c 128,-1,1
EndSplineSet
EndChar
StartChar: exclamdown
Encoding: 161 161 264
Width: 320
GlyphClass: 1
Flags: W
LayerCount: 2
Fore
SplineSet
20 3 m 1,0,-1
 104 246 l 1,1,-1
 216 246 l 1,2,-1
 198 3 l 1,3,-1
 161 -170 l 1,4,-1
 -17 -170 l 1,5,-1
 20 3 l 1,0,-1
120.5 333 m 128,-1,7
 90 363 90 363 90 406 c 256,8,9
 90 449 90 449 120.5 479.5 c 128,-1,10
 151 510 151 510 193 510 c 0,11,12
 236 510 236 510 266.5 479.5 c 128,-1,13
 297 449 297 449 297 406 c 256,14,15
 297 363 297 363 266.5 333 c 128,-1,16
 236 303 236 303 193 303 c 0,17,6
 151 303 151 303 120.5 333 c 128,-1,7
EndSplineSet
EndChar
StartChar: cent
Encoding: 162 162 311
Width: 524
GlyphClass: 1
Flags: W
LayerCount: 2
Fore
SplineSet
71.5 62.5 m 128,-1,1
 25 116 25 116 25 204 c 0,2,3
 25 286 25 286 59 355 c 128,-1,4
 93 424 93 424 157 466.5 c 128,-1,5
 221 509 221 509 307 510 c 1,6,-1
 323 586 l 1,7,-1
 401 586 l 1,8,-1
 383 502 l 1,9,10
 436 490 436 490 475 458.5 c 128,-1,11
 514 427 514 427 532 374 c 1,12,-1
 392 329 l 1,13,14
 383 362 383 362 356 375 c 1,15,-1
 301 115 l 1,16,17
 325 118 325 118 339 129 c 128,-1,18
 353 140 353 140 366 156 c 1,19,-1
 494 105 l 1,20,21
 457 51 457 51 399 20.5 c 128,-1,22
 341 -10 341 -10 274 -13 c 1,23,-1
 257 -90 l 1,24,-1
 179 -90 l 1,25,-1
 197 -7 l 1,26,0
 118 9 118 9 71.5 62.5 c 128,-1,1
212.5 310 m 128,-1,28
 191 259 191 259 191 209 c 0,29,30
 191 151 191 151 226 129 c 1,31,-1
 279 377 l 1,32,27
 234 361 234 361 212.5 310 c 128,-1,28
EndSplineSet
EndChar
StartChar: sterling
Encoding: 163 163 316
Width: 648
GlyphClass: 1
Flags: W
LayerCount: 2
Fore
SplineSet
146.5 185 m 128,-1,1
 187 223 187 223 187 282 c 1,2,-1
 186 291 l 1,3,-1
 68 291 l 1,4,-1
 85 369 l 1,5,-1
 169 369 l 1,6,7
 144 436 144 436 144 489 c 0,8,9
 144 552 144 552 178.5 594.5 c 128,-1,10
 213 637 213 637 271 658 c 128,-1,11
 329 679 329 679 398 679 c 0,12,13
 486 679 486 679 557 641 c 128,-1,14
 628 603 628 603 655 532 c 1,15,-1
 505 479 l 1,16,17
 498 512 498 512 469 530 c 128,-1,18
 440 548 440 548 402 548 c 0,19,20
 361 548 361 548 336.5 527.5 c 128,-1,21
 312 507 312 507 312 471 c 0,22,23
 312 452 312 452 318 430.5 c 128,-1,24
 324 409 324 409 339 369 c 1,25,-1
 488 369 l 1,26,-1
 471 291 l 1,27,-1
 357 291 l 1,28,29
 358 287 358 287 358 280 c 0,30,31
 358 197 358 197 217 120 c 1,32,33
 255 140 255 140 310 140 c 0,34,35
 338 140 338 140 386 130 c 0,36,37
 428 122 428 122 444 122 c 0,38,39
 495 122 495 122 553 154 c 1,40,-1
 573 24 l 1,41,42
 533 6 533 6 491.5 -3 c 128,-1,43
 450 -12 450 -12 399 -12 c 0,44,45
 375 -12 375 -12 352 -7 c 128,-1,46
 329 -2 329 -2 298 7 c 0,47,48
 275 13 275 13 250.5 18.5 c 128,-1,49
 226 24 226 24 205 24 c 0,50,51
 135 24 135 24 63 -12 c 1,52,-1
 29 113 l 1,53,0
 106 147 106 147 146.5 185 c 128,-1,1
EndSplineSet
EndChar
StartChar: currency
Encoding: 164 164 312
Width: 599
GlyphClass: 1
Flags: W
LayerCount: 2
Fore
SplineSet
68 129 m 1,0,-1
 135 196 l 1,1,2
 95 252 95 252 95 320 c 256,3,4
 95 388 95 388 135 444 c 1,5,-1
 68 511 l 1,6,-1
 123 566 l 1,7,-1
 190 499 l 1,8,9
 249 539 249 539 314 539 c 256,10,11
 379 539 379 539 438 499 c 1,12,-1
 505 566 l 1,13,-1
 560 511 l 1,14,-1
 493 444 l 1,15,16
 533 388 533 388 533 320 c 256,17,18
 533 252 533 252 493 196 c 1,19,-1
 560 129 l 1,20,-1
 505 74 l 1,21,-1
 438 141 l 1,22,23
 379 101 379 101 314 101 c 256,24,25
 249 101 249 101 190 141 c 1,26,-1
 123 74 l 1,27,-1
 68 129 l 1,0,-1
377.5 255.5 m 128,-1,29
 404 282 404 282 404 320 c 256,30,31
 404 358 404 358 377.5 384.5 c 128,-1,32
 351 411 351 411 314 411 c 256,33,34
 277 411 277 411 250.5 384.5 c 128,-1,35
 224 358 224 358 224 320 c 256,36,37
 224 282 224 282 250.5 255.5 c 128,-1,38
 277 229 277 229 314 229 c 256,39,28
 351 229 351 229 377.5 255.5 c 128,-1,29
EndSplineSet
EndChar
StartChar: yen
Encoding: 165 165 317
Width: 684
GlyphClass: 1
Flags: W
LayerCount: 2
Fore
SplineSet
220 73 m 1,0,-1
 96 73 l 1,1,-1
 112 151 l 1,2,-1
 237 151 l 1,3,-1
 249 210 l 1,4,-1
 125 210 l 1,5,-1
 141 288 l 1,6,-1
 248 288 l 1,7,-1
 89 668 l 1,8,-1
 282 668 l 1,9,-1
 372 423 l 1,10,-1
 567 668 l 1,11,-1
 773 668 l 1,12,-1
 452 288 l 1,13,-1
 561 288 l 1,14,-1
 545 210 l 1,15,-1
 417 210 l 1,16,-1
 405 151 l 1,17,-1
 532 151 l 1,18,-1
 516 73 l 1,19,-1
 388 73 l 1,20,-1
 373 0 l 1,21,-1
 205 0 l 1,22,-1
 220 73 l 1,0,-1
EndSplineSet
EndChar
StartChar: brokenbar
Encoding: 166 166 306
Width: 245
GlyphClass: 1
Flags: W
LayerCount: 2
Fore
SplineSet
51 233 m 1,0,-1
 188 233 l 1,1,-1
 104 -162 l 1,2,-1
 -33 -162 l 1,3,-1
 51 233 l 1,0,-1
179 838 m 1,4,-1
 316 838 l 1,5,-1
 232 443 l 1,6,-1
 95 443 l 1,7,-1
 179 838 l 1,4,-1
EndSplineSet
EndChar
StartChar: section
Encoding: 167 167 300
Width: 570
GlyphClass: 1
Flags: W
LayerCount: 2
Fore
SplineSet
95.5 -139 m 128,-1,1
 41 -105 41 -105 22 -33 c 1,2,-1
 164 16 l 1,3,4
 168 -15 168 -15 188.5 -31 c 128,-1,5
 209 -47 209 -47 240 -47 c 0,6,7
 269 -47 269 -47 286 -35.5 c 128,-1,8
 303 -24 303 -24 303 -7 c 0,9,10
 303 7 303 7 290 22 c 128,-1,11
 277 37 277 37 247 57 c 2,12,-1
 149 122 l 2,13,14
 93 158 93 158 64.5 196.5 c 128,-1,15
 36 235 36 235 36 282 c 0,16,17
 36 376 36 376 135 432 c 1,18,19
 119 464 119 464 119 496 c 0,20,21
 119 550 119 550 151 592 c 128,-1,22
 183 634 183 634 237.5 657.5 c 128,-1,23
 292 681 292 681 357 681 c 0,24,25
 438 681 438 681 492.5 647 c 128,-1,26
 547 613 547 613 566 541 c 1,27,-1
 424 492 l 1,28,29
 420 523 420 523 399.5 539 c 128,-1,30
 379 555 379 555 348 555 c 0,31,32
 320 555 320 555 302.5 543.5 c 128,-1,33
 285 532 285 532 285 515 c 0,34,35
 285 501 285 501 298 486 c 128,-1,36
 311 471 311 471 341 451 c 2,37,-1
 439 386 l 2,38,39
 495 350 495 350 523.5 311.5 c 128,-1,40
 552 273 552 273 552 226 c 0,41,42
 552 132 552 132 453 76 c 1,43,44
 469 44 469 44 469 12 c 0,45,46
 469 -42 469 -42 437 -84 c 128,-1,47
 405 -126 405 -126 350.5 -149.5 c 128,-1,48
 296 -173 296 -173 231 -173 c 0,49,0
 150 -173 150 -173 95.5 -139 c 128,-1,1
387 206 m 0,51,52
 387 221 387 221 377 232.5 c 128,-1,53
 367 244 367 244 345 259 c 2,54,-1
 222 341 l 1,55,56
 201 326 201 326 201 302 c 0,57,58
 201 287 201 287 211 275.5 c 128,-1,59
 221 264 221 264 243 249 c 2,60,-1
 366 167 l 1,61,50
 387 182 387 182 387 206 c 0,51,52
EndSplineSet
EndChar
StartChar: copyright
Encoding: 169 169 301
Width: 800
GlyphClass: 1
Flags: W
LayerCount: 2
Fore
SplineSet
244 33.5 m 128,-1,1
 164 80 164 80 117.5 160 c 128,-1,2
 71 240 71 240 71 334 c 256,3,4
 71 428 71 428 117.5 508 c 128,-1,5
 164 588 164 588 244 634.5 c 128,-1,6
 324 681 324 681 418 681 c 256,7,8
 512 681 512 681 592 634.5 c 128,-1,9
 672 588 672 588 718.5 508 c 128,-1,10
 765 428 765 428 765 334 c 256,11,12
 765 240 765 240 718.5 160 c 128,-1,13
 672 80 672 80 592 33.5 c 128,-1,14
 512 -13 512 -13 418 -13 c 256,15,0
 324 -13 324 -13 244 33.5 c 128,-1,1
283 195.5 m 128,-1,17
 234 248 234 248 234 336 c 0,18,19
 234 393 234 393 257.5 436 c 128,-1,20
 281 479 281 479 323 502.5 c 128,-1,21
 365 526 365 526 419 526 c 0,22,23
 471 526 471 526 516 503.5 c 128,-1,24
 561 481 561 481 585 430 c 1,25,-1
 488 394 l 1,26,27
 473 436 473 436 426 436 c 0,28,29
 396 436 396 436 374.5 412 c 128,-1,30
 353 388 353 388 353 336 c 0,31,32
 353 281 353 281 374.5 257 c 128,-1,33
 396 233 396 233 426 233 c 0,34,35
 470 233 470 233 489 265 c 1,36,-1
 583 230 l 1,37,38
 556 184 556 184 511.5 163.5 c 128,-1,39
 467 143 467 143 419 143 c 0,40,16
 332 143 332 143 283 195.5 c 128,-1,17
556.5 94.5 m 128,-1,42
 620 132 620 132 657 195.5 c 128,-1,43
 694 259 694 259 694 334 c 256,44,45
 694 409 694 409 657 472.5 c 128,-1,46
 620 536 620 536 556.5 573.5 c 128,-1,47
 493 611 493 611 418 611 c 256,48,49
 343 611 343 611 279.5 573.5 c 128,-1,50
 216 536 216 536 179 472.5 c 128,-1,51
 142 409 142 409 142 334 c 256,52,53
 142 259 142 259 179 195.5 c 128,-1,54
 216 132 216 132 279.5 94.5 c 128,-1,55
 343 57 343 57 418 57 c 256,56,41
 493 57 493 57 556.5 94.5 c 128,-1,42
EndSplineSet
EndChar
StartChar: ordfeminine
Encoding: 170 170 223
Width: 400
GlyphClass: 1
Flags: W
LayerCount: 2
Fore
SplineSet
133 417 m 128,-1,1
 104 440 104 440 104 476 c 256,2,3
 104 512 104 512 121.5 535 c 128,-1,4
 139 558 139 558 184 570 c 128,-1,5
 229 582 229 582 310 581 c 1,6,-1
 312 593 l 2,7,8
 312 616 312 616 277 616 c 0,9,10
 265 616 265 616 254 611.5 c 128,-1,11
 243 607 243 607 240 597 c 1,12,-1
 149 632 l 1,13,14
 182 688 182 688 277 688 c 0,15,16
 344 688 344 688 379.5 667.5 c 128,-1,17
 415 647 415 647 415 599 c 0,18,19
 415 580 415 580 411 563 c 2,20,-1
 402 522 l 2,21,22
 384 440 384 440 380 400 c 1,23,-1
 291 400 l 1,24,-1
 289 433 l 1,25,26
 261 394 261 394 203 394 c 0,27,0
 162 394 162 394 133 417 c 128,-1,1
278 476 m 128,-1,29
 292 485 292 485 296 503 c 2,30,-1
 299 518 l 1,31,32
 290 519 290 519 273 519 c 0,33,34
 215 519 215 519 215 488 c 0,35,36
 215 479 215 479 222 473 c 128,-1,37
 229 467 229 467 243 467 c 0,38,28
 264 467 264 467 278 476 c 128,-1,29
EndSplineSet
EndChar
StartChar: guillemotleft
Encoding: 171 171 289
Width: 689
GlyphClass: 1
Flags: W
LayerCount: 2
Fore
SplineSet
300 242 m 1,0,-1
 488 460 l 1,1,-1
 680 460 l 1,2,-1
 484 234 l 1,3,-1
 591 40 l 1,4,-1
 413 40 l 1,5,-1
 300 242 l 1,0,-1
53 250 m 1,6,-1
 241 460 l 1,7,-1
 433 460 l 1,8,-1
 237 242 l 1,9,-1
 344 40 l 1,10,-1
 166 40 l 1,11,-1
 53 250 l 1,6,-1
EndSplineSet
EndChar
StartChar: logicalnot
Encoding: 172 172 332
Width: 621
GlyphClass: 1
Flags: W
LayerCount: 2
Fore
SplineSet
440 291 m 1,0,-1
 62 291 l 1,1,-1
 91 427 l 1,2,-1
 606 427 l 1,3,-1
 526 50 l 1,4,-1
 389 50 l 1,5,-1
 440 291 l 1,0,-1
EndSplineSet
EndChar
StartChar: registered
Encoding: 174 174 302
Width: 800
GlyphClass: 1
Flags: W
LayerCount: 2
Fore
SplineSet
244 33.5 m 128,-1,1
 164 80 164 80 117.5 160 c 128,-1,2
 71 240 71 240 71 334 c 256,3,4
 71 428 71 428 117.5 508 c 128,-1,5
 164 588 164 588 244 634.5 c 128,-1,6
 324 681 324 681 418 681 c 256,7,8
 512 681 512 681 592 634.5 c 128,-1,9
 672 588 672 588 718.5 508 c 128,-1,10
 765 428 765 428 765 334 c 256,11,12
 765 240 765 240 718.5 160 c 128,-1,13
 672 80 672 80 592 33.5 c 128,-1,14
 512 -13 512 -13 418 -13 c 256,15,0
 324 -13 324 -13 244 33.5 c 128,-1,1
556.5 94.5 m 128,-1,17
 620 132 620 132 657 195.5 c 128,-1,18
 694 259 694 259 694 334 c 256,19,20
 694 409 694 409 657 472.5 c 128,-1,21
 620 536 620 536 556.5 573.5 c 128,-1,22
 493 611 493 611 418 611 c 256,23,24
 343 611 343 611 279.5 573.5 c 128,-1,25
 216 536 216 536 179 472.5 c 128,-1,26
 142 409 142 409 142 334 c 256,27,28
 142 259 142 259 179 195.5 c 128,-1,29
 216 132 216 132 279.5 94.5 c 128,-1,30
 343 57 343 57 418 57 c 256,31,16
 493 57 493 57 556.5 94.5 c 128,-1,17
257 529 m 1,32,-1
 415 529 l 2,33,34
 492 529 492 529 536.5 503.5 c 128,-1,35
 581 478 581 478 581 415 c 0,36,37
 581 333 581 333 494 310 c 1,38,-1
 601 162 l 1,39,-1
 489 162 l 1,40,-1
 388 300 l 1,41,-1
 358 300 l 1,42,-1
 358 162 l 1,43,-1
 257 162 l 1,44,-1
 257 529 l 1,32,-1
457.5 385.5 m 128,-1,46
 475 393 475 393 475 414 c 256,47,48
 475 435 475 435 458 442.5 c 128,-1,49
 441 450 441 450 410 450 c 2,50,-1
 358 450 l 1,51,-1
 358 378 l 1,52,-1
 409 378 l 2,53,45
 440 378 440 378 457.5 385.5 c 128,-1,46
EndSplineSet
EndChar
StartChar: degree
Encoding: 176 176 304
Width: 414
GlyphClass: 1
Flags: W
LayerCount: 2
Fore
SplineSet
179 367.5 m 128,-1,1
 141 390 141 390 118.5 428.5 c 128,-1,2
 96 467 96 467 96 513 c 0,3,4
 96 558 96 558 118.5 596.5 c 128,-1,5
 141 635 141 635 179.5 657.5 c 128,-1,6
 218 680 218 680 263 680 c 0,7,8
 309 680 309 680 347 657.5 c 128,-1,9
 385 635 385 635 407.5 596.5 c 128,-1,10
 430 558 430 558 430 513 c 0,11,12
 430 467 430 467 407.5 428.5 c 128,-1,13
 385 390 385 390 347 367.5 c 128,-1,14
 309 345 309 345 263 345 c 256,15,0
 217 345 217 345 179 367.5 c 128,-1,1
315 461.5 m 128,-1,17
 336 483 336 483 336 513 c 256,18,19
 336 543 336 543 315 564.5 c 128,-1,20
 294 586 294 586 263 586 c 0,21,22
 233 586 233 586 211.5 564.5 c 128,-1,23
 190 543 190 543 190 513 c 256,24,25
 190 483 190 483 211.5 461.5 c 128,-1,26
 233 440 233 440 263 440 c 0,27,16
 294 440 294 440 315 461.5 c 128,-1,17
EndSplineSet
EndChar
StartChar: plusminus
Encoding: 177 177 330
Width: 625
GlyphClass: 1
Flags: W
LayerCount: 2
Fore
SplineSet
252 285 m 1,0,-1
 61 285 l 1,1,-1
 85 399 l 1,2,-1
 276 399 l 1,3,-1
 297 496 l 1,4,-1
 434 496 l 1,5,-1
 413 399 l 1,6,-1
 604 399 l 1,7,-1
 580 285 l 1,8,-1
 389 285 l 1,9,-1
 369 191 l 1,10,-1
 232 191 l 1,11,-1
 252 285 l 1,0,-1
30 137 m 1,12,-1
 549 137 l 1,13,-1
 519 0 l 1,14,-1
 0 0 l 1,15,-1
 30 137 l 1,12,-1
EndSplineSet
EndChar
StartChar: uni00B2
Encoding: 178 178 254
Width: 412
GlyphClass: 1
Flags: W
LayerCount: 2
Fore
SplineSet
271.5 587 m 128,-1,1
 340 637 340 637 340 674 c 0,2,3
 340 689 340 689 329.5 697 c 128,-1,4
 319 705 319 705 301 705 c 0,5,6
 282 705 282 705 267.5 694 c 128,-1,7
 253 683 253 683 246 665 c 1,8,-1
 157 704 l 1,9,10
 177 744 177 744 215 765 c 128,-1,11
 253 786 253 786 304 786 c 0,12,13
 364 786 364 786 407 761 c 128,-1,14
 450 736 450 736 450 682 c 0,15,16
 450 626 450 626 404.5 581 c 128,-1,17
 359 536 359 536 283 495 c 1,18,-1
 411 495 l 1,19,-1
 391 403 l 1,20,-1
 86 403 l 1,21,-1
 105 490 l 1,22,0
 203 537 203 537 271.5 587 c 128,-1,1
EndSplineSet
EndChar
StartChar: uni00B3
Encoding: 179 179 255
Width: 419
GlyphClass: 1
Flags: W
LayerCount: 2
Fore
SplineSet
164 418 m 128,-1,1
 124 440 124 440 109 481 c 1,2,-1
 207 514 l 1,3,4
 211 498 211 498 225 488 c 128,-1,5
 239 478 239 478 261 478 c 0,6,7
 282 478 282 478 297 488 c 128,-1,8
 312 498 312 498 312 515 c 0,9,10
 312 550 312 550 234 550 c 1,11,-1
 253 639 l 1,12,13
 260 638 260 638 274 638 c 0,14,15
 303 638 303 638 319.5 647.5 c 128,-1,16
 336 657 336 657 336 676 c 0,17,18
 336 689 336 689 324.5 697 c 128,-1,19
 313 705 313 705 296 705 c 0,20,21
 276 705 276 705 261.5 697 c 128,-1,22
 247 689 247 689 242 675 c 1,23,-1
 150 712 l 1,24,25
 191 786 191 786 297 786 c 0,26,27
 358 786 358 786 402.5 761.5 c 128,-1,28
 447 737 447 737 447 687 c 0,29,30
 447 657 447 657 427.5 628.5 c 128,-1,31
 408 600 408 600 380 591 c 1,32,33
 400 580 400 580 411.5 561.5 c 128,-1,34
 423 543 423 543 423 519 c 0,35,36
 423 461 423 461 374.5 428.5 c 128,-1,37
 326 396 326 396 259 396 c 0,38,0
 204 396 204 396 164 418 c 128,-1,1
EndSplineSet
EndChar
StartChar: paragraph
Encoding: 182 182 299
Width: 526
GlyphClass: 1
Flags: W
LayerCount: 2
Fore
SplineSet
102.5 366 m 128,-1,1
 76 410 76 410 76 461 c 0,2,3
 76 483 76 483 80 500 c 0,4,5
 91 550 91 550 122.5 588 c 128,-1,6
 154 626 154 626 197.5 647 c 128,-1,7
 241 668 241 668 285 668 c 2,8,-1
 591 668 l 1,9,-1
 577 601 l 1,10,-1
 529 601 l 1,11,-1
 367 -162 l 1,12,-1
 269 -162 l 1,13,-1
 431 601 l 1,14,-1
 340 601 l 1,15,-1
 178 -162 l 1,16,-1
 80 -162 l 1,17,-1
 178 303 l 1,18,0
 129 322 129 322 102.5 366 c 128,-1,1
EndSplineSet
EndChar
StartChar: uni00B9
Encoding: 185 185 253
Width: 298
GlyphClass: 1
Flags: W
LayerCount: 2
Fore
SplineSet
220 640 m 1,0,-1
 136 640 l 1,1,-1
 157 735 l 1,2,3
 211 734 211 734 236 743.5 c 128,-1,4
 261 753 261 753 274 779 c 1,5,-1
 358 779 l 1,6,-1
 278 403 l 1,7,-1
 170 403 l 1,8,-1
 220 640 l 1,0,-1
EndSplineSet
EndChar
StartChar: ordmasculine
Encoding: 186 186 224
Width: 414
GlyphClass: 1
Flags: W
LayerCount: 2
Fore
SplineSet
157 427.5 m 128,-1,1
 115 461 115 461 115 523 c 0,2,3
 115 566 115 566 133.5 603.5 c 128,-1,4
 152 641 152 641 189.5 664.5 c 128,-1,5
 227 688 227 688 279 688 c 0,6,7
 341 688 341 688 383 654.5 c 128,-1,8
 425 621 425 621 425 559 c 0,9,10
 425 516 425 516 406.5 478.5 c 128,-1,11
 388 441 388 441 350.5 417.5 c 128,-1,12
 313 394 313 394 261 394 c 0,13,0
 199 394 199 394 157 427.5 c 128,-1,1
302 502.5 m 128,-1,15
 317 530 317 530 317 558 c 0,16,17
 317 581 317 581 307.5 594 c 128,-1,18
 298 607 298 607 279 607 c 0,19,20
 253 607 253 607 238 579.5 c 128,-1,21
 223 552 223 552 223 524 c 0,22,23
 223 501 223 501 232.5 488 c 128,-1,24
 242 475 242 475 261 475 c 0,25,14
 287 475 287 475 302 502.5 c 128,-1,15
EndSplineSet
EndChar
StartChar: guillemotright
Encoding: 187 187 290
Width: 689
GlyphClass: 1
Flags: W
LayerCount: 2
Fore
SplineSet
452 258 m 1,0,-1
 345 460 l 1,1,-1
 523 460 l 1,2,-1
 636 250 l 1,3,-1
 448 40 l 1,4,-1
 256 40 l 1,5,-1
 452 258 l 1,0,-1
205 266 m 1,6,-1
 98 460 l 1,7,-1
 276 460 l 1,8,-1
 389 258 l 1,9,-1
 201 40 l 1,10,-1
 9 40 l 1,11,-1
 205 266 l 1,6,-1
EndSplineSet
EndChar
StartChar: onequarter
Encoding: 188 188 251
Width: 867
GlyphClass: 3
Flags: W
LayerCount: 2
Fore
SplineSet
663 668 m 1,0,-1
 805 668 l 1,1,-1
 203 0 l 1,2,-1
 61 0 l 1,3,-1
 663 668 l 1,0,-1
197 529 m 1,4,-1
 113 529 l 1,5,-1
 134 625 l 1,6,7
 186 625 186 625 211 632 c 128,-1,8
 236 639 236 639 251 668 c 1,9,-1
 334 668 l 1,10,-1
 254 293 l 1,11,-1
 147 293 l 1,12,-1
 197 529 l 1,4,-1
632 164 m 1,13,-1
 649 244 l 1,14,-1
 566 164 l 1,15,-1
 632 164 l 1,13,-1
612 72 m 1,16,-1
 432 72 l 1,17,-1
 450 154 l 1,18,-1
 677 375 l 1,19,-1
 784 375 l 1,20,-1
 739 164 l 1,21,-1
 796 164 l 1,22,-1
 776 72 l 1,23,-1
 719 72 l 1,24,-1
 704 0 l 1,25,-1
 597 0 l 1,26,-1
 612 72 l 1,16,-1
EndSplineSet
Ligature2: "'frac' Diagonal Fractions in Latin lookup 7 subtable" one slash four
EndChar
StartChar: onehalf
Encoding: 189 189 250
Width: 895
GlyphClass: 3
Flags: W
LayerCount: 2
Fore
SplineSet
663 668 m 1,0,-1
 805 668 l 1,1,-1
 203 0 l 1,2,-1
 61 0 l 1,3,-1
 663 668 l 1,0,-1
197 529 m 1,4,-1
 113 529 l 1,5,-1
 134 625 l 1,6,7
 186 625 186 625 211 632 c 128,-1,8
 236 639 236 639 250 668 c 1,9,-1
 334 668 l 1,10,-1
 254 293 l 1,11,-1
 147 293 l 1,12,-1
 197 529 l 1,4,-1
538 109 m 2,13,14
 627 158 627 158 681 195.5 c 128,-1,15
 735 233 735 233 735 268 c 0,16,17
 735 284 735 284 724.5 293 c 128,-1,18
 714 302 714 302 697 302 c 0,19,20
 659 302 659 302 640 261 c 1,21,-1
 548 299 l 1,22,23
 592 382 592 382 698 382 c 0,24,25
 759 382 759 382 802.5 356.5 c 128,-1,26
 846 331 846 331 846 279 c 0,27,28
 846 235 846 235 819.5 201.5 c 128,-1,29
 793 168 793 168 757 145 c 128,-1,30
 721 122 721 122 662 92 c 1,31,-1
 803 92 l 1,32,-1
 783 0 l 1,33,-1
 478 0 l 1,34,-1
 496 86 l 1,35,-1
 538 109 l 2,13,14
EndSplineSet
Ligature2: "'frac' Diagonal Fractions in Latin lookup 7 subtable" one slash two
EndChar
StartChar: threequarters
Encoding: 190 190 252
Width: 963
GlyphClass: 3
Flags: W
LayerCount: 2
Fore
SplineSet
759 668 m 1,0,-1
 901 668 l 1,1,-1
 299 0 l 1,2,-1
 157 0 l 1,3,-1
 759 668 l 1,0,-1
145 310.5 m 128,-1,5
 105 331 105 331 89 374 c 1,6,-1
 186 406 l 1,7,8
 191 390 191 390 206 380.5 c 128,-1,9
 221 371 221 371 240 371 c 0,10,11
 261 371 261 371 275 381.5 c 128,-1,12
 289 392 289 392 289 408 c 0,13,14
 289 444 289 444 213 443 c 1,15,-1
 232 531 l 1,16,17
 270 529 270 529 293 538 c 128,-1,18
 316 547 316 547 316 568 c 0,19,20
 316 582 316 582 304 590 c 128,-1,21
 292 598 292 598 274 598 c 256,22,23
 256 598 256 598 241 591 c 128,-1,24
 226 584 226 584 220 568 c 1,25,-1
 129 605 l 1,26,27
 150 642 150 642 187.5 660.5 c 128,-1,28
 225 679 225 679 276 679 c 0,29,30
 336 679 336 679 380.5 654.5 c 128,-1,31
 425 630 425 630 425 582 c 0,32,33
 425 552 425 552 406.5 523 c 128,-1,34
 388 494 388 494 359 484 c 1,35,36
 379 473 379 473 390 454 c 128,-1,37
 401 435 401 435 401 410 c 0,38,39
 401 354 401 354 353.5 322 c 128,-1,40
 306 290 306 290 237 290 c 0,41,4
 185 290 185 290 145 310.5 c 128,-1,5
708 72 m 1,42,-1
 528 72 l 1,43,-1
 546 154 l 1,44,-1
 773 375 l 1,45,-1
 880 375 l 1,46,-1
 835 164 l 1,47,-1
 892 164 l 1,48,-1
 872 72 l 1,49,-1
 815 72 l 1,50,-1
 800 0 l 1,51,-1
 693 0 l 1,52,-1
 708 72 l 1,42,-1
728 164 m 1,53,-1
 745 244 l 1,54,-1
 662 164 l 1,55,-1
 728 164 l 1,53,-1
EndSplineSet
Ligature2: "'frac' Diagonal Fractions in Latin lookup 7 subtable" three slash four
EndChar
StartChar: questiondown
Encoding: 191 191 266
Width: 572
GlyphClass: 1
Flags: W
LayerCount: 2
Fore
SplineSet
109.5 -162 m 128,-1,1
 48 -142 48 -142 9.5 -103 c 128,-1,2
 -29 -64 -29 -64 -29 -10 c 0,3,4
 -29 58 -29 58 11.5 99 c 128,-1,5
 52 140 52 140 135 167 c 0,6,7
 198 187 198 187 220.5 204 c 128,-1,8
 243 221 243 221 249 245 c 2,9,-1
 252 257 l 1,10,-1
 418 257 l 1,11,-1
 414 240 l 2,12,13
 398 173 398 173 362.5 129 c 128,-1,14
 327 85 327 85 250 67 c 0,15,16
 191 53 191 53 167 38.5 c 128,-1,17
 143 24 143 24 143 1 c 256,18,19
 143 -22 143 -22 171.5 -37 c 128,-1,20
 200 -52 200 -52 240 -52 c 0,21,22
 326 -52 326 -52 372 15 c 1,23,-1
 511 -41 l 1,24,25
 485 -112 485 -112 408 -147 c 128,-1,26
 331 -182 331 -182 238 -182 c 0,27,0
 171 -182 171 -182 109.5 -162 c 128,-1,1
291.5 333 m 128,-1,29
 261 363 261 363 261 406 c 256,30,31
 261 449 261 449 291.5 479.5 c 128,-1,32
 322 510 322 510 364 510 c 0,33,34
 407 510 407 510 437.5 479.5 c 128,-1,35
 468 449 468 449 468 406 c 256,36,37
 468 363 468 363 437.5 333 c 128,-1,38
 407 303 407 303 364 303 c 0,39,28
 322 303 322 303 291.5 333 c 128,-1,29
EndSplineSet
EndChar
StartChar: Aring
Encoding: 197 197 10
Width: 702
GlyphClass: 2
Flags: W
AnchorPoint: "Anchor-2" 648 10 basechar 0
AnchorPoint: "Anchor-1" 482 865 basechar 0
AnchorPoint: "Anchor-0" 298 0 basechar 0
LayerCount: 2
Fore
SplineSet
316 728 m 0,1,2
 316 766 316 766 334.5 797.5 c 128,-1,3
 353 829 353 829 384.5 847 c 128,-1,4
 416 865 416 865 453 865 c 256,5,6
 490 865 490 865 521.5 847 c 128,-1,7
 553 829 553 829 571.5 797.5 c 128,-1,8
 590 766 590 766 590 728 c 0,9,10
 590 696 590 696 577 668.5 c 128,-1,11
 564 641 564 641 541 622 c 1,12,-1
 645 0 l 1,13,-1
 463 0 l 1,14,-1
 449 114 l 1,15,-1
 203 114 l 1,16,-1
 141 0 l 1,17,-1
 -49 0 l 1,18,-1
 337 654 l 1,19,0
 316 688 316 688 316 728 c 0,1,2
433 251 m 1,20,-1
 405 487 l 1,21,-1
 277 251 l 1,22,-1
 433 251 l 1,20,-1
485.5 695.5 m 128,-1,24
 499 709 499 709 499 728 c 256,25,26
 499 747 499 747 485.5 760.5 c 128,-1,27
 472 774 472 774 453 774 c 256,28,29
 434 774 434 774 420.5 760.5 c 128,-1,30
 407 747 407 747 407 728 c 256,31,32
 407 709 407 709 420.5 695.5 c 128,-1,33
 434 682 434 682 453 682 c 256,34,23
 472 682 472 682 485.5 695.5 c 128,-1,24
EndSplineSet
EndChar
StartChar: AE
Encoding: 198 198 12
Width: 1001
GlyphClass: 2
Flags: W
AnchorPoint: "Anchor-1" 623 668 basechar 0
AnchorPoint: "Anchor-0" 481 0 basechar 0
LayerCount: 2
Fore
SplineSet
449 668 m 1,0,-1
 1056 668 l 1,1,-1
 1024 518 l 1,2,-1
 699 518 l 1,3,-1
 678 418 l 1,4,-1
 856 418 l 1,5,-1
 824 269 l 1,6,-1
 646 269 l 1,7,-1
 621 150 l 1,8,-1
 946 150 l 1,9,-1
 914 0 l 1,10,-1
 419 0 l 1,11,-1
 443 114 l 1,12,-1
 230 114 l 1,13,-1
 147 0 l 1,14,-1
 -53 0 l 1,15,-1
 449 668 l 1,0,-1
472 251 m 1,16,-1
 531 528 l 1,17,-1
 330 251 l 1,18,-1
 472 251 l 1,16,-1
EndSplineSet
EndChar
StartChar: Ccedilla
Encoding: 199 199 17
Width: 665
GlyphClass: 2
Flags: W
AnchorPoint: "Anchor-1" 445 668 basechar 0
LayerCount: 2
Fore
SplineSet
219 -168 m 1,1,-1
 245 -118 l 1,2,3
 255 -124 255 -124 275 -130 c 128,-1,4
 295 -136 295 -136 313 -136 c 0,5,6
 328 -136 328 -136 338.5 -129 c 128,-1,7
 349 -122 349 -122 349 -108 c 0,8,9
 349 -98 349 -98 341 -91.5 c 128,-1,10
 333 -85 333 -85 320 -85 c 256,11,12
 307 -85 307 -85 295 -87 c 256,13,14
 283 -89 283 -89 276.5 -84.5 c 128,-1,15
 270 -80 270 -80 270 -71 c 0,16,17
 270 -61 270 -61 277 -53 c 2,18,-1
 312 -10 l 1,19,20
 187 1 187 1 114.5 76.5 c 128,-1,21
 42 152 42 152 42 274 c 0,22,23
 42 384 42 384 89 477 c 128,-1,24
 136 570 136 570 222 625 c 128,-1,25
 308 680 308 680 420 680 c 0,26,27
 514 680 514 680 586 639.5 c 128,-1,28
 658 599 658 599 692 519 c 1,29,-1
 541 467 l 1,30,31
 525 500 525 500 492 520 c 128,-1,32
 459 540 459 540 418 540 c 0,33,34
 355 540 355 540 311 499 c 128,-1,35
 267 458 267 458 245.5 398.5 c 128,-1,36
 224 339 224 339 224 284 c 0,37,38
 224 214 224 214 259.5 171 c 128,-1,39
 295 128 295 128 366 128 c 0,40,41
 456 128 456 128 499 196 c 1,42,-1
 648 135 l 1,43,44
 597 65 597 65 524.5 28.5 c 128,-1,45
 452 -8 452 -8 370 -12 c 1,46,-1
 341 -47 l 1,47,48
 346 -46 346 -46 356 -46 c 0,49,50
 395 -46 395 -46 422 -62.5 c 128,-1,51
 449 -79 449 -79 449 -108 c 0,52,53
 449 -149 449 -149 415 -168.5 c 128,-1,54
 381 -188 381 -188 328 -188 c 0,55,0
 268 -188 268 -188 219 -168 c 1,1,-1
EndSplineSet
EndChar
StartChar: Eth
Encoding: 208 208 22
Width: 720
GlyphClass: 1
Flags: W
LayerCount: 2
Fore
SplineSet
80 274 m 1,0,-1
 14 274 l 1,1,-1
 44 413 l 1,2,-1
 110 413 l 1,3,-1
 164 668 l 1,4,-1
 337 668 l 2,5,6
 513 668 513 668 613 598 c 128,-1,7
 713 528 713 528 713 392 c 0,8,9
 713 300 713 300 679 211 c 128,-1,10
 645 122 645 122 560.5 61 c 128,-1,11
 476 0 476 0 334 0 c 2,12,-1
 22 0 l 1,13,-1
 80 274 l 1,0,-1
453 175.5 m 128,-1,15
 496 208 496 208 517 260 c 128,-1,16
 538 312 538 312 538 372 c 0,17,18
 538 455 538 455 484.5 491 c 128,-1,19
 431 527 431 527 343 527 c 2,20,-1
 304 527 l 1,21,-1
 280 413 l 1,22,-1
 407 413 l 1,23,-1
 377 274 l 1,24,-1
 250 274 l 1,25,-1
 222 143 l 1,26,-1
 348 143 l 2,27,14
 410 143 410 143 453 175.5 c 128,-1,15
EndSplineSet
EndChar
StartChar: multiply
Encoding: 215 215 322
Width: 542
GlyphClass: 1
Flags: W
LayerCount: 2
Fore
SplineSet
15 122 m 1,0,-1
 176 255 l 1,1,-1
 68 389 l 1,2,-1
 178 479 l 1,3,-1
 284 341 l 1,4,-1
 448 479 l 1,5,-1
 531 374 l 1,6,-1
 366 241 l 1,7,-1
 472 107 l 1,8,-1
 361 19 l 1,9,-1
 259 152 l 1,10,-1
 99 19 l 1,11,-1
 15 122 l 1,0,-1
EndSplineSet
EndChar
StartChar: Oslash
Encoding: 216 216 68
Width: 756
GlyphClass: 2
Flags: W
AnchorPoint: "Anchor-3" 829 668 basechar 0
AnchorPoint: "Anchor-1" 455 668 basechar 0
AnchorPoint: "Anchor-0" 325 0 basechar 0
LayerCount: 2
Fore
SplineSet
246.5 5 m 128,-1,1
 192 22 192 22 150 54 c 1,2,-1
 78 -13 l 1,3,-1
 26 42 l 1,4,-1
 97 108 l 1,5,6
 43 182 43 182 43 285 c 0,7,8
 43 390 43 390 91 480.5 c 128,-1,9
 139 571 139 571 227.5 625.5 c 128,-1,10
 316 680 316 680 430 680 c 0,11,12
 558 680 558 680 642 615 c 1,13,-1
 712 680 l 1,14,-1
 765 624 l 1,15,-1
 696 560 l 1,16,17
 749 485 749 485 749 384 c 0,18,19
 749 277 749 277 700.5 186.5 c 128,-1,20
 652 96 652 96 564 42 c 128,-1,21
 476 -12 476 -12 364 -12 c 0,22,0
 301 -12 301 -12 246.5 5 c 128,-1,1
480.5 168.5 m 128,-1,24
 525 209 525 209 546 268 c 128,-1,25
 567 327 567 327 567 380 c 0,26,27
 567 412 567 412 560 434 c 1,28,-1
 270 165 l 1,29,30
 307 128 307 128 370 128 c 0,31,23
 436 128 436 128 480.5 168.5 c 128,-1,24
231 233 m 1,33,-1
 522 503 l 1,34,35
 485 540 485 540 423 540 c 0,36,37
 357 540 357 540 312.5 500 c 128,-1,38
 268 460 268 460 246.5 401.5 c 128,-1,39
 225 343 225 343 225 288 c 0,40,32
 225 259 225 259 231 233 c 1,33,-1
EndSplineSet
EndChar
StartChar: Thorn
Encoding: 222 222 72
Width: 647
GlyphClass: 2
Flags: W
AnchorPoint: "Anchor-1" 421 668 basechar 0
AnchorPoint: "Anchor-0" 279 0 basechar 0
LayerCount: 2
Fore
SplineSet
143 668 m 1,0,-1
 313 668 l 1,1,-1
 291 564 l 1,2,-1
 399 564 l 2,3,4
 472 564 472 564 528.5 540.5 c 128,-1,5
 585 517 585 517 617 472.5 c 128,-1,6
 649 428 649 428 649 368 c 0,7,8
 649 293 649 293 614.5 236.5 c 128,-1,9
 580 180 580 180 517.5 149.5 c 128,-1,10
 455 119 455 119 373 119 c 2,11,-1
 196 119 l 1,12,-1
 171 0 l 1,13,-1
 1 0 l 1,14,-1
 143 668 l 1,0,-1
441 286 m 128,-1,16
 469 309 469 309 469 352 c 0,17,18
 469 383 469 383 446.5 401.5 c 128,-1,19
 424 420 424 420 389 420 c 2,20,-1
 260 420 l 1,21,-1
 227 263 l 1,22,-1
 361 263 l 2,23,15
 413 263 413 263 441 286 c 128,-1,16
EndSplineSet
EndChar
StartChar: germandbls
Encoding: 223 223 193
Width: 642
GlyphClass: 1
Flags: W
LayerCount: 2
Fore
SplineSet
332 122 m 256,1,2
 382 122 382 122 414 147.5 c 128,-1,3
 446 173 446 173 446 222 c 0,4,5
 446 266 446 266 409.5 294 c 128,-1,6
 373 322 373 322 312 322 c 2,7,-1
 307 322 l 1,8,-1
 335 448 l 1,9,10
 378 445 378 445 411 457.5 c 128,-1,11
 444 470 444 470 444 506 c 0,12,13
 444 532 444 532 421 545.5 c 128,-1,14
 398 559 398 559 362 559 c 0,15,16
 319 559 319 559 297 534.5 c 128,-1,17
 275 510 275 510 264 459 c 2,18,-1
 167 0 l 1,19,-1
 2 0 l 1,20,-1
 104 483 l 2,21,22
 126 590 126 590 187.5 635 c 128,-1,23
 249 680 249 680 348 680 c 0,24,25
 448 680 448 680 514.5 641 c 128,-1,26
 581 602 581 602 581 518 c 0,27,28
 581 482 581 482 562 445.5 c 128,-1,29
 543 409 543 409 514 383 c 1,30,31
 560 364 560 364 586.5 321.5 c 128,-1,32
 613 279 613 279 613 224 c 0,33,34
 613 149 613 149 578.5 96 c 128,-1,35
 544 43 544 43 484.5 16.5 c 128,-1,36
 425 -10 425 -10 352 -10 c 0,37,38
 302 -10 302 -10 251 2 c 1,39,-1
 238 144 l 1,40,0
 282 122 282 122 332 122 c 256,1,2
EndSplineSet
EndChar
StartChar: ae
Encoding: 230 230 122
Width: 878
GlyphClass: 2
Flags: W
AnchorPoint: "Anchor-1" 490 496 basechar 0
AnchorPoint: "Anchor-0" 385 0 basechar 0
LayerCount: 2
Fore
SplineSet
43 23.5 m 128,-1,1
 -5 59 -5 59 -5 121 c 0,2,3
 -5 221 -5 221 87.5 264 c 128,-1,4
 180 307 180 307 364 304 c 1,5,-1
 367 318 l 2,6,7
 370 330 370 330 370 341 c 0,8,9
 370 372 370 372 349 386 c 128,-1,10
 328 400 328 400 293 400 c 0,11,12
 262 400 262 400 238.5 387 c 128,-1,13
 215 374 215 374 205 348 c 1,14,-1
 66 398 l 1,15,16
 100 457 100 457 163 484 c 128,-1,17
 226 511 226 511 296 511 c 0,18,19
 411 511 411 511 463 454 c 1,20,21
 536 511 536 511 633 511 c 0,22,23
 701 511 701 511 752 482.5 c 128,-1,24
 803 454 803 454 831 402 c 128,-1,25
 859 350 859 350 859 282 c 0,26,27
 859 242 859 242 851 207 c 1,28,-1
 489 207 l 1,29,30
 491 163 491 163 516.5 138.5 c 128,-1,31
 542 114 542 114 591 114 c 0,32,33
 656 114 656 114 683 146 c 1,34,-1
 810 95 l 1,35,36
 767 43 767 43 707.5 15.5 c 128,-1,37
 648 -12 648 -12 584 -12 c 0,38,39
 517 -12 517 -12 466.5 12.5 c 128,-1,40
 416 37 416 37 386 83 c 1,41,42
 312 -12 312 -12 171 -12 c 0,43,0
 91 -12 91 -12 43 23.5 c 128,-1,1
297 122.5 m 128,-1,45
 325 146 325 146 341 201 c 2,46,-1
 343 208 l 1,47,48
 252 209 252 209 211.5 193.5 c 128,-1,49
 171 178 171 178 171 146 c 0,50,51
 171 124 171 124 187 111.5 c 128,-1,52
 203 99 203 99 228 99 c 0,53,44
 269 99 269 99 297 122.5 c 128,-1,45
692 367.5 m 128,-1,55
 665 390 665 390 621 390 c 0,56,57
 579 390 579 390 550 365 c 128,-1,58
 521 340 521 340 505 301 c 1,59,-1
 718 301 l 1,60,54
 719 345 719 345 692 367.5 c 128,-1,55
EndSplineSet
EndChar
StartChar: ccedilla
Encoding: 231 231 127
Width: 523
GlyphClass: 2
Flags: W
AnchorPoint: "Anchor-1" 331 496 basechar 0
LayerCount: 2
Fore
SplineSet
114 -168 m 1,1,-1
 140 -118 l 1,2,3
 150 -124 150 -124 170 -130 c 128,-1,4
 190 -136 190 -136 208 -136 c 0,5,6
 223 -136 223 -136 233.5 -129 c 128,-1,7
 244 -122 244 -122 244 -108 c 0,8,9
 244 -98 244 -98 236 -91.5 c 128,-1,10
 228 -85 228 -85 215 -85 c 256,11,12
 202 -85 202 -85 190 -87 c 256,13,14
 178 -89 178 -89 171.5 -84.5 c 128,-1,15
 165 -80 165 -80 165 -71 c 0,16,17
 165 -61 165 -61 172 -53 c 2,18,-1
 209 -8 l 1,19,20
 122 5 122 5 73.5 60 c 128,-1,21
 25 115 25 115 25 203 c 0,22,23
 25 288 25 288 60 358.5 c 128,-1,24
 95 429 95 429 160 470 c 128,-1,25
 225 511 225 511 311 511 c 0,26,27
 390 511 390 511 448 476.5 c 128,-1,28
 506 442 506 442 529 374 c 1,29,-1
 394 328 l 1,30,31
 387 356 387 356 366 370.5 c 128,-1,32
 345 385 345 385 315 385 c 0,33,34
 272 385 272 385 244 356 c 128,-1,35
 216 327 216 327 203.5 286.5 c 128,-1,36
 191 246 191 246 191 211 c 0,37,38
 191 165 191 165 213 139.5 c 128,-1,39
 235 114 235 114 278 114 c 0,40,41
 336 114 336 114 366 156 c 1,42,-1
 493 105 l 1,43,44
 414 -10 414 -10 265 -12 c 1,45,-1
 236 -47 l 1,46,47
 241 -46 241 -46 251 -46 c 0,48,49
 290 -46 290 -46 317 -62.5 c 128,-1,50
 344 -79 344 -79 344 -108 c 0,51,52
 344 -149 344 -149 310 -168.5 c 128,-1,53
 276 -188 276 -188 223 -188 c 0,54,0
 163 -188 163 -188 114 -168 c 1,1,-1
EndSplineSet
EndChar
StartChar: eth
Encoding: 240 240 132
Width: 599
GlyphClass: 2
Flags: W
AnchorPoint: "Anchor-1" 416 796 basechar 0
AnchorPoint: "Anchor-0" 247 0 basechar 0
LayerCount: 2
Fore
SplineSet
141 12.5 m 128,-1,1
 85 37 85 37 53 84 c 128,-1,2
 21 131 21 131 21 196 c 0,3,4
 21 271 21 271 56.5 329.5 c 128,-1,5
 92 388 92 388 151 420.5 c 128,-1,6
 210 453 210 453 279 453 c 0,7,8
 371 453 371 453 428 396 c 1,9,10
 434 424 434 424 434 441 c 0,11,12
 434 499 434 499 398 542 c 1,13,-1
 323 485 l 1,14,-1
 282 538 l 1,15,-1
 346 585 l 1,16,17
 300 611 300 611 243 617 c 1,18,-1
 270 746 l 1,19,20
 394 732 394 732 465 675 c 1,21,-1
 545 734 l 1,22,-1
 587 682 l 1,23,-1
 515 629 l 1,24,25
 546 598 546 598 567 536 c 128,-1,26
 588 474 588 474 588 398 c 0,27,28
 588 303 588 303 554 208.5 c 128,-1,29
 520 114 520 114 448 51 c 128,-1,30
 376 -12 376 -12 269 -12 c 0,31,0
 197 -12 197 -12 141 12.5 c 128,-1,1
337.5 128.5 m 128,-1,33
 364 148 364 148 377.5 179 c 128,-1,34
 391 210 391 210 391 243 c 0,35,36
 391 285 391 285 365 308.5 c 128,-1,37
 339 332 339 332 302 332 c 0,38,39
 263 332 263 332 237 310.5 c 128,-1,40
 211 289 211 289 199 257.5 c 128,-1,41
 187 226 187 226 187 197 c 0,42,43
 187 155 187 155 211 132 c 128,-1,44
 235 109 235 109 274 109 c 0,45,32
 311 109 311 109 337.5 128.5 c 128,-1,33
EndSplineSet
EndChar
StartChar: divide
Encoding: 247 247 323
Width: 595
GlyphClass: 1
Flags: W
LayerCount: 2
Fore
SplineSet
55 317 m 1,0,-1
 570 317 l 1,1,-1
 540 179 l 1,2,-1
 25 179 l 1,3,-1
 55 317 l 1,0,-1
200 7.5 m 128,-1,5
 176 32 176 32 176 66 c 0,6,7
 176 99 176 99 200 123.5 c 128,-1,8
 224 148 224 148 257 148 c 0,9,10
 291 148 291 148 315 123.5 c 128,-1,11
 339 99 339 99 339 66 c 0,12,13
 339 32 339 32 315 7.5 c 128,-1,14
 291 -17 291 -17 257 -17 c 0,15,4
 224 -17 224 -17 200 7.5 c 128,-1,5
278 372.5 m 128,-1,17
 254 397 254 397 254 431 c 256,18,19
 254 465 254 465 278 489 c 128,-1,20
 302 513 302 513 335 513 c 0,21,22
 369 513 369 513 393 489 c 128,-1,23
 417 465 417 465 417 431 c 256,24,25
 417 397 417 397 393 372.5 c 128,-1,26
 369 348 369 348 335 348 c 0,27,16
 302 348 302 348 278 372.5 c 128,-1,17
EndSplineSet
EndChar
StartChar: oslash
Encoding: 248 248 179
Width: 591
GlyphClass: 2
Flags: W
AnchorPoint: "Anchor-3" 616 496 basechar 0
AnchorPoint: "Anchor-1" 341 496 basechar 0
AnchorPoint: "Anchor-0" 243 0 basechar 0
LayerCount: 2
Fore
SplineSet
117 31 m 1,1,-1
 51 -30 l 1,2,-1
 -1 24 l 1,3,-1
 63 83 l 1,4,5
 26 137 26 137 26 211 c 0,6,7
 26 293 26 293 62.5 361.5 c 128,-1,8
 99 430 99 430 166 470.5 c 128,-1,9
 233 511 233 511 321 511 c 0,10,11
 412 511 412 511 476 468 c 1,12,-1
 539 526 l 1,13,-1
 591 471 l 1,14,-1
 530 414 l 1,15,16
 566 361 566 361 566 288 c 0,17,18
 566 206 566 206 529.5 137.5 c 128,-1,19
 493 69 493 69 426 28.5 c 128,-1,20
 359 -12 359 -12 271 -12 c 0,21,0
 180 -12 180 -12 117 31 c 1,1,-1
345.5 142.5 m 128,-1,23
 373 171 373 171 386 210.5 c 128,-1,24
 399 250 399 250 399 286 c 2,25,-1
 399 293 l 1,26,-1
 224 130 l 1,27,28
 243 114 243 114 275 114 c 0,29,22
 318 114 318 114 345.5 142.5 c 128,-1,23
193 205 m 1,30,-1
 369 368 l 1,31,32
 349 385 349 385 317 385 c 0,33,34
 274 385 274 385 246.5 356.5 c 128,-1,35
 219 328 219 328 206 288.5 c 128,-1,36
 193 249 193 249 193 213 c 2,37,-1
 193 205 l 1,30,-1
EndSplineSet
EndChar
StartChar: Aogonek
Encoding: 260 260 9
Width: 702
GlyphClass: 2
Flags: W
AnchorPoint: "Anchor-1" 440 668 basechar 0
AnchorPoint: "Anchor-0" 298 0 basechar 0
LayerCount: 2
Fore
SplineSet
446 -154.5 m 128,-1,1
 393 -133 393 -133 393 -90 c 0,2,3
 393 -43 393 -43 463 0 c 1,4,-1
 449 114 l 1,5,-1
 203 114 l 1,6,-1
 141 0 l 1,7,-1
 -49 0 l 1,8,-1
 346 668 l 1,9,-1
 533 668 l 1,10,-1
 645 0 l 1,11,12
 626 -1 626 -1 599.5 -11 c 128,-1,13
 573 -21 573 -21 554 -36 c 128,-1,14
 535 -51 535 -51 535 -67 c 0,15,16
 535 -81 535 -81 547.5 -88 c 128,-1,17
 560 -95 560 -95 580 -95 c 0,18,19
 598 -95 598 -95 626 -91 c 1,20,-1
 609 -172 l 1,21,22
 593 -176 593 -176 567 -176 c 0,23,0
 499 -176 499 -176 446 -154.5 c 128,-1,1
433 251 m 1,24,-1
 405 487 l 1,25,-1
 277 251 l 1,26,-1
 433 251 l 1,24,-1
EndSplineSet
EndChar
StartChar: aogonek
Encoding: 261 261 119
Width: 561
GlyphClass: 2
Flags: W
AnchorPoint: "Anchor-1" 319 496 basechar 0
AnchorPoint: "Anchor-0" 227 0 basechar 0
LayerCount: 2
Fore
SplineSet
274.5 -154.5 m 128,-1,1
 222 -133 222 -133 222 -89 c 0,2,3
 222 -58 222 -58 250 -33 c 128,-1,4
 278 -8 278 -8 319 9 c 1,5,-1
 316 54 l 1,6,7
 281 18 281 18 240 3 c 128,-1,8
 199 -12 199 -12 151 -12 c 0,9,10
 85 -12 85 -12 40 24 c 128,-1,11
 -5 60 -5 60 -5 121 c 0,12,13
 -5 215 -5 215 82.5 263 c 128,-1,14
 170 311 170 311 364 308 c 1,15,-1
 367 320 l 2,16,17
 370 332 370 332 370 342 c 0,18,19
 370 371 370 371 348.5 385.5 c 128,-1,20
 327 400 327 400 293 400 c 0,21,22
 262 400 262 400 238.5 387 c 128,-1,23
 215 374 215 374 205 348 c 1,24,-1
 66 398 l 1,25,26
 100 457 100 457 163.5 484 c 128,-1,27
 227 511 227 511 299 511 c 0,28,29
 404 511 404 511 464.5 467.5 c 128,-1,30
 525 424 525 424 525 341 c 0,31,32
 525 316 525 316 519 287 c 2,33,-1
 497 185 l 2,34,35
 486 132 486 132 479.5 80.5 c 128,-1,36
 473 29 473 29 475 0 c 1,37,38
 427 -7 427 -7 395.5 -26 c 128,-1,39
 364 -45 364 -45 364 -67 c 0,40,41
 364 -81 364 -81 376.5 -88 c 128,-1,42
 389 -95 389 -95 409 -95 c 0,43,44
 433 -95 433 -95 455 -91 c 1,45,-1
 438 -172 l 1,46,47
 422 -176 422 -176 396 -176 c 0,48,0
 327 -176 327 -176 274.5 -154.5 c 128,-1,1
343 210 m 1,50,-1
 343 212 l 1,51,52
 171 213 171 213 171 146 c 0,53,54
 171 124 171 124 187.5 111.5 c 128,-1,55
 204 99 204 99 228 99 c 0,56,49
 319 99 319 99 343 210 c 1,50,-1
EndSplineSet
EndChar
StartChar: dcroat
Encoding: 273 273 131
Width: 612
GlyphClass: 1
Flags: W
LayerCount: 2
Fore
SplineSet
71.5 46 m 128,-1,1
 23 104 23 104 23 197 c 0,2,3
 23 268 23 268 51.5 340.5 c 128,-1,4
 80 413 80 413 139 462 c 128,-1,5
 198 511 198 511 283 511 c 0,6,7
 334 511 334 511 375.5 489 c 128,-1,8
 417 467 417 467 434 427 c 1,9,-1
 459 544 l 1,10,-1
 323 544 l 1,11,-1
 341 624 l 1,12,-1
 477 624 l 1,13,-1
 495 708 l 1,14,-1
 659 708 l 1,15,-1
 641 624 l 1,16,-1
 717 624 l 1,17,-1
 699 544 l 1,18,-1
 624 544 l 1,19,-1
 550 198 l 2,20,21
 526 87 526 87 525 0 c 1,22,-1
 368 0 l 1,23,-1
 362 60 l 1,24,25
 333 25 333 25 289.5 6.5 c 128,-1,26
 246 -12 246 -12 208 -12 c 0,27,0
 120 -12 120 -12 71.5 46 c 128,-1,1
354.5 144.5 m 128,-1,29
 383 174 383 174 396 214.5 c 128,-1,30
 409 255 409 255 409 289 c 0,31,32
 409 334 409 334 386 359.5 c 128,-1,33
 363 385 363 385 322 385 c 0,34,35
 280 385 280 385 251.5 358.5 c 128,-1,36
 223 332 223 332 209 293.5 c 128,-1,37
 195 255 195 255 195 221 c 0,38,39
 195 175 195 175 218 145 c 128,-1,40
 241 115 241 115 283 115 c 0,41,28
 326 115 326 115 354.5 144.5 c 128,-1,29
EndSplineSet
EndChar
StartChar: Eogonek
Encoding: 280 280 31
Width: 613
GlyphClass: 2
Flags: W
AnchorPoint: "Anchor-1" 291 668 basechar 0
AnchorPoint: "Anchor-0" 254 0 basechar 0
LayerCount: 2
Fore
SplineSet
143 668 m 1,0,-1
 664 668 l 1,1,-1
 632 518 l 1,2,-1
 281 518 l 1,3,-1
 260 418 l 1,4,-1
 468 418 l 1,5,-1
 436 269 l 1,6,-1
 228 269 l 1,7,-1
 203 150 l 1,8,-1
 558 150 l 1,9,-1
 526 0 l 1,10,11
 507 -1 507 -1 481 -11 c 128,-1,12
 455 -21 455 -21 436 -36 c 128,-1,13
 417 -51 417 -51 417 -67 c 0,14,15
 417 -81 417 -81 429.5 -88 c 128,-1,16
 442 -95 442 -95 462 -95 c 0,17,18
 480 -95 480 -95 508 -91 c 1,19,-1
 491 -172 l 1,20,21
 475 -176 475 -176 449 -176 c 0,22,23
 381 -176 381 -176 328 -154.5 c 128,-1,24
 275 -133 275 -133 275 -90 c 0,25,26
 275 -36 275 -36 358 0 c 1,27,-1
 1 0 l 1,28,-1
 143 668 l 1,0,-1
EndSplineSet
EndChar
StartChar: eogonek
Encoding: 281 281 141
Width: 576
GlyphClass: 2
Flags: W
AnchorPoint: "Anchor-1" 344 496 basechar 0
AnchorPoint: "Anchor-0" 239 0 basechar 0
LayerCount: 2
Fore
SplineSet
256.5 -152 m 128,-1,1
 206 -130 206 -130 206 -83 c 0,2,3
 206 -47 206 -47 244 -11 c 1,4,5
 145 -2 145 -2 85.5 59 c 128,-1,6
 26 120 26 120 26 215 c 0,7,8
 26 298 26 298 65 365.5 c 128,-1,9
 104 433 104 433 172 472 c 128,-1,10
 240 511 240 511 324 511 c 0,11,12
 395 511 395 511 448 482 c 128,-1,13
 501 453 501 453 529.5 401 c 128,-1,14
 558 349 558 349 558 281 c 0,15,16
 558 246 558 246 549 205 c 1,17,-1
 181 205 l 1,18,19
 186 162 186 162 213.5 138 c 128,-1,20
 241 114 241 114 289 114 c 0,21,22
 354 114 354 114 381 146 c 1,23,-1
 508 95 l 1,24,25
 473 52 473 52 422 24 c 0,26,27
 390 6 390 6 368 -16.5 c 128,-1,28
 346 -39 346 -39 346 -61 c 0,29,30
 346 -77 346 -77 358.5 -86 c 128,-1,31
 371 -95 371 -95 393 -95 c 0,32,33
 412 -95 412 -95 436 -91 c 1,34,-1
 419 -172 l 1,35,36
 404 -174 404 -174 383 -174 c 0,37,0
 307 -174 307 -174 256.5 -152 c 128,-1,1
389.5 367.5 m 128,-1,39
 362 390 362 390 319 390 c 0,40,41
 272 390 272 390 241.5 365 c 128,-1,42
 211 340 211 340 195 301 c 1,43,-1
 416 301 l 1,44,38
 417 345 417 345 389.5 367.5 c 128,-1,39
EndSplineSet
EndChar
StartChar: Hbar
Encoding: 294 294 38
Width: 709
GlyphClass: 1
Flags: W
LayerCount: 2
Fore
SplineSet
107 498 m 1,0,-1
 67 498 l 1,1,-1
 87 594 l 1,2,-1
 127 594 l 1,3,-1
 143 668 l 1,4,-1
 313 668 l 1,5,-1
 297 594 l 1,6,-1
 558 594 l 1,7,-1
 574 668 l 1,8,-1
 744 668 l 1,9,-1
 728 594 l 1,10,-1
 768 594 l 1,11,-1
 748 498 l 1,12,-1
 708 498 l 1,13,-1
 602 0 l 1,14,-1
 432 0 l 1,15,-1
 489 268 l 1,16,-1
 228 268 l 1,17,-1
 171 0 l 1,18,-1
 1 0 l 1,19,-1
 107 498 l 1,0,-1
521 418 m 1,20,-1
 538 498 l 1,21,-1
 277 498 l 1,22,-1
 260 418 l 1,23,-1
 521 418 l 1,20,-1
EndSplineSet
EndChar
StartChar: hbar
Encoding: 295 295 148
Width: 585
GlyphClass: 1
Flags: W
LayerCount: 2
Fore
SplineSet
112 544 m 1,0,-1
 37 544 l 1,1,-1
 55 624 l 1,2,-1
 129 624 l 1,3,-1
 147 708 l 1,4,-1
 312 708 l 1,5,-1
 294 624 l 1,6,-1
 432 624 l 1,7,-1
 414 544 l 1,8,-1
 278 544 l 1,9,-1
 254 432 l 1,10,11
 277 466 277 466 318.5 488.5 c 128,-1,12
 360 511 360 511 413 511 c 0,13,14
 483 511 483 511 519.5 475 c 128,-1,15
 556 439 556 439 556 370 c 0,16,17
 556 335 556 335 548 300 c 2,18,-1
 484 0 l 1,19,-1
 319 0 l 1,20,-1
 378 276 l 2,21,22
 383 303 383 303 383 320 c 0,23,24
 383 385 383 385 325 385 c 0,25,26
 281 385 281 385 255 352.5 c 128,-1,27
 229 320 229 320 215 252 c 2,28,-1
 162 0 l 1,29,-1
 -3 0 l 1,30,-1
 112 544 l 1,0,-1
EndSplineSet
EndChar
StartChar: Iogonek
Encoding: 302 302 47
Width: 435
GlyphClass: 2
Flags: W
AnchorPoint: "Anchor-1" 307 668 basechar 0
AnchorPoint: "Anchor-0" 165 0 basechar 0
LayerCount: 2
Fore
SplineSet
14 124 m 1,0,-1
 106 124 l 1,1,-1
 196 544 l 1,2,-1
 104 544 l 1,3,-1
 130 668 l 1,4,-1
 484 668 l 1,5,-1
 458 544 l 1,6,-1
 366 544 l 1,7,-1
 276 124 l 1,8,-1
 368 124 l 1,9,-1
 342 0 l 1,10,11
 323 -1 323 -1 297 -11 c 128,-1,12
 271 -21 271 -21 252 -36 c 128,-1,13
 233 -51 233 -51 233 -67 c 0,14,15
 233 -81 233 -81 245.5 -88 c 128,-1,16
 258 -95 258 -95 278 -95 c 0,17,18
 296 -95 296 -95 324 -91 c 1,19,-1
 307 -172 l 1,20,21
 291 -176 291 -176 265 -176 c 0,22,23
 197 -176 197 -176 144 -154.5 c 128,-1,24
 91 -133 91 -133 91 -90 c 0,25,26
 91 -36 91 -36 174 0 c 1,27,-1
 -12 0 l 1,28,-1
 14 124 l 1,0,-1
EndSplineSet
EndChar
StartChar: iogonek
Encoding: 303 303 156
Width: 323
GlyphClass: 2
Flags: W
AnchorPoint: "Anchor-1" 290 766 basechar 0
AnchorPoint: "Anchor-0" 86 0 basechar 0
LayerCount: 2
Fore
SplineSet
203 604 m 128,-1,1
 176 631 176 631 176 671 c 256,2,3
 176 711 176 711 203 738 c 128,-1,4
 230 765 230 765 270 765 c 256,5,6
 310 765 310 765 337 738 c 128,-1,7
 364 711 364 711 364 671 c 256,8,9
 364 631 364 631 337 604 c 128,-1,10
 310 577 310 577 270 577 c 256,11,0
 230 577 230 577 203 604 c 128,-1,1
18.5 -154.5 m 128,-1,13
 -34 -133 -34 -133 -34 -89 c 0,14,15
 -34 -59 -34 -59 -9 -35.5 c 128,-1,16
 16 -12 16 -12 54 5 c 1,17,-1
 132 372 l 1,18,-1
 46 372 l 1,19,-1
 73 496 l 1,20,-1
 325 496 l 1,21,-1
 219 0 l 1,22,23
 171 -7 171 -7 139.5 -26 c 128,-1,24
 108 -45 108 -45 108 -67 c 0,25,26
 108 -81 108 -81 120.5 -88 c 128,-1,27
 133 -95 133 -95 153 -95 c 0,28,29
 177 -95 177 -95 199 -91 c 1,30,-1
 182 -172 l 1,31,32
 166 -176 166 -176 140 -176 c 0,33,12
 71 -176 71 -176 18.5 -154.5 c 128,-1,13
EndSplineSet
EndChar
StartChar: dotlessi
Encoding: 305 305 150
Width: 323
GlyphClass: 2
Flags: W
AnchorPoint: "Anchor-2" 221 10 basechar 0
AnchorPoint: "Anchor-1" 233 496 basechar 0
AnchorPoint: "Anchor-0" 86 0 basechar 0
LayerCount: 2
Fore
SplineSet
132 372 m 1,0,-1
 46 372 l 1,1,-1
 73 496 l 1,2,-1
 325 496 l 1,3,-1
 219 0 l 1,4,-1
 53 0 l 1,5,-1
 132 372 l 1,0,-1
EndSplineSet
EndChar
StartChar: Lslash
Encoding: 321 321 55
Width: 588
GlyphClass: 1
Flags: W
LayerCount: 2
Fore
SplineSet
79 223 m 1,0,-1
 -1 182 l 1,1,-1
 27 314 l 1,2,-1
 107 356 l 1,3,-1
 173 668 l 1,4,-1
 343 668 l 1,5,-1
 298 456 l 1,6,-1
 466 544 l 1,7,-1
 438 411 l 1,8,-1
 270 323 l 1,9,-1
 233 150 l 1,10,-1
 546 150 l 1,11,-1
 514 0 l 1,12,-1
 31 0 l 1,13,-1
 79 223 l 1,0,-1
EndSplineSet
EndChar
StartChar: lslash
Encoding: 322 322 166
Width: 375
GlyphClass: 1
Flags: W
LayerCount: 2
Fore
SplineSet
118 9.5 m 128,-1,1
 78 19 78 19 60 41.5 c 128,-1,2
 42 64 42 64 42 102 c 0,3,4
 42 125 42 125 50 162 c 2,5,-1
 69 249 l 1,6,-1
 25 229 l 1,7,-1
 52 358 l 1,8,-1
 96 379 l 1,9,-1
 166 708 l 1,10,-1
 332 708 l 1,11,-1
 280 464 l 1,12,-1
 397 519 l 1,13,-1
 369 390 l 1,14,-1
 253 335 l 1,15,-1
 223 197 l 2,16,17
 220 182 220 182 220 170 c 0,18,19
 220 148 220 148 235 140 c 128,-1,20
 250 132 250 132 285 132 c 2,21,-1
 322 132 l 1,22,-1
 294 0 l 1,23,-1
 227 0 l 2,24,0
 158 0 158 0 118 9.5 c 128,-1,1
EndSplineSet
EndChar
StartChar: OE
Encoding: 338 338 70
Width: 1034
GlyphClass: 2
Flags: W
AnchorPoint: "Anchor-1" 611 668 basechar 0
AnchorPoint: "Anchor-0" 469 0 basechar 0
LayerCount: 2
Fore
SplineSet
171.5 24 m 128,-1,1
 109 60 109 60 75.5 125 c 128,-1,2
 42 190 42 190 42 274 c 0,3,4
 42 382 42 382 89.5 475 c 128,-1,5
 137 568 137 568 223.5 624 c 128,-1,6
 310 680 310 680 421 680 c 0,7,8
 529 680 529 680 592 626 c 1,9,-1
 601 668 l 1,10,-1
 1085 668 l 1,11,-1
 1053 518 l 1,12,-1
 727 518 l 1,13,-1
 706 418 l 1,14,-1
 888 418 l 1,15,-1
 856 269 l 1,16,-1
 674 269 l 1,17,-1
 649 150 l 1,18,-1
 979 150 l 1,19,-1
 947 0 l 1,20,-1
 459 0 l 1,21,-1
 464 23 l 1,22,23
 397 -12 397 -12 317 -12 c 0,24,0
 234 -12 234 -12 171.5 24 c 128,-1,1
455.5 174 m 128,-1,26
 497 220 497 220 517 284.5 c 128,-1,27
 537 349 537 349 537 402 c 0,28,29
 537 468 537 468 506 504 c 128,-1,30
 475 540 475 540 411 540 c 0,31,32
 345 540 345 540 302.5 497 c 128,-1,33
 260 454 260 454 241 392.5 c 128,-1,34
 222 331 222 331 222 274 c 0,35,36
 222 203 222 203 256.5 165.5 c 128,-1,37
 291 128 291 128 354 128 c 0,38,25
 414 128 414 128 455.5 174 c 128,-1,26
EndSplineSet
EndChar
StartChar: oe
Encoding: 339 339 181
Width: 942
GlyphClass: 2
Flags: W
AnchorPoint: "Anchor-1" 636 496 basechar 0
AnchorPoint: "Anchor-0" 531 0 basechar 0
LayerCount: 2
Fore
SplineSet
533.5 6.5 m 128,-1,1
 485 25 485 25 452 59 c 1,2,3
 375 -12 375 -12 262 -12 c 0,4,5
 196 -12 196 -12 142 14.5 c 128,-1,6
 88 41 88 41 57 91 c 128,-1,7
 26 141 26 141 26 210 c 0,8,9
 26 289 26 289 60 358 c 128,-1,10
 94 427 94 427 158.5 469 c 128,-1,11
 223 511 223 511 310 511 c 0,12,13
 366 511 366 511 413 492.5 c 128,-1,14
 460 474 460 474 492 440 c 1,15,16
 532 474 532 474 582.5 492.5 c 128,-1,17
 633 511 633 511 690 511 c 0,18,19
 761 511 761 511 814 482 c 128,-1,20
 867 453 867 453 895.5 401 c 128,-1,21
 924 349 924 349 924 281 c 0,22,23
 924 246 924 246 915 205 c 1,24,-1
 547 205 l 1,25,26
 552 162 552 162 579.5 138 c 128,-1,27
 607 114 607 114 655 114 c 0,28,29
 720 114 720 114 747 146 c 1,30,-1
 874 95 l 1,31,32
 831 43 831 43 770 15.5 c 128,-1,33
 709 -12 709 -12 641 -12 c 0,34,0
 582 -12 582 -12 533.5 6.5 c 128,-1,1
344 142.5 m 128,-1,36
 372 171 372 171 384.5 211 c 128,-1,37
 397 251 397 251 397 286 c 0,38,39
 397 330 397 330 377 357.5 c 128,-1,40
 357 385 357 385 316 385 c 0,41,42
 274 385 274 385 246 356.5 c 128,-1,43
 218 328 218 328 205.5 288 c 128,-1,44
 193 248 193 248 193 213 c 0,45,46
 193 169 193 169 213 141.5 c 128,-1,47
 233 114 233 114 274 114 c 0,48,35
 316 114 316 114 344 142.5 c 128,-1,36
755.5 367.5 m 128,-1,50
 728 390 728 390 685 390 c 0,51,52
 638 390 638 390 607.5 365 c 128,-1,53
 577 340 577 340 561 301 c 1,54,-1
 782 301 l 1,55,49
 783 345 783 345 755.5 367.5 c 128,-1,50
EndSplineSet
EndChar
StartChar: Scedilla
Encoding: 350 350 80
Width: 618
GlyphClass: 2
Flags: W
AnchorPoint: "Anchor-1" 399 668 basechar 0
LayerCount: 2
Fore
SplineSet
163 -168 m 1,1,-1
 189 -118 l 1,2,3
 199 -124 199 -124 219 -130 c 128,-1,4
 239 -136 239 -136 257 -136 c 0,5,6
 272 -136 272 -136 282.5 -129 c 128,-1,7
 293 -122 293 -122 293 -108 c 0,8,9
 293 -98 293 -98 285 -91.5 c 128,-1,10
 277 -85 277 -85 264 -85 c 256,11,12
 251 -85 251 -85 239 -87 c 256,13,14
 227 -89 227 -89 220.5 -84.5 c 128,-1,15
 214 -80 214 -80 214 -71 c 0,16,17
 214 -61 214 -61 221 -53 c 2,18,-1
 256 -10 l 1,19,20
 166 -3 166 -3 100.5 41 c 128,-1,21
 35 85 35 85 13 164 c 1,22,-1
 169 215 l 1,23,24
 178 171 178 171 219.5 147.5 c 128,-1,25
 261 124 261 124 316 124 c 0,26,27
 359 124 359 124 387 140.5 c 128,-1,28
 415 157 415 157 415 192 c 0,29,30
 415 216 415 216 392.5 231.5 c 128,-1,31
 370 247 370 247 321 263 c 2,32,-1
 247 287 l 2,33,34
 172 311 172 311 127 354.5 c 128,-1,35
 82 398 82 398 82 460 c 0,36,37
 82 529 82 529 123 578.5 c 128,-1,38
 164 628 164 628 230.5 654 c 128,-1,39
 297 680 297 680 374 680 c 0,40,41
 467 680 467 680 537 641 c 128,-1,42
 607 602 607 602 629 527 c 1,43,-1
 474 474 l 1,44,45
 463 510 463 510 428 527 c 128,-1,46
 393 544 393 544 346 544 c 0,47,48
 308 544 308 544 281.5 529.5 c 128,-1,49
 255 515 255 515 255 485 c 0,50,51
 255 447 255 447 315 428 c 2,52,-1
 398 401 l 2,53,54
 485 373 485 373 537.5 332.5 c 128,-1,55
 590 292 590 292 590 221 c 0,56,57
 590 154 590 154 553 102.5 c 128,-1,58
 516 51 516 51 453 21.5 c 128,-1,59
 390 -8 390 -8 314 -12 c 1,60,-1
 285 -47 l 1,61,62
 290 -46 290 -46 300 -46 c 0,63,64
 339 -46 339 -46 366 -62.5 c 128,-1,65
 393 -79 393 -79 393 -108 c 0,66,67
 393 -149 393 -149 359 -168.5 c 128,-1,68
 325 -188 325 -188 272 -188 c 0,69,0
 212 -188 212 -188 163 -168 c 1,1,-1
EndSplineSet
Substitution2: "'locl' Localized Forms in Latin lookup 4 subtable" uni0218
AlternateSubs2: "'aalt' Access All Alternates in Latin lookup 0 subtable" uni0218
EndChar
StartChar: scedilla
Encoding: 351 351 191
Width: 526
GlyphClass: 2
Flags: W
AnchorPoint: "Anchor-1" 309 496 basechar 0
LayerCount: 2
Fore
SplineSet
106 -168 m 1,1,-1
 132 -118 l 1,2,3
 142 -124 142 -124 162 -130 c 128,-1,4
 182 -136 182 -136 200 -136 c 0,5,6
 215 -136 215 -136 225.5 -129 c 128,-1,7
 236 -122 236 -122 236 -108 c 0,8,9
 236 -98 236 -98 228 -91.5 c 128,-1,10
 220 -85 220 -85 207 -85 c 256,11,12
 194 -85 194 -85 182 -87 c 256,13,14
 170 -89 170 -89 163.5 -84.5 c 128,-1,15
 157 -80 157 -80 157 -71 c 0,16,17
 157 -61 157 -61 164 -53 c 2,18,-1
 200 -10 l 1,19,20
 130 -1 130 -1 75 31 c 128,-1,21
 20 63 20 63 -2 119 c 1,22,-1
 136 166 l 1,23,24
 144 136 144 136 178.5 120 c 128,-1,25
 213 104 213 104 254 104 c 0,26,27
 285 104 285 104 309.5 112.5 c 128,-1,28
 334 121 334 121 334 142 c 0,29,30
 334 153 334 153 320.5 163 c 128,-1,31
 307 173 307 173 273 183 c 2,32,-1
 188 208 l 2,33,34
 124 227 124 227 89.5 262.5 c 128,-1,35
 55 298 55 298 55 346 c 0,36,37
 55 426 55 426 123 468.5 c 128,-1,38
 191 511 191 511 289 511 c 0,39,40
 370 511 370 511 431.5 481 c 128,-1,41
 493 451 493 451 516 389 c 1,42,-1
 378 342 l 1,43,44
 361 395 361 395 278 395 c 0,45,46
 252 395 252 395 232.5 387 c 128,-1,47
 213 379 213 379 213 360 c 0,48,49
 213 336 213 336 261 322 c 2,50,-1
 346 297 l 2,51,52
 424 274 424 274 459 242.5 c 128,-1,53
 494 211 494 211 494 165 c 0,54,55
 494 79 494 79 426 33.5 c 128,-1,56
 358 -12 358 -12 256 -13 c 1,57,-1
 228 -47 l 1,58,59
 233 -46 233 -46 243 -46 c 0,60,61
 282 -46 282 -46 309 -62.5 c 128,-1,62
 336 -79 336 -79 336 -108 c 0,63,64
 336 -149 336 -149 302 -168.5 c 128,-1,65
 268 -188 268 -188 215 -188 c 0,66,0
 155 -188 155 -188 106 -168 c 1,1,-1
EndSplineSet
Substitution2: "'locl' Localized Forms in Latin lookup 4 subtable" uni0219
AlternateSubs2: "'aalt' Access All Alternates in Latin lookup 0 subtable" uni0219
EndChar
StartChar: uni0162
Encoding: 354 354 85
Width: 628
GlyphClass: 2
Flags: W
AnchorPoint: "Anchor-1" 403 668 basechar 0
LayerCount: 2
Fore
SplineSet
286 518 m 1,0,-1
 73 518 l 1,1,-1
 105 668 l 1,2,-1
 701 668 l 1,3,-1
 669 518 l 1,4,-1
 456 518 l 1,5,-1
 346 0 l 1,6,-1
 293 0 l 1,7,-1
 254 -47 l 1,8,9
 259 -46 259 -46 269 -46 c 0,10,11
 308 -46 308 -46 335 -62.5 c 128,-1,12
 362 -79 362 -79 362 -108 c 0,13,14
 362 -149 362 -149 328 -168.5 c 128,-1,15
 294 -188 294 -188 241 -188 c 0,16,17
 181 -188 181 -188 132 -168 c 1,18,-1
 158 -118 l 1,19,20
 168 -124 168 -124 188 -130 c 128,-1,21
 208 -136 208 -136 226 -136 c 0,22,23
 241 -136 241 -136 251.5 -129 c 128,-1,24
 262 -122 262 -122 262 -108 c 0,25,26
 262 -98 262 -98 254 -91.5 c 128,-1,27
 246 -85 246 -85 233 -85 c 256,28,29
 220 -85 220 -85 208 -87 c 256,30,31
 196 -89 196 -89 189.5 -84.5 c 128,-1,32
 183 -80 183 -80 183 -71 c 0,33,34
 183 -61 183 -61 190 -53 c 2,35,-1
 234 0 l 1,36,-1
 176 0 l 1,37,-1
 286 518 l 1,0,-1
EndSplineSet
Substitution2: "'locl' Localized Forms in Latin lookup 4 subtable" uni021A
AlternateSubs2: "'aalt' Access All Alternates in Latin lookup 0 subtable" uni021A
EndChar
StartChar: uni0163
Encoding: 355 355 196
Width: 398
GlyphClass: 2
Flags: W
AnchorPoint: "Anchor-3" 345 554 basechar 0
AnchorPoint: "Anchor-1" 250 496 basechar 0
LayerCount: 2
Fore
SplineSet
52 -168 m 1,1,-1
 78 -118 l 1,2,3
 88 -124 88 -124 108 -130 c 128,-1,4
 128 -136 128 -136 146 -136 c 0,5,6
 161 -136 161 -136 171.5 -129 c 128,-1,7
 182 -122 182 -122 182 -108 c 0,8,9
 182 -98 182 -98 174 -91.5 c 128,-1,10
 166 -85 166 -85 153 -85 c 256,11,12
 140 -85 140 -85 128 -87 c 256,13,14
 116 -89 116 -89 109.5 -84.5 c 128,-1,15
 103 -80 103 -80 103 -71 c 0,16,17
 103 -61 103 -61 110 -53 c 2,18,-1
 160 8 l 1,19,20
 111 17 111 17 89.5 39 c 128,-1,21
 68 61 68 61 68 101 c 0,22,23
 68 125 68 125 76 160 c 2,24,-1
 121 371 l 1,25,-1
 39 371 l 1,26,-1
 66 496 l 1,27,-1
 148 496 l 1,28,-1
 174 620 l 1,29,-1
 339 620 l 1,30,-1
 313 496 l 1,31,-1
 421 496 l 1,32,-1
 394 371 l 1,33,-1
 286 371 l 1,34,-1
 248 194 l 2,35,36
 245 182 245 182 245 173 c 0,37,38
 245 151 245 151 261 142 c 128,-1,39
 277 133 277 133 314 133 c 2,40,-1
 343 133 l 1,41,-1
 315 0 l 1,42,-1
 265 0 l 1,43,-1
 214 1 l 1,44,-1
 174 -47 l 1,45,46
 179 -46 179 -46 189 -46 c 0,47,48
 228 -46 228 -46 255 -62.5 c 128,-1,49
 282 -79 282 -79 282 -108 c 0,50,51
 282 -149 282 -149 248 -168.5 c 128,-1,52
 214 -188 214 -188 161 -188 c 0,53,0
 101 -188 101 -188 52 -168 c 1,1,-1
EndSplineSet
Substitution2: "'locl' Localized Forms in Latin lookup 4 subtable" uni021B
AlternateSubs2: "'aalt' Access All Alternates in Latin lookup 0 subtable" uni021B
EndChar
StartChar: Uring
Encoding: 366 366 95
Width: 690
GlyphClass: 2
Flags: W
AnchorPoint: "Anchor-3" 743 668 basechar 0
AnchorPoint: "Anchor-2" 531 10 basechar 0
AnchorPoint: "Anchor-1" 488 920 basechar 0
AnchorPoint: "Anchor-0" 293 0 basechar 0
LayerCount: 2
Fore
SplineSet
133 35 m 128,-1,1
 55 82 55 82 55 208 c 0,2,3
 55 255 55 255 67 313 c 2,4,-1
 143 668 l 1,5,-1
 313 668 l 1,6,-1
 231 277 l 2,7,8
 225 246 225 246 225 222 c 0,9,10
 225 172 225 172 253.5 149 c 128,-1,11
 282 126 282 126 343 126 c 0,12,13
 400 126 400 126 427.5 160.5 c 128,-1,14
 455 195 455 195 471 268 c 2,15,-1
 555 668 l 1,16,-1
 725 668 l 1,17,-1
 640 264 l 2,18,19
 610 122 610 122 539 55 c 128,-1,20
 468 -12 468 -12 335 -12 c 0,21,0
 211 -12 211 -12 133 35 c 128,-1,1
369.5 670 m 128,-1,23
 338 688 338 688 319 719.5 c 128,-1,24
 300 751 300 751 300 788 c 256,25,26
 300 825 300 825 319 856.5 c 128,-1,27
 338 888 338 888 369.5 906 c 128,-1,28
 401 924 401 924 438 924 c 256,29,30
 475 924 475 924 506.5 906 c 128,-1,31
 538 888 538 888 557 856.5 c 128,-1,32
 576 825 576 825 576 788 c 256,33,34
 576 751 576 751 557 719.5 c 128,-1,35
 538 688 538 688 506.5 670 c 128,-1,36
 475 652 475 652 438 652 c 256,37,22
 401 652 401 652 369.5 670 c 128,-1,23
471 755.5 m 128,-1,39
 484 769 484 769 484 788 c 0,40,41
 484 808 484 808 471 821 c 128,-1,42
 458 834 458 834 438 834 c 0,43,44
 419 834 419 834 405.5 821 c 128,-1,45
 392 808 392 808 392 788 c 0,46,47
 392 769 392 769 405.5 755.5 c 128,-1,48
 419 742 419 742 438 742 c 0,49,38
 458 742 458 742 471 755.5 c 128,-1,39
EndSplineSet
EndChar
StartChar: Uogonek
Encoding: 370 370 94
Width: 690
GlyphClass: 2
Flags: W
AnchorPoint: "Anchor-3" 743 668 basechar 0
AnchorPoint: "Anchor-1" 434 668 basechar 0
AnchorPoint: "Anchor-0" 293 0 basechar 0
LayerCount: 2
Fore
SplineSet
330.5 -152 m 128,-1,1
 280 -130 280 -130 280 -83 c 0,2,3
 280 -47 280 -47 317 -12 c 1,4,5
 188 -12 188 -12 121.5 43.5 c 128,-1,6
 55 99 55 99 55 210 c 0,7,8
 55 256 55 256 67 313 c 2,9,-1
 143 668 l 1,10,-1
 313 668 l 1,11,-1
 231 277 l 2,12,13
 225 246 225 246 225 222 c 0,14,15
 225 172 225 172 253.5 149 c 128,-1,16
 282 126 282 126 343 126 c 0,17,18
 400 126 400 126 427.5 160.5 c 128,-1,19
 455 195 455 195 471 268 c 2,20,-1
 555 668 l 1,21,-1
 725 668 l 1,22,-1
 640 264 l 2,23,24
 623 184 623 184 595 129.5 c 128,-1,25
 567 75 567 75 524 42 c 1,26,-1
 496 24 l 2,27,28
 458 0 458 0 439 -18 c 128,-1,29
 420 -36 420 -36 420 -61 c 0,30,31
 420 -77 420 -77 432.5 -86 c 128,-1,32
 445 -95 445 -95 467 -95 c 0,33,34
 486 -95 486 -95 510 -91 c 1,35,-1
 493 -172 l 1,36,37
 478 -174 478 -174 457 -174 c 0,38,0
 381 -174 381 -174 330.5 -152 c 128,-1,1
EndSplineSet
EndChar
StartChar: uogonek
Encoding: 371 371 205
Width: 580
GlyphClass: 2
Flags: W
AnchorPoint: "Anchor-3" 610 496 basechar 0
AnchorPoint: "Anchor-1" 343 496 basechar 0
AnchorPoint: "Anchor-0" 238 0 basechar 0
LayerCount: 2
Fore
SplineSet
66.5 24.5 m 128,-1,1
 30 61 30 61 30 129 c 0,2,3
 30 159 30 159 38 199 c 2,4,-1
 101 496 l 1,5,-1
 266 496 l 1,6,-1
 208 223 l 2,7,8
 203 196 203 196 203 179 c 0,9,10
 203 114 203 114 260 114 c 0,11,12
 303 114 303 114 327.5 146.5 c 128,-1,13
 352 179 352 179 366 247 c 2,14,-1
 418 496 l 1,15,-1
 583 496 l 1,16,-1
 478 0 l 1,17,18
 430 -7 430 -7 398.5 -26 c 128,-1,19
 367 -45 367 -45 367 -67 c 0,20,21
 367 -81 367 -81 379.5 -88 c 128,-1,22
 392 -95 392 -95 412 -95 c 0,23,24
 436 -95 436 -95 458 -91 c 1,25,-1
 441 -172 l 1,26,27
 425 -176 425 -176 399 -176 c 0,28,29
 330 -176 330 -176 277.5 -154.5 c 128,-1,30
 225 -133 225 -133 225 -89 c 0,31,32
 225 -56 225 -56 255.5 -30.5 c 128,-1,33
 286 -5 286 -5 330 13 c 1,34,-1
 326 63 l 1,35,36
 302 30 302 30 262.5 9 c 128,-1,37
 223 -12 223 -12 172 -12 c 0,38,0
 103 -12 103 -12 66.5 24.5 c 128,-1,1
EndSplineSet
EndChar
StartChar: florin
Encoding: 402 402 295
Width: 400
GlyphClass: 1
Flags: W
LayerCount: 2
Fore
SplineSet
-67 -164 m 1,1,-1
 -37 -20 l 1,2,3
 -21 -22 -21 -22 -11 -22 c 0,4,5
 26 -22 26 -22 39 -6.5 c 128,-1,6
 52 9 52 9 60 51 c 2,7,-1
 128 372 l 1,8,-1
 46 372 l 1,9,-1
 73 496 l 1,10,-1
 155 496 l 1,11,-1
 172 579 l 2,12,13
 185 638 185 638 213.5 671.5 c 128,-1,14
 242 705 242 705 288.5 719 c 128,-1,15
 335 733 335 733 407 733 c 2,16,-1
 478 733 l 1,17,-1
 451 603 l 1,18,-1
 411 603 l 2,19,20
 368 603 368 603 353 595.5 c 128,-1,21
 338 588 338 588 333 563 c 2,22,-1
 319 496 l 1,23,-1
 428 496 l 1,24,-1
 401 372 l 1,25,-1
 292 372 l 1,26,-1
 210 -14 l 2,27,28
 192 -97 192 -97 144.5 -134.5 c 128,-1,29
 97 -172 97 -172 14 -172 c 0,30,0
 -35 -172 -35 -172 -67 -164 c 1,1,-1
EndSplineSet
EndChar
StartChar: uni0237
Encoding: 567 567 159
Width: 266
GlyphClass: 2
Flags: W
AnchorPoint: "Anchor-1" 185 496 basechar 0
AnchorPoint: "Anchor-0" 26 -251 basechar 0
LayerCount: 2
Fore
SplineSet
-130 -33 m 1,0,-1
 -64 -33 l 2,1,2
 -32 -33 -32 -33 -19.5 -25 c 128,-1,3
 -7 -17 -7 -17 -1 11 c 2,4,-1
 102 496 l 1,5,-1
 267 496 l 1,6,-1
 155 -34 l 2,7,8
 138 -112 138 -112 88 -137 c 128,-1,9
 38 -162 38 -162 -40 -162 c 2,10,-1
 -158 -162 l 1,11,-1
 -130 -33 l 1,0,-1
EndSplineSet
EndChar
StartChar: uni02C9
Encoding: 713 713 374
Width: 391
GlyphClass: 1
Flags: W
LayerCount: 2
Fore
SplineSet
128 644 m 1,0,-1
 431 644 l 1,1,-1
 409 540 l 1,2,-1
 106 540 l 1,3,-1
 128 644 l 1,0,-1
EndSplineSet
EndChar
StartChar: acutecomb
Encoding: 769 769 351
Width: 0
GlyphClass: 4
Flags: W
AnchorPoint: "Anchor-5" 212 731 basemark 0
AnchorPoint: "Anchor-5" 162 496 mark 0
AnchorPoint: "Anchor-1" 162 496 mark 0
LayerCount: 2
Fore
SplineSet
276 723 m 128,-1,1
 291 731 291 731 312 731 c 0,2,3
 337 731 337 731 351 718.5 c 128,-1,4
 365 706 365 706 365 686 c 0,5,6
 365 664 365 664 351.5 647 c 128,-1,7
 338 630 338 630 313 616 c 2,8,-1
 246 575 l 1,9,-1
 114 575 l 1,10,-1
 241 696 l 2,11,0
 261 715 261 715 276 723 c 128,-1,1
EndSplineSet
Substitution2: "Single Substitution lookup 13 subtable" acutecomb.case
Substitution2: "'case' Case-Sensitive Forms in Latin lookup 11 subtable" acutecomb.case
AlternateSubs2: "'aalt' Access All Alternates in Latin lookup 0 subtable" acutecomb.case
EndChar
StartChar: uni0302
Encoding: 770 770 356
Width: 0
GlyphClass: 4
Flags: W
AnchorPoint: "Anchor-5" 350 732 basemark 0
AnchorPoint: "Anchor-5" 300 496 mark 0
AnchorPoint: "Anchor-1" 300 496 mark 0
LayerCount: 2
Fore
SplineSet
350 732 m 0,1,2
 379 732 379 732 397 712 c 2,3,-1
 519 574 l 1,4,-1
 390 574 l 1,5,-1
 335 635 l 1,6,-1
 253 574 l 1,7,-1
 113 574 l 1,8,-1
 296 712 l 2,9,0
 323 732 323 732 350 732 c 0,1,2
EndSplineSet
Substitution2: "Single Substitution lookup 13 subtable" uni0302.case
Substitution2: "'case' Case-Sensitive Forms in Latin lookup 11 subtable" uni0302.case
AlternateSubs2: "'aalt' Access All Alternates in Latin lookup 0 subtable" uni0302.case
EndChar
StartChar: tildecomb
Encoding: 771 771 364
Width: 0
GlyphClass: 4
Flags: W
AnchorPoint: "Anchor-5" 327 690 basemark 0
AnchorPoint: "Anchor-5" 286 496 mark 0
AnchorPoint: "Anchor-1" 286 496 mark 0
LayerCount: 2
Fore
SplineSet
331.5 574 m 128,-1,1
 315 580 315 580 295 591 c 0,2,3
 274 605 274 605 257 605 c 0,4,5
 221 605 221 605 206 573 c 1,6,-1
 113 573 l 1,7,8
 134 630 134 630 173 660 c 128,-1,9
 212 690 212 690 267 690 c 0,10,11
 291 690 291 690 305.5 684 c 128,-1,12
 320 678 320 678 338 667 c 0,13,14
 352 658 352 658 361 654 c 128,-1,15
 370 650 370 650 382 650 c 0,16,17
 405 650 405 650 430 670 c 0,18,19
 454 691 454 691 472 691 c 0,20,21
 488 691 488 691 498 681.5 c 128,-1,22
 508 672 508 672 508 658 c 0,23,24
 508 635 508 635 487 614 c 128,-1,25
 466 593 466 593 435 580.5 c 128,-1,26
 404 568 404 568 376 568 c 256,27,0
 348 568 348 568 331.5 574 c 128,-1,1
EndSplineSet
Substitution2: "Single Substitution lookup 13 subtable" tildecomb.case
Substitution2: "'case' Case-Sensitive Forms in Latin lookup 11 subtable" tildecomb.case
AlternateSubs2: "'aalt' Access All Alternates in Latin lookup 0 subtable" tildecomb.case
EndChar
StartChar: uni0306
Encoding: 774 774 360
Width: 0
GlyphClass: 4
Flags: W
AnchorPoint: "Anchor-5" 288 689 basemark 0
AnchorPoint: "Anchor-5" 247 496 mark 0
AnchorPoint: "Anchor-1" 247 496 mark 0
LayerCount: 2
Fore
SplineSet
175.5 595.5 m 128,-1,1
 141 630 141 630 138 689 c 1,2,-1
 225 689 l 1,3,4
 229 669 229 669 245 658.5 c 128,-1,5
 261 648 261 648 283 648 c 0,6,7
 309 648 309 648 328 661 c 128,-1,8
 347 674 347 674 349 689 c 1,9,-1
 439 689 l 1,10,11
 421 630 421 630 377 595.5 c 128,-1,12
 333 561 333 561 271 561 c 0,13,0
 210 561 210 561 175.5 595.5 c 128,-1,1
EndSplineSet
Substitution2: "Single Substitution lookup 13 subtable" uni0306.case
Substitution2: "'case' Case-Sensitive Forms in Latin lookup 11 subtable" uni0306.case
AlternateSubs2: "'aalt' Access All Alternates in Latin lookup 0 subtable" uni0306.case
EndChar
StartChar: uni0307
Encoding: 775 775 346
Width: 0
GlyphClass: 4
Flags: W
AnchorPoint: "Anchor-5" 227 727 basemark 0
AnchorPoint: "Anchor-5" 178 496 mark 0
AnchorPoint: "Anchor-1" 178 496 mark 0
LayerCount: 2
Fore
SplineSet
154.5 592.5 m 128,-1,1
 131 616 131 616 131 648 c 256,2,3
 131 680 131 680 154.5 703.5 c 128,-1,4
 178 727 178 727 210 727 c 256,5,6
 242 727 242 727 265.5 703.5 c 128,-1,7
 289 680 289 680 289 648 c 256,8,9
 289 616 289 616 265.5 592.5 c 128,-1,10
 242 569 242 569 210 569 c 256,11,0
 178 569 178 569 154.5 592.5 c 128,-1,1
EndSplineSet
Substitution2: "Single Substitution lookup 13 subtable" uni0307.case
Substitution2: "'case' Case-Sensitive Forms in Latin lookup 11 subtable" uni0307.case
AlternateSubs2: "'aalt' Access All Alternates in Latin lookup 0 subtable" uni0307.case
EndChar
StartChar: uni030A
Encoding: 778 778 362
Width: 0
GlyphClass: 4
Flags: W
AnchorPoint: "Anchor-5" 306 799 basemark 0
AnchorPoint: "Anchor-5" 241 496 mark 0
AnchorPoint: "Anchor-1" 241 496 mark 0
LayerCount: 2
Fore
SplineSet
201.5 554.5 m 128,-1,1
 171 572 171 572 153.5 602 c 128,-1,2
 136 632 136 632 136 668 c 256,3,4
 136 704 136 704 153.5 734 c 128,-1,5
 171 764 171 764 201.5 781.5 c 128,-1,6
 232 799 232 799 268 799 c 256,7,8
 304 799 304 799 334.5 781.5 c 128,-1,9
 365 764 365 764 382.5 734 c 128,-1,10
 400 704 400 704 400 668 c 256,11,12
 400 632 400 632 382.5 602 c 128,-1,13
 365 572 365 572 334.5 554.5 c 128,-1,14
 304 537 304 537 268 537 c 256,15,0
 232 537 232 537 201.5 554.5 c 128,-1,1
301 633.5 m 128,-1,17
 315 648 315 648 315 668 c 256,18,19
 315 688 315 688 301 702.5 c 128,-1,20
 287 717 287 717 268 717 c 256,21,22
 249 717 249 717 235 702.5 c 128,-1,23
 221 688 221 688 221 668 c 256,24,25
 221 648 221 648 235 633.5 c 128,-1,26
 249 619 249 619 268 619 c 256,27,16
 287 619 287 619 301 633.5 c 128,-1,17
EndSplineSet
Substitution2: "Single Substitution lookup 13 subtable" uni030A.case
Substitution2: "'case' Case-Sensitive Forms in Latin lookup 11 subtable" uni030A.case
AlternateSubs2: "'aalt' Access All Alternates in Latin lookup 0 subtable" uni030A.case
EndChar
StartChar: uni030B
Encoding: 779 779 353
Width: 0
GlyphClass: 4
Flags: W
AnchorPoint: "Anchor-5" 417 731 basemark 0
AnchorPoint: "Anchor-5" 273 496 mark 0
AnchorPoint: "Anchor-1" 273 496 mark 0
LayerCount: 2
Fore
SplineSet
274 723 m 128,-1,1
 289 731 289 731 309 731 c 0,2,3
 335 731 335 731 349 718.5 c 128,-1,4
 363 706 363 706 363 686 c 0,5,6
 363 665 363 665 348 648 c 128,-1,7
 333 631 333 631 308 616 c 2,8,-1
 243 575 l 1,9,-1
 114 575 l 1,10,-1
 239 696 l 2,11,0
 259 715 259 715 274 723 c 128,-1,1
489 723 m 128,-1,13
 504 731 504 731 524 731 c 0,14,15
 550 731 550 731 564 718.5 c 128,-1,16
 578 706 578 706 578 686 c 0,17,18
 578 665 578 665 563 648 c 128,-1,19
 548 631 548 631 523 616 c 2,20,-1
 458 575 l 1,21,-1
 329 575 l 1,22,-1
 454 696 l 2,23,12
 474 715 474 715 489 723 c 128,-1,13
EndSplineSet
Substitution2: "Single Substitution lookup 13 subtable" uni030B.case
Substitution2: "'case' Case-Sensitive Forms in Latin lookup 11 subtable" uni030B.case
AlternateSubs2: "'aalt' Access All Alternates in Latin lookup 0 subtable" uni030B.case
EndChar
StartChar: uni0312
Encoding: 786 786 368
Width: 0
GlyphClass: 4
Flags: W
AnchorPoint: "Anchor-5" 272 774 basemark 0
AnchorPoint: "Anchor-5" 216 496 mark 0
AnchorPoint: "Anchor-1" 216 496 mark 0
LayerCount: 2
Fore
SplineSet
134 659 m 0,1,2
 134 718 134 718 184 746 c 128,-1,3
 234 774 234 774 304 774 c 0,4,5
 323 774 323 774 333 773 c 1,6,-1
 376 721 l 1,7,8
 331 724 331 724 295.5 711 c 128,-1,9
 260 698 260 698 260 661 c 0,10,11
 260 642 260 642 273.5 627.5 c 128,-1,12
 287 613 287 613 309 604 c 1,13,-1
 205 568 l 1,14,0
 134 604 134 604 134 659 c 0,1,2
EndSplineSet
EndChar
StartChar: uni0326
Encoding: 806 806 369
Width: 0
GlyphClass: 4
Flags: W
AnchorPoint: "Anchor-4" 55 -251 basemark 0
AnchorPoint: "Anchor-4" 108 0 mark 0
AnchorPoint: "Anchor-0" 108 0 mark 0
LayerCount: 2
Fore
SplineSet
29.5 -188 m 128,-1,1
 65 -175 65 -175 65 -138 c 0,2,3
 65 -119 65 -119 51.5 -104.5 c 128,-1,4
 38 -90 38 -90 16 -81 c 1,5,-1
 120 -45 l 1,6,7
 191 -81 191 -81 191 -136 c 0,8,9
 191 -195 191 -195 141 -223 c 128,-1,10
 91 -251 91 -251 21 -251 c 0,11,12
 2 -251 2 -251 -8 -250 c 1,13,-1
 -51 -198 l 1,14,0
 -6 -201 -6 -201 29.5 -188 c 128,-1,1
EndSplineSet
EndChar
StartChar: uni0327
Encoding: 807 807 370
Width: 0
GlyphClass: 4
Flags: W
AnchorPoint: "Anchor-4" 48 -188 basemark 0
AnchorPoint: "Anchor-4" 88 0 mark 0
AnchorPoint: "Anchor-0" 88 0 mark 0
LayerCount: 2
Fore
SplineSet
-44 -168 m 1,1,-1
 -18 -118 l 1,2,3
 -8 -124 -8 -124 12 -130 c 128,-1,4
 32 -136 32 -136 50 -136 c 0,5,6
 65 -136 65 -136 75.5 -129 c 128,-1,7
 86 -122 86 -122 86 -108 c 0,8,9
 86 -98 86 -98 78 -91.5 c 128,-1,10
 70 -85 70 -85 57 -85 c 256,11,12
 44 -85 44 -85 32 -87 c 256,13,14
 20 -89 20 -89 13.5 -84.5 c 128,-1,15
 7 -80 7 -80 7 -71 c 0,16,17
 7 -61 7 -61 14 -53 c 2,18,-1
 82 29 l 1,19,-1
 119 3 l 1,20,-1
 78 -47 l 1,21,22
 83 -46 83 -46 93 -46 c 0,23,24
 132 -46 132 -46 159 -62.5 c 128,-1,25
 186 -79 186 -79 186 -108 c 0,26,27
 186 -149 186 -149 152 -168.5 c 128,-1,28
 118 -188 118 -188 65 -188 c 0,29,0
 5 -188 5 -188 -44 -168 c 1,1,-1
EndSplineSet
EndChar
StartChar: uni0328
Encoding: 808 808 371
Width: 0
GlyphClass: 4
Flags: W
AnchorPoint: "Anchor-2" 229 10 mark 0
LayerCount: 2
Fore
SplineSet
26.5 -154.5 m 128,-1,1
 -26 -133 -26 -133 -26 -89 c 0,2,3
 -26 -54 -26 -54 8.5 -27.5 c 128,-1,4
 43 -1 43 -1 90 17 c 1,5,-1
 227 0 l 1,6,7
 179 -7 179 -7 147.5 -26 c 128,-1,8
 116 -45 116 -45 116 -67 c 0,9,10
 116 -81 116 -81 128.5 -88 c 128,-1,11
 141 -95 141 -95 161 -95 c 0,12,13
 185 -95 185 -95 207 -91 c 1,14,-1
 190 -172 l 1,15,16
 174 -176 174 -176 148 -176 c 0,17,0
 79 -176 79 -176 26.5 -154.5 c 128,-1,1
EndSplineSet
Substitution2: "Single Substitution lookup 13 subtable" uni0328.case
Substitution2: "'case' Case-Sensitive Forms in Latin lookup 11 subtable" uni0328.case
AlternateSubs2: "'aalt' Access All Alternates in Latin lookup 0 subtable" uni0328.case
EndChar
StartChar: uni0394
Encoding: 916 916 225
Width: 702
GlyphClass: 1
Flags: W
LayerCount: 2
Fore
SplineSet
346 668 m 1,0,-1
 533 668 l 1,1,-1
 645 0 l 1,2,-1
 -49 0 l 1,3,-1
 346 668 l 1,0,-1
447 137 m 1,4,-1
 405 487 l 1,5,-1
 215 137 l 1,6,-1
 447 137 l 1,4,-1
EndSplineSet
EndChar
StartChar: uni03A9
Encoding: 937 937 226
Width: 642
GlyphClass: 1
Flags: W
LayerCount: 2
Fore
SplineSet
1 121 m 1,0,-1
 136 121 l 1,1,-1
 141 145 l 1,2,3
 101 174 101 174 78.5 229.5 c 128,-1,4
 56 285 56 285 56 349 c 0,5,6
 56 438 56 438 96.5 513.5 c 128,-1,7
 137 589 137 589 211 634.5 c 128,-1,8
 285 680 285 680 381 680 c 0,9,10
 460 680 460 680 521 644.5 c 128,-1,11
 582 609 582 609 615 551 c 128,-1,12
 648 493 648 493 648 426 c 0,13,14
 648 337 648 337 596.5 264 c 128,-1,15
 545 191 545 191 458 141 c 1,16,-1
 453 121 l 1,17,-1
 587 121 l 1,18,-1
 562 0 l 1,19,-1
 288 0 l 1,20,-1
 337 232 l 1,21,22
 387 238 387 238 428 265 c 128,-1,23
 469 292 469 292 492.5 332.5 c 128,-1,24
 516 373 516 373 516 417 c 0,25,26
 516 454 516 454 498 486 c 128,-1,27
 480 518 480 518 446 537 c 128,-1,28
 412 556 412 556 368 556 c 0,29,30
 312 556 312 556 271.5 529.5 c 128,-1,31
 231 503 231 503 210 460.5 c 128,-1,32
 189 418 189 418 189 373 c 0,33,34
 189 319 189 319 219.5 279 c 128,-1,35
 250 239 250 239 299 232 c 1,36,-1
 250 0 l 1,37,-1
 -24 0 l 1,38,-1
 1 121 l 1,0,-1
EndSplineSet
EndChar
StartChar: uni03BC
Encoding: 956 956 227
Width: 634
GlyphClass: 1
Flags: W
LayerCount: 2
Fore
SplineSet
102 496 m 1,0,-1
 267 496 l 1,1,-1
 209 223 l 2,2,3
 204 196 204 196 204 179 c 0,4,5
 204 114 204 114 261 114 c 0,6,7
 304 114 304 114 328.5 146.5 c 128,-1,8
 353 179 353 179 367 247 c 2,9,-1
 419 496 l 1,10,-1
 585 496 l 1,11,-1
 522 198 l 2,12,13
 517 175 517 175 517 164 c 0,14,15
 517 145 517 145 528.5 138.5 c 128,-1,16
 540 132 540 132 567 132 c 2,17,-1
 587 132 l 1,18,-1
 559 0 l 1,19,-1
 465 0 l 2,20,21
 402 0 402 0 374.5 15.5 c 128,-1,22
 347 31 347 31 339 60 c 1,23,24
 318 28 318 28 282 8 c 128,-1,25
 246 -12 246 -12 200 -12 c 0,26,27
 184 -12 184 -12 160 -8 c 1,28,-1
 127 -162 l 1,29,-1
 -38 -162 l 1,30,-1
 102 496 l 1,0,-1
EndSplineSet
EndChar
StartChar: pi
Encoding: 960 960 228
Width: 643
GlyphClass: 1
Flags: W
LayerCount: 2
Fore
SplineSet
132 374 m 1,0,-1
 40 374 l 1,1,-1
 66 496 l 1,2,-1
 666 496 l 1,3,-1
 640 374 l 1,4,-1
 551 374 l 1,5,-1
 505 159 l 1,6,-1
 503 143 l 2,7,8
 503 125 503 125 516.5 118 c 128,-1,9
 530 111 530 111 561 111 c 2,10,-1
 584 111 l 1,11,-1
 560 0 l 1,12,-1
 504 0 l 2,13,14
 426 0 426 0 391.5 20 c 128,-1,15
 357 40 357 40 357 87 c 0,16,17
 357 107 357 107 363 132 c 2,18,-1
 415 374 l 1,19,-1
 269 374 l 1,20,-1
 189 0 l 1,21,-1
 52 0 l 1,22,-1
 132 374 l 1,0,-1
EndSplineSet
EndChar
StartChar: uni1E9E
Encoding: 7838 7838 82
Width: 695
GlyphClass: 1
Flags: W
LayerCount: 2
Fore
SplineSet
304.5 20.5 m 128,-1,1
 253 53 253 53 235 113 c 1,2,-1
 367 158 l 1,3,4
 380 120 380 120 424 120 c 0,5,6
 462 120 462 120 481.5 148.5 c 128,-1,7
 501 177 501 177 501 211 c 0,8,9
 501 240 501 240 483.5 256.5 c 128,-1,10
 466 273 466 273 436 273 c 0,11,12
 421 273 421 273 404 270 c 1,13,-1
 370 368 l 1,14,-1
 529 539 l 1,15,16
 469 550 469 550 418 550 c 0,17,18
 287 550 287 550 259 419 c 2,19,-1
 170 0 l 1,20,-1
 0 0 l 1,21,-1
 101 475 l 2,22,23
 122 577 122 577 188 628.5 c 128,-1,24
 254 680 254 680 386 680 c 0,25,26
 453 680 453 680 523.5 671.5 c 128,-1,27
 594 663 594 663 696 636 c 1,28,-1
 669 507 l 1,29,-1
 542 369 l 1,30,31
 598 354 598 354 631.5 314.5 c 128,-1,32
 665 275 665 275 665 213 c 256,33,34
 665 151 665 151 632 99.5 c 128,-1,35
 599 48 599 48 544.5 18 c 128,-1,36
 490 -12 490 -12 427 -12 c 0,37,0
 356 -12 356 -12 304.5 20.5 c 128,-1,1
EndSplineSet
EndChar
StartChar: endash
Encoding: 8211 8211 274
Width: 498
GlyphClass: 1
Flags: W
LayerCount: 2
Fore
SplineSet
49 318 m 1,0,-1
 480 318 l 1,1,-1
 450 181 l 1,2,-1
 19 181 l 1,3,-1
 49 318 l 1,0,-1
EndSplineSet
EndChar
StartChar: emdash
Encoding: 8212 8212 275
Width: 835
GlyphClass: 1
Flags: W
LayerCount: 2
Fore
SplineSet
49 318 m 1,0,-1
 817 318 l 1,1,-1
 787 181 l 1,2,-1
 19 181 l 1,3,-1
 49 318 l 1,0,-1
EndSplineSet
EndChar
StartChar: quoteleft
Encoding: 8216 8216 287
Width: 285
GlyphClass: 1
Flags: W
LayerCount: 2
Fore
SplineSet
107 354 m 128,-1,1
 77 383 77 383 77 423 c 0,2,3
 77 441 77 441 83 458 c 128,-1,4
 89 475 89 475 102 497 c 2,5,-1
 212 668 l 1,6,-1
 310 668 l 1,7,-1
 219 525 l 1,8,9
 246 514 246 514 265 488 c 128,-1,10
 284 462 284 462 284 428 c 0,11,12
 284 385 284 385 253.5 355 c 128,-1,13
 223 325 223 325 180 325 c 256,14,0
 137 325 137 325 107 354 c 128,-1,1
EndSplineSet
EndChar
StartChar: quoteright
Encoding: 8217 8217 288
Width: 285
GlyphClass: 1
Flags: W
LayerCount: 2
Fore
SplineSet
128 515 m 128,-1,1
 109 541 109 541 109 575 c 0,2,3
 109 618 109 618 139.5 648 c 128,-1,4
 170 678 170 678 213 678 c 256,5,6
 256 678 256 678 286 649 c 128,-1,7
 316 620 316 620 316 580 c 0,8,9
 316 562 316 562 310 545 c 128,-1,10
 304 528 304 528 291 506 c 2,11,-1
 181 335 l 1,12,-1
 83 335 l 1,13,-1
 174 478 l 1,14,0
 147 489 147 489 128 515 c 128,-1,1
EndSplineSet
EndChar
StartChar: quotesinglbase
Encoding: 8218 8218 283
Width: 285
GlyphClass: 1
Flags: W
LayerCount: 2
Fore
SplineSet
25 32 m 128,-1,1
 6 58 6 58 6 92 c 0,2,3
 6 135 6 135 36.5 165 c 128,-1,4
 67 195 67 195 110 195 c 256,5,6
 153 195 153 195 183 166 c 128,-1,7
 213 137 213 137 213 97 c 0,8,9
 213 79 213 79 207 62 c 128,-1,10
 201 45 201 45 188 23 c 2,11,-1
 78 -148 l 1,12,-1
 -20 -148 l 1,13,-1
 71 -5 l 1,14,0
 44 6 44 6 25 32 c 128,-1,1
EndSplineSet
EndChar
StartChar: quotedblleft
Encoding: 8220 8220 285
Width: 518
GlyphClass: 1
Flags: W
LayerCount: 2
Fore
SplineSet
340 354 m 128,-1,1
 310 383 310 383 310 423 c 0,2,3
 310 441 310 441 316 458 c 128,-1,4
 322 475 322 475 335 497 c 2,5,-1
 445 668 l 1,6,-1
 543 668 l 1,7,-1
 452 525 l 1,8,9
 479 514 479 514 498 488 c 128,-1,10
 517 462 517 462 517 428 c 0,11,12
 517 385 517 385 486.5 355 c 128,-1,13
 456 325 456 325 413 325 c 256,14,0
 370 325 370 325 340 354 c 128,-1,1
107 354 m 128,-1,16
 77 383 77 383 77 423 c 0,17,18
 77 441 77 441 83 458 c 128,-1,19
 89 475 89 475 102 497 c 2,20,-1
 212 668 l 1,21,-1
 310 668 l 1,22,-1
 219 525 l 1,23,24
 246 514 246 514 265 488 c 128,-1,25
 284 462 284 462 284 428 c 0,26,27
 284 385 284 385 253.5 355 c 128,-1,28
 223 325 223 325 180 325 c 256,29,15
 137 325 137 325 107 354 c 128,-1,16
EndSplineSet
EndChar
StartChar: quotedblright
Encoding: 8221 8221 286
Width: 518
GlyphClass: 1
Flags: W
LayerCount: 2
Fore
SplineSet
361 517 m 128,-1,1
 342 543 342 543 342 577 c 0,2,3
 342 620 342 620 372.5 650 c 128,-1,4
 403 680 403 680 446 680 c 256,5,6
 489 680 489 680 519 651 c 128,-1,7
 549 622 549 622 549 582 c 0,8,9
 549 564 549 564 543 547 c 128,-1,10
 537 530 537 530 524 508 c 2,11,-1
 414 337 l 1,12,-1
 316 337 l 1,13,-1
 407 480 l 1,14,0
 380 491 380 491 361 517 c 128,-1,1
128 517 m 128,-1,16
 109 543 109 543 109 577 c 0,17,18
 109 620 109 620 139.5 650 c 128,-1,19
 170 680 170 680 213 680 c 256,20,21
 256 680 256 680 286 651 c 128,-1,22
 316 622 316 622 316 582 c 0,23,24
 316 564 316 564 310 547 c 128,-1,25
 304 530 304 530 291 508 c 2,26,-1
 181 337 l 1,27,-1
 83 337 l 1,28,-1
 174 480 l 1,29,15
 147 491 147 491 128 517 c 128,-1,16
EndSplineSet
EndChar
StartChar: quotedblbase
Encoding: 8222 8222 284
Width: 518
GlyphClass: 1
Flags: W
LayerCount: 2
Fore
SplineSet
258 32 m 128,-1,1
 239 58 239 58 239 92 c 0,2,3
 239 135 239 135 269.5 165 c 128,-1,4
 300 195 300 195 343 195 c 256,5,6
 386 195 386 195 416 166 c 128,-1,7
 446 137 446 137 446 97 c 0,8,9
 446 79 446 79 440 62 c 128,-1,10
 434 45 434 45 421 23 c 2,11,-1
 311 -148 l 1,12,-1
 213 -148 l 1,13,-1
 304 -5 l 1,14,0
 277 6 277 6 258 32 c 128,-1,1
25 32 m 128,-1,16
 6 58 6 58 6 92 c 0,17,18
 6 135 6 135 36.5 165 c 128,-1,19
 67 195 67 195 110 195 c 256,20,21
 153 195 153 195 183 166 c 128,-1,22
 213 137 213 137 213 97 c 0,23,24
 213 79 213 79 207 62 c 128,-1,25
 201 45 201 45 188 23 c 2,26,-1
 78 -148 l 1,27,-1
 -20 -148 l 1,28,-1
 71 -5 l 1,29,15
 44 6 44 6 25 32 c 128,-1,16
EndSplineSet
EndChar
StartChar: dagger
Encoding: 8224 8224 307
Width: 602
GlyphClass: 1
Flags: W
LayerCount: 2
Fore
SplineSet
250 373 m 1,0,-1
 67 373 l 1,1,-1
 93 496 l 1,2,-1
 276 496 l 1,3,-1
 313 668 l 1,4,-1
 469 668 l 1,5,-1
 432 496 l 1,6,-1
 615 496 l 1,7,-1
 589 373 l 1,8,-1
 406 373 l 1,9,-1
 327 0 l 1,10,-1
 171 0 l 1,11,-1
 250 373 l 1,0,-1
EndSplineSet
EndChar
StartChar: daggerdbl
Encoding: 8225 8225 309
Width: 604
GlyphClass: 1
Flags: W
LayerCount: 2
Fore
SplineSet
209 173 m 1,0,-1
 26 173 l 1,1,-1
 52 295 l 1,2,-1
 235 295 l 1,3,-1
 251 373 l 1,4,-1
 68 373 l 1,5,-1
 94 496 l 1,6,-1
 277 496 l 1,7,-1
 314 668 l 1,8,-1
 470 668 l 1,9,-1
 433 496 l 1,10,-1
 616 496 l 1,11,-1
 590 373 l 1,12,-1
 407 373 l 1,13,-1
 391 295 l 1,14,-1
 574 295 l 1,15,-1
 548 173 l 1,16,-1
 365 173 l 1,17,-1
 328 0 l 1,18,-1
 172 0 l 1,19,-1
 209 173 l 1,0,-1
EndSplineSet
EndChar
StartChar: guilsinglright
Encoding: 8250 8250 292
Width: 414
GlyphClass: 1
Flags: W
LayerCount: 2
Fore
SplineSet
191 258 m 1,0,-1
 84 460 l 1,1,-1
 262 460 l 1,2,-1
 375 250 l 1,3,-1
 187 40 l 1,4,-1
 -5 40 l 1,5,-1
 191 258 l 1,0,-1
EndSplineSet
EndChar
StartChar: Euro
Encoding: 8364 8364 314
Width: 684
GlyphClass: 1
Flags: W
LayerCount: 2
Fore
SplineSet
240.5 20.5 m 128,-1,1
 183 53 183 53 150.5 107.5 c 128,-1,2
 118 162 118 162 110 230 c 1,3,-1
 1 230 l 1,4,-1
 60 308 l 1,5,-1
 110 308 l 1,6,7
 111 332 111 332 118 364 c 1,8,-1
 28 364 l 1,9,-1
 87 442 l 1,10,-1
 142 442 l 1,11,12
 184 546 184 546 266.5 613 c 128,-1,13
 349 680 349 680 466 680 c 0,14,15
 552 680 552 680 612.5 637.5 c 128,-1,16
 673 595 673 595 701 521 c 1,17,-1
 559 472 l 1,18,19
 545 504 545 504 515.5 522 c 128,-1,20
 486 540 486 540 449 540 c 0,21,22
 403 540 403 540 368.5 513.5 c 128,-1,23
 334 487 334 487 312 442 c 1,24,-1
 519 442 l 1,25,-1
 460 364 l 1,26,-1
 284 364 l 1,27,28
 277 336 277 336 275 308 c 1,29,-1
 417 308 l 1,30,-1
 358 230 l 1,31,-1
 277 230 l 1,32,33
 286 183 286 183 314.5 155.5 c 128,-1,34
 343 128 343 128 393 128 c 0,35,36
 477 128 477 128 513 191 c 1,37,-1
 647 138 l 1,38,39
 596 61 596 61 525 24.5 c 128,-1,40
 454 -12 454 -12 377 -12 c 0,41,0
 298 -12 298 -12 240.5 20.5 c 128,-1,1
EndSplineSet
EndChar
StartChar: uni20B9
Encoding: 8377 8377 315
Width: 664
GlyphClass: 1
Flags: W
LayerCount: 2
Fore
SplineSet
88 289 m 1,0,-1
 103 356 l 1,1,-1
 292 356 l 2,2,3
 348 356 348 356 373 407 c 1,4,-1
 113 407 l 1,5,-1
 130 485 l 1,6,-1
 385 485 l 1,7,8
 376 535 376 535 310 535 c 2,9,-1
 141 535 l 1,10,-1
 169 668 l 1,11,-1
 689 668 l 1,12,-1
 672 590 l 1,13,-1
 517 590 l 1,14,15
 551 549 551 549 554 485 c 1,16,-1
 650 485 l 1,17,-1
 633 407 l 1,18,-1
 545 407 l 1,19,20
 526 333 526 333 469.5 284.5 c 128,-1,21
 413 236 413 236 329 228 c 1,22,-1
 505 0 l 1,23,-1
 305 0 l 1,24,-1
 88 289 l 1,0,-1
EndSplineSet
EndChar
StartChar: uni2113
Encoding: 8467 8467 308
Width: 514
GlyphClass: 1
Flags: W
LayerCount: 2
Fore
SplineSet
129 25.5 m 128,-1,1
 82 63 82 63 82 130 c 0,2,3
 82 144 82 144 83 151 c 1,4,-1
 9 107 l 1,5,-1
 32 216 l 1,6,-1
 107 263 l 1,7,-1
 149 462 l 2,8,9
 195 680 195 680 365 680 c 0,10,11
 450 680 450 680 493 645 c 128,-1,12
 536 610 536 610 536 550 c 0,13,14
 536 488 536 488 496.5 436.5 c 128,-1,15
 457 385 457 385 405 349 c 128,-1,16
 353 313 353 313 271 266 c 1,17,-1
 257 200 l 2,18,19
 253 176 253 176 253 166 c 0,20,21
 253 143 253 143 265.5 130 c 128,-1,22
 278 117 278 117 308 117 c 0,23,24
 346 117 346 117 382 138 c 1,25,-1
 422 37 l 1,26,27
 393 17 393 17 351.5 2.5 c 128,-1,28
 310 -12 310 -12 260 -12 c 0,29,0
 176 -12 176 -12 129 25.5 c 128,-1,1
369.5 449.5 m 128,-1,31
 402 492 402 492 402 530 c 0,32,33
 402 548 402 548 393 557 c 128,-1,34
 384 566 384 566 368 566 c 0,35,36
 350 566 350 566 339 549.5 c 128,-1,37
 328 533 328 533 320 498 c 2,38,-1
 295 381 l 1,39,30
 337 407 337 407 369.5 449.5 c 128,-1,31
EndSplineSet
EndChar
StartChar: trademark
Encoding: 8482 8482 303
Width: 971
GlyphClass: 1
Flags: W
LayerCount: 2
Fore
SplineSet
512 668 m 1,0,-1
 694 668 l 1,1,-1
 707 441 l 1,2,-1
 817 668 l 1,3,-1
 1006 668 l 1,4,-1
 928 303 l 1,5,-1
 813 303 l 1,6,-1
 867 556 l 1,7,-1
 732 303 l 1,8,-1
 630 303 l 1,9,-1
 603 556 l 1,10,-1
 549 303 l 1,11,-1
 434 303 l 1,12,-1
 512 668 l 1,0,-1
215 569 m 1,13,-1
 94 569 l 1,14,-1
 115 668 l 1,15,-1
 474 668 l 1,16,-1
 453 569 l 1,17,-1
 332 569 l 1,18,-1
 275 303 l 1,19,-1
 158 303 l 1,20,-1
 215 569 l 1,13,-1
EndSplineSet
EndChar
StartChar: partialdiff
Encoding: 8706 8706 340
Width: 601
GlyphClass: 1
Flags: W
LayerCount: 2
Fore
SplineSet
148 12 m 128,-1,1
 94 36 94 36 63.5 81.5 c 128,-1,2
 33 127 33 127 33 189 c 0,3,4
 33 258 33 258 66 318 c 128,-1,5
 99 378 99 378 157 414 c 128,-1,6
 215 450 215 450 287 450 c 0,7,8
 345 450 345 450 389.5 424 c 128,-1,9
 434 398 434 398 450 345 c 1,10,11
 451 351 451 351 451 364 c 0,12,13
 451 457 451 457 377 502.5 c 128,-1,14
 303 548 303 548 184 553 c 1,15,-1
 210 680 l 1,16,17
 373 665 373 665 476.5 601 c 128,-1,18
 580 537 580 537 580 385 c 0,19,20
 580 300 580 300 549.5 208.5 c 128,-1,21
 519 117 519 117 449.5 52.5 c 128,-1,22
 380 -12 380 -12 271 -12 c 0,23,0
 202 -12 202 -12 148 12 c 128,-1,1
338 135.5 m 128,-1,25
 362 155 362 155 374 183.5 c 128,-1,26
 386 212 386 212 386 239 c 0,27,28
 386 277 386 277 364 299 c 128,-1,29
 342 321 342 321 304 321 c 0,30,31
 255 321 255 321 225.5 285 c 128,-1,32
 196 249 196 249 196 203 c 0,33,34
 196 166 196 166 218 141 c 128,-1,35
 240 116 240 116 279 116 c 0,36,24
 314 116 314 116 338 135.5 c 128,-1,25
EndSplineSet
EndChar
StartChar: product
Encoding: 8719 8719 337
Width: 619
GlyphClass: 1
Flags: W
LayerCount: 2
Fore
SplineSet
128 668 m 1,0,-1
 670 668 l 1,1,-1
 494 -162 l 1,2,-1
 357 -162 l 1,3,-1
 507 545 l 1,4,-1
 239 545 l 1,5,-1
 89 -162 l 1,6,-1
 -48 -162 l 1,7,-1
 128 668 l 1,0,-1
EndSplineSet
EndChar
StartChar: summation
Encoding: 8721 8721 338
Width: 623
GlyphClass: 1
Flags: W
LayerCount: 2
Fore
SplineSet
-20 -25 m 1,0,-1
 278 266 l 1,1,-1
 98 531 l 1,2,-1
 127 668 l 1,3,-1
 672 668 l 1,4,-1
 643 531 l 1,5,-1
 267 531 l 1,6,-1
 460 254 l 1,7,-1
 173 -25 l 1,8,-1
 525 -25 l 1,9,-1
 496 -162 l 1,10,-1
 -49 -162 l 1,11,-1
 -20 -25 l 1,0,-1
EndSplineSet
EndChar
StartChar: radical
Encoding: 8730 8730 339
Width: 733
GlyphClass: 1
Flags: W
LayerCount: 2
Fore
SplineSet
153 83 m 1,0,-1
 4 83 l 1,1,-1
 34 225 l 1,2,-1
 276 225 l 1,3,-1
 313 41 l 1,4,-1
 625 668 l 1,5,-1
 783 668 l 1,6,-1
 375 -162 l 1,7,-1
 209 -162 l 1,8,-1
 153 83 l 1,0,-1
EndSplineSet
EndChar
StartChar: infinity
Encoding: 8734 8734 335
Width: 746
GlyphClass: 1
Flags: W
LayerCount: 2
Fore
SplineSet
117.5 115.5 m 128,-1,1
 82 135 82 135 61.5 168.5 c 128,-1,2
 41 202 41 202 41 242 c 0,3,4
 41 288 41 288 66 328 c 128,-1,5
 91 368 91 368 135.5 392 c 128,-1,6
 180 416 180 416 235 416 c 0,7,8
 276 416 276 416 314.5 400.5 c 128,-1,9
 353 385 353 385 387 340 c 1,10,11
 473 416 473 416 553 416 c 0,12,13
 596 416 596 416 631.5 396.5 c 128,-1,14
 667 377 667 377 687.5 343.5 c 128,-1,15
 708 310 708 310 708 270 c 0,16,17
 708 224 708 224 683 184 c 128,-1,18
 658 144 658 144 613.5 120 c 128,-1,19
 569 96 569 96 514 96 c 0,20,21
 473 96 473 96 434.5 111.5 c 128,-1,22
 396 127 396 127 362 172 c 1,23,24
 276 96 276 96 196 96 c 0,25,0
 153 96 153 96 117.5 115.5 c 128,-1,1
261.5 223 m 128,-1,27
 282 237 282 237 305 261 c 1,28,29
 278 303 278 303 231 303 c 0,30,31
 201 303 201 303 185.5 288 c 128,-1,32
 170 273 170 273 170 250 c 0,33,34
 170 231 170 231 184.5 220 c 128,-1,35
 199 209 199 209 217 209 c 0,36,26
 241 209 241 209 261.5 223 c 128,-1,27
563.5 224 m 128,-1,38
 579 239 579 239 579 262 c 0,39,40
 579 281 579 281 564.5 292 c 128,-1,41
 550 303 550 303 532 303 c 0,42,43
 508 303 508 303 487.5 289 c 128,-1,44
 467 275 467 275 444 251 c 1,45,46
 471 209 471 209 518 209 c 0,47,37
 548 209 548 209 563.5 224 c 128,-1,38
EndSplineSet
EndChar
StartChar: integral
Encoding: 8747 8747 336
Width: 491
GlyphClass: 1
Flags: W
LayerCount: 2
Fore
SplineSet
-5.5 -152.5 m 128,-1,1
 -38 -131 -38 -131 -38 -93 c 0,2,3
 -38 -67 -38 -67 -19.5 -45.5 c 128,-1,4
 -1 -24 -1 -24 30 -24 c 0,5,6
 54 -24 54 -24 69 -37 c 128,-1,7
 84 -50 84 -50 84 -74 c 0,8,9
 84 -85 84 -85 79 -102 c 1,10,11
 91 -94 91 -94 98.5 -75.5 c 128,-1,12
 106 -57 106 -57 115 -18 c 2,13,-1
 217 433 l 2,14,15
 246 564 246 564 301 622 c 128,-1,16
 356 680 356 680 425 680 c 0,17,18
 467 680 467 680 499.5 658.5 c 128,-1,19
 532 637 532 637 532 599 c 0,20,21
 532 573 532 573 513.5 551.5 c 128,-1,22
 495 530 495 530 464 530 c 0,23,24
 440 530 440 530 425 543 c 128,-1,25
 410 556 410 556 410 580 c 0,26,27
 410 591 410 591 415 608 c 1,28,29
 403 600 403 600 395.5 581.5 c 128,-1,30
 388 563 388 563 379 524 c 2,31,-1
 277 73 l 2,32,33
 248 -58 248 -58 193 -116 c 128,-1,34
 138 -174 138 -174 69 -174 c 0,35,0
 27 -174 27 -174 -5.5 -152.5 c 128,-1,1
EndSplineSet
EndChar
StartChar: approxequal
Encoding: 8776 8776 331
Width: 523
GlyphClass: 1
Flags: W
LayerCount: 2
Fore
SplineSet
62.5 201 m 128,-1,1
 100 241 100 241 159 241 c 0,2,3
 186 241 186 241 206 232.5 c 128,-1,4
 226 224 226 224 250 208 c 0,5,6
 270 194 270 194 285 187.5 c 128,-1,7
 300 181 300 181 317 181 c 0,8,9
 362 181 362 181 375 244 c 1,10,-1
 476 203 l 1,11,12
 453 127 453 127 415.5 87 c 128,-1,13
 378 47 378 47 319 47 c 0,14,15
 292 47 292 47 272 55.5 c 128,-1,16
 252 64 252 64 228 80 c 0,17,18
 208 94 208 94 193 100.5 c 128,-1,19
 178 107 178 107 161 107 c 0,20,21
 116 107 116 107 103 44 c 1,22,-1
 2 85 l 1,23,0
 25 161 25 161 62.5 201 c 128,-1,1
107.5 410 m 128,-1,25
 145 450 145 450 204 450 c 0,26,27
 231 450 231 450 251 441.5 c 128,-1,28
 271 433 271 433 295 417 c 0,29,30
 315 403 315 403 330 396.5 c 128,-1,31
 345 390 345 390 362 390 c 0,32,33
 407 390 407 390 420 453 c 1,34,-1
 521 412 l 1,35,36
 498 336 498 336 460.5 296 c 128,-1,37
 423 256 423 256 364 256 c 0,38,39
 337 256 337 256 317 264.5 c 128,-1,40
 297 273 297 273 273 289 c 0,41,42
 253 303 253 303 238 309.5 c 128,-1,43
 223 316 223 316 206 316 c 0,44,45
 161 316 161 316 148 253 c 1,46,-1
 47 294 l 1,47,24
 70 370 70 370 107.5 410 c 128,-1,25
EndSplineSet
EndChar
StartChar: notequal
Encoding: 8800 8800 325
Width: 611
GlyphClass: 1
Flags: W
LayerCount: 2
Fore
SplineSet
78 91 m 1,0,-1
 15 91 l 1,1,-1
 44 230 l 1,2,-1
 203 230 l 1,3,-1
 246 278 l 1,4,-1
 54 278 l 1,5,-1
 83 415 l 1,6,-1
 368 415 l 1,7,-1
 440 496 l 1,8,-1
 613 496 l 1,9,-1
 541 415 l 1,10,-1
 598 415 l 1,11,-1
 569 278 l 1,12,-1
 419 278 l 1,13,-1
 376 230 l 1,14,-1
 559 230 l 1,15,-1
 530 91 l 1,16,-1
 251 91 l 1,17,-1
 170 0 l 1,18,-1
 -3 0 l 1,19,-1
 78 91 l 1,0,-1
EndSplineSet
EndChar
StartChar: lessequal
Encoding: 8804 8804 329
Width: 597
GlyphClass: 1
Flags: W
LayerCount: 2
Fore
SplineSet
41 259 m 1,0,-1
 70 395 l 1,1,-1
 613 511 l 1,2,-1
 583 370 l 1,3,-1
 242 323 l 1,4,-1
 563 274 l 1,5,-1
 535 143 l 1,6,-1
 41 259 l 1,0,-1
15 137 m 1,7,-1
 534 137 l 1,8,-1
 505 0 l 1,9,-1
 -14 0 l 1,10,-1
 15 137 l 1,7,-1
EndSplineSet
EndChar
StartChar: greaterequal
Encoding: 8805 8805 328
Width: 597
GlyphClass: 1
Flags: W
LayerCount: 2
Fore
SplineSet
47 284 m 1,0,-1
 387 333 l 1,1,-1
 67 380 l 1,2,-1
 95 511 l 1,3,-1
 589 395 l 1,4,-1
 560 259 l 1,5,-1
 17 143 l 1,6,-1
 47 284 l 1,0,-1
16 137 m 1,7,-1
 534 137 l 1,8,-1
 505 0 l 1,9,-1
 -13 0 l 1,10,-1
 16 137 l 1,7,-1
EndSplineSet
EndChar
StartChar: lozenge
Encoding: 9674 9674 343
Width: 616
GlyphClass: 1
Flags: W
LayerCount: 2
Fore
SplineSet
53 313 m 1,0,-1
 408 718 l 1,1,-1
 591 313 l 1,2,-1
 236 -94 l 1,3,-1
 53 313 l 1,0,-1
445 324 m 1,4,-1
 367 492 l 1,5,-1
 198 303 l 1,6,-1
 277 133 l 1,7,-1
 445 324 l 1,4,-1
EndSplineSet
EndChar
StartChar: acutecomb.case
Encoding: 65553 -1 352
Width: 0
GlyphClass: 4
Flags: W
AnchorPoint: "Anchor-5" 242 885 basemark 0
AnchorPoint: "Anchor-5" 196 668 mark 0
AnchorPoint: "Anchor-1" 196 668 mark 0
LayerCount: 2
Fore
SplineSet
317.5 877 m 128,-1,1
 335 886 335 886 356 886 c 0,2,3
 379 886 379 886 393 874 c 128,-1,4
 407 862 407 862 407 843 c 0,5,6
 407 820 407 820 393.5 803.5 c 128,-1,7
 380 787 380 787 356 772 c 2,8,-1
 287 729 l 1,9,-1
 146 729 l 1,10,-1
 277 848 l 2,11,0
 300 868 300 868 317.5 877 c 128,-1,1
EndSplineSet
EndChar
StartChar: gravecomb.case
Encoding: 65552 -1 350
Width: 0
GlyphClass: 4
Flags: W
AnchorPoint: "Anchor-5" 344 885 basemark 0
AnchorPoint: "Anchor-5" 298 668 mark 0
AnchorPoint: "Anchor-1" 298 668 mark 0
LayerCount: 2
Fore
SplineSet
172 794.5 m 128,-1,1
 166 805 166 805 166 817 c 0,2,3
 166 844 166 844 186 865 c 128,-1,4
 206 886 206 886 233 886 c 256,5,6
 260 886 260 886 285 848 c 2,7,-1
 364 729 l 1,8,-1
 243 729 l 1,9,-1
 192 772 l 2,10,0
 178 784 178 784 172 794.5 c 128,-1,1
EndSplineSet
EndChar
StartChar: one.tf
Encoding: 65540 -1 240
Width: 632
GlyphClass: 1
Flags: W
LayerCount: 2
Fore
SplineSet
75 133 m 1,0,-1
 222 133 l 1,1,-1
 287 437 l 1,2,-1
 140 437 l 1,3,-1
 168 571 l 1,4,5
 237 571 237 571 268.5 576.5 c 128,-1,6
 300 582 300 582 321.5 601.5 c 128,-1,7
 343 621 343 621 373 668 c 1,8,-1
 499 668 l 1,9,-1
 385 133 l 1,10,-1
 507 133 l 1,11,-1
 479 0 l 1,12,-1
 47 0 l 1,13,-1
 75 133 l 1,0,-1
EndSplineSet
Substitution2: "'pnum' Proportional Numbers in Latin lookup 9 subtable" one
AlternateSubs2: "'aalt' Access All Alternates in Latin lookup 0 subtable" one
EndChar
StartChar: uni0307.case
Encoding: 65550 -1 347
Width: 0
GlyphClass: 4
Flags: W
AnchorPoint: "Anchor-5" 258 875 basemark 0
AnchorPoint: "Anchor-5" 214 668 mark 0
AnchorPoint: "Anchor-1" 214 668 mark 0
LayerCount: 2
Fore
SplineSet
185.5 740.5 m 128,-1,1
 162 764 162 764 162 796 c 256,2,3
 162 828 162 828 185.5 851.5 c 128,-1,4
 209 875 209 875 241 875 c 256,5,6
 273 875 273 875 296.5 851.5 c 128,-1,7
 320 828 320 828 320 796 c 256,8,9
 320 764 320 764 296.5 740.5 c 128,-1,10
 273 717 273 717 241 717 c 256,11,0
 209 717 209 717 185.5 740.5 c 128,-1,1
EndSplineSet
EndChar
StartChar: uni0307.large
Encoding: 65551 -1 348
Width: 0
GlyphClass: 4
Flags: W
AnchorPoint: "Anchor-5" 250 766 basemark 0
AnchorPoint: "Anchor-5" 193 496 mark 0
AnchorPoint: "Anchor-1" 193 496 mark 0
LayerCount: 2
Fore
SplineSet
163 604 m 128,-1,1
 136 631 136 631 136 671 c 256,2,3
 136 711 136 711 163 738 c 128,-1,4
 190 765 190 765 230 765 c 256,5,6
 270 765 270 765 297 738 c 128,-1,7
 324 711 324 711 324 671 c 256,8,9
 324 631 324 631 297 604 c 128,-1,10
 270 577 270 577 230 577 c 256,11,0
 190 577 190 577 163 604 c 128,-1,1
EndSplineSet
EndChar
StartChar: uni030A.case
Encoding: 65559 -1 363
Width: 0
GlyphClass: 4
Flags: W
AnchorPoint: "Anchor-5" 315 865 basemark 0
AnchorPoint: "Anchor-5" 273 668 mark 0
AnchorPoint: "Anchor-1" 273 668 mark 0
LayerCount: 2
Fore
SplineSet
217.5 609 m 128,-1,1
 186 627 186 627 167.5 658.5 c 128,-1,2
 149 690 149 690 149 728 c 256,3,4
 149 766 149 766 167.5 797.5 c 128,-1,5
 186 829 186 829 217.5 847 c 128,-1,6
 249 865 249 865 286 865 c 256,7,8
 323 865 323 865 354.5 847 c 128,-1,9
 386 829 386 829 404.5 797.5 c 128,-1,10
 423 766 423 766 423 728 c 256,11,12
 423 690 423 690 404.5 658.5 c 128,-1,13
 386 627 386 627 354.5 609 c 128,-1,14
 323 591 323 591 286 591 c 256,15,0
 249 591 249 591 217.5 609 c 128,-1,1
318.5 695.5 m 128,-1,17
 332 709 332 709 332 728 c 256,18,19
 332 747 332 747 318.5 760.5 c 128,-1,20
 305 774 305 774 286 774 c 256,21,22
 267 774 267 774 253.5 760.5 c 128,-1,23
 240 747 240 747 240 728 c 256,24,25
 240 709 240 709 253.5 695.5 c 128,-1,26
 267 682 267 682 286 682 c 256,27,16
 305 682 305 682 318.5 695.5 c 128,-1,17
EndSplineSet
EndChar
StartChar: uni030C.alt
Encoding: 65555 -1 355
Width: 0
GlyphClass: 4
Flags: W
AnchorPoint: "Anchor-3" 82 496 mark 0
LayerCount: 2
Fore
SplineSet
230 718 m 0,1,2
 255 718 255 718 269.5 704 c 128,-1,3
 284 690 284 690 284 672 c 0,4,5
 284 658 284 658 276.5 642.5 c 128,-1,6
 269 627 269 627 252 602 c 2,7,-1
 199 524 l 1,8,-1
 103 524 l 1,9,-1
 157 664 l 2,10,0
 178 718 178 718 230 718 c 0,1,2
EndSplineSet
EndChar
StartChar: uni0328.alt
Encoding: 65562 -1 372
Width: 0
GlyphClass: 4
Flags: W
AnchorPoint: "Anchor-2" 226 10 mark 0
LayerCount: 2
Fore
SplineSet
25.5 -152 m 128,-1,1
 -25 -130 -25 -130 -25 -83 c 0,2,3
 -25 -45 -25 -45 15 -9 c 128,-1,4
 55 27 55 27 102 42 c 1,5,-1
 219 42 l 1,6,7
 169 11 169 11 142 -11.5 c 128,-1,8
 115 -34 115 -34 115 -61 c 0,9,10
 115 -77 115 -77 127.5 -86 c 128,-1,11
 140 -95 140 -95 162 -95 c 0,12,13
 181 -95 181 -95 205 -91 c 1,14,-1
 188 -172 l 1,15,16
 173 -174 173 -174 152 -174 c 0,17,0
 76 -174 76 -174 25.5 -152 c 128,-1,1
EndSplineSet
EndChar
StartChar: uni0328.case
Encoding: 65563 -1 373
Width: 0
GlyphClass: 4
Flags: W
AnchorPoint: "Anchor-2" 227 10 mark 0
LayerCount: 2
Fore
SplineSet
27 -154.5 m 128,-1,1
 -26 -133 -26 -133 -26 -90 c 0,2,3
 -26 -56 -26 -56 4.5 -31.5 c 128,-1,4
 35 -7 35 -7 78 8 c 1,5,-1
 225 0 l 1,6,7
 206 -1 206 -1 180 -11 c 128,-1,8
 154 -21 154 -21 135 -36 c 128,-1,9
 116 -51 116 -51 116 -67 c 0,10,11
 116 -81 116 -81 128.5 -88 c 128,-1,12
 141 -95 141 -95 161 -95 c 0,13,14
 179 -95 179 -95 207 -91 c 1,15,-1
 190 -172 l 1,16,17
 174 -176 174 -176 148 -176 c 0,18,0
 80 -176 80 -176 27 -154.5 c 128,-1,1
EndSplineSet
EndChar
